<?xml version="1.0" encoding="UTF-8" standalone="no"?>
<svg
   id="svg"
   version="1.1"
   width="400"
   height="400"
   viewBox="0, 0, 400,400"
   sodipodi:docname="favicon_new.svg"
   inkscape:version="1.1.1 (3bf5ae0d25, 2021-09-20)"
   xmlns:inkscape="http://www.inkscape.org/namespaces/inkscape"
   xmlns:sodipodi="http://sodipodi.sourceforge.net/DTD/sodipodi-0.dtd"
   xmlns="http://www.w3.org/2000/svg"
   xmlns:svg="http://www.w3.org/2000/svg">
  <defs
     id="defs21">
    <clipPath
       clipPathUnits="userSpaceOnUse"
       id="clipPath53820">
      <circle
         style="fill:#4c2493;fill-opacity:1;fill-rule:evenodd"
         id="circle53822"
         cx="200"
         cy="200"
         r="200" />
    </clipPath>
  </defs>
  <sodipodi:namedview
     id="namedview19"
     pagecolor="#ffffff"
     bordercolor="#666666"
     borderopacity="1.0"
     inkscape:pageshadow="2"
     inkscape:pageopacity="0.0"
     inkscape:pagecheckerboard="0"
     showgrid="false"
     inkscape:zoom="1.4142136"
     inkscape:cx="19.798989"
     inkscape:cy="178.89801"
     inkscape:window-width="1920"
     inkscape:window-height="1094"
     inkscape:window-x="-11"
     inkscape:window-y="-11"
     inkscape:window-maximized="1"
     inkscape:current-layer="svg" />
  <circle
     style="fill:#4c2493;fill-rule:evenodd;fill-opacity:1"
     id="path125"
     cx="200"
     cy="200"
     r="200" />
  <path
     style="fill:#f6e607;fill-opacity:1;stroke-width:0.176777"
     d="m 268.3377,70.201064 c -5.34917,0.299838 -10.65948,1.131029 -15.94526,1.979928 -3.42235,0.598662 -7.19145,1.491071 -9.3789,4.451563 -2.4795,3.338796 -4.78569,6.892381 -6.25396,10.80182 -0.43107,1.541659 -1.15233,3.461799 -0.13051,4.909351 1.0704,1.258086 3.05451,0.368314 4.07553,1.701131 0.59736,0.780151 1.47924,2.172891 2.64578,1.541272 1.46583,-0.869349 0.93308,-2.872107 1.07706,-4.27853 -0.25172,-2.701505 1.12042,-5.231907 2.85603,-7.219185 3.87552,-4.334994 9.82587,-6.949613 15.6508,-6.517626 3.76054,0.240089 7.24987,2.633113 8.93931,6.008681 2.05308,3.94017 2.23773,8.963392 -0.0273,12.879495 -0.68515,1.191195 -1.05841,2.758743 -0.10289,3.923956 1.21646,1.74002 2.63669,3.48829 4.52507,4.51575 1.95771,0.91975 4.1474,-0.36329 5.0748,-2.14001 2.67003,-4.441658 2.75628,-9.941284 1.92963,-14.919632 -0.55587,-3.282757 -2.05884,-6.316333 -4.02403,-8.975831 -0.88665,-1.634191 -1.5018,-3.468187 -2.97107,-4.711243 -1.75473,-1.902492 -3.87011,-3.900127 -6.63293,-3.920507 -0.43495,-0.03064 -0.8713,-0.03706 -1.30718,-0.03038 z"
     id="path9941" />
  <path
     style="fill:#f6e607;fill-opacity:1;stroke-width:0.176777"
     d="m 165.63769,69.654506 c -3.98307,0.03064 -8.33991,0.236652 -11.57073,2.877027 -5.04496,3.937773 -8.12871,10.0327 -9.23229,16.258359 -0.43238,3.589355 -0.55662,7.780611 2.0996,10.610238 1.36732,1.37024 3.41716,2.437 5.38544,2.04518 1.43093,-0.44036 0.97099,-2.196478 0.52342,-3.203389 -1.18508,-2.57637 -2.62999,-5.189547 -2.51803,-8.123441 -0.0969,-3.989365 2.30285,-7.798533 5.53022,-10.034258 5.1688,-3.848121 12.66747,-4.21651 18.1879,-0.972853 1.71183,1.027381 2.949,2.686946 3.41469,4.625196 0.79909,1.879176 2.98173,2.258006 4.62554,3.044219 0.63806,0.919982 0.11941,2.177645 0.12706,3.220306 -0.29726,0.577231 0.0913,1.779427 0.86455,1.222245 1.92472,-1.835902 3.54909,-4.071072 4.58583,-6.528308 0.52659,-2.094416 0.17318,-4.512014 -1.44065,-6.062004 -1.05564,-1.15605 -2.22253,-2.270216 -2.7174,-3.799167 -1.65897,-2.025334 -4.17757,-3.168387 -6.59343,-4.03684 -3.65734,-0.989927 -7.50321,-1.111156 -11.27172,-1.14251 z"
     id="path10017" />
  <path
     style="fill:#f4a7a2;fill-opacity:1;stroke-width:0.176777"
     d="m 262.26066,264.80631 c -4.50552,0.34262 -8.71161,2.3166 -12.65576,4.39628 -5.48429,3.01757 -10.23467,7.2186 -14.21179,12.03066 -3.79449,4.43847 -7.94424,8.54562 -11.77059,12.95355 -0.32141,0.42076 -1.21051,1.39681 -0.35701,1.71218 1.60702,-0.35222 3.01105,-1.40041 4.52936,-2.03254 1.36447,-0.61041 3.06993,-1.5825 4.55324,-0.81591 0.77017,0.75621 -0.50068,1.46204 -1.07586,1.81852 -3.07694,1.70647 -6.1929,3.36534 -9.38608,4.84341 -1.64451,0.77608 -3.62739,0.7412 -5.09657,1.94595 -3.75157,2.5993 -7.13217,5.75364 -10.07139,9.23955 -0.5332,0.53906 -1.0433,1.74758 -0.002,2.05721 3.64659,0.95822 7.54382,0.43898 11.1611,1.50226 0.53344,0.0525 0.95657,0.63009 0.21786,0.81068 -3.42631,1.3257 -7.43818,0.57807 -10.66737,2.55878 -0.78396,0.37207 -0.74739,1.46839 0.0497,1.79159 1.93136,1.23316 4.48753,0.70144 6.38053,1.97044 0.52255,0.84205 -0.90887,1.23058 -1.50778,1.36346 -1.79119,0.50684 -3.74144,0.0999 -5.56121,0.56071 -1.04886,0.51604 -0.17959,1.83479 -0.0898,2.64958 1.89826,7.40443 7.6145,13.31824 14.32282,16.702 7.06732,3.60121 15.10097,5.16198 23.00739,4.81154 8.61923,0.009 17.14429,-2.28597 24.88103,-6.0079 3.45267,-1.63748 6.9867,-3.6877 8.87957,-7.15536 3.62077,-6.459 3.56746,-14.58653 0.80689,-21.34924 -1.49041,-3.35598 -3.77012,-6.60012 -7.04448,-8.40242 -4.42757,-2.02466 -9.44279,-2.23402 -14.23501,-2.06331 -1.82484,0.1187 -4.17954,0.48554 -4.88657,2.46141 -1.62201,2.16846 -4.44688,3.04358 -7.05656,3.21443 -0.76836,0.0513 -1.83027,-0.344 -1.56441,-1.30994 0.14524,-0.98914 -0.51795,-2.07199 -1.63276,-1.90415 -1.27869,-0.2861 -2.85567,0.008 -3.94917,-0.80758 -0.44863,-1.05597 0.99128,-1.30451 1.72945,-1.36035 1.48615,-0.0465 2.80571,-0.81403 3.72957,-1.95041 1.60439,-1.34422 3.83927,-0.55303 5.72453,-1.07723 6.28799,-1.32187 11.83394,-5.1041 16.28177,-9.63217 2.70947,-2.77743 4.84852,-6.16814 5.72728,-9.97863 0.74733,-3.0603 2.012,-6.12891 1.78088,-9.32879 -0.32825,-2.56558 -3.07018,-3.64159 -5.11708,-4.58692 -1.85177,-0.75296 -3.78352,-1.65539 -5.82374,-1.63134 z m -38.70443,37.34477 c 0.8852,-0.16186 1.07603,1.10943 0.33387,1.43562 -2.21547,1.65613 -4.72044,3.07449 -7.44672,3.68434 -1.53153,0.26239 -1.70632,-2.1701 -0.47578,-2.6223 2.1589,-0.97544 4.36846,-1.95862 6.69301,-2.45209 0.29646,-0.0399 0.59651,-0.0622 0.89562,-0.0456 z"
     id="path10056" />
  <path
     style="fill:#f4a7a2;fill-opacity:1;stroke-width:0.176777"
     d="m 198.5261,314.07349 c -1.74469,-0.10841 -3.57356,0.4918 -4.59033,1.9877 -1.35768,1.89002 -2.89714,3.8208 -3.45336,6.12021 -0.11291,1.00729 1.20859,1.23058 1.81714,0.64012 2.0574,-1.2915 2.92029,-3.66188 3.40917,-5.92305 0.18147,-1.02679 1.51693,-0.45475 2.18623,-0.52826 1.60532,-0.005 3.36275,0.54544 4.89243,-0.10393 0.82181,-0.62382 -0.0654,-1.6345 -0.83382,-1.75119 -1.0975,-0.37414 -2.27589,-0.45199 -3.42746,-0.4416 z"
     id="path10132" />
  <path
     style="fill:#f6e607;fill-opacity:1;stroke-width:0.176777"
     d="m 282.83615,17.826825 c -0.63516,0.483001 -0.11031,1.514185 -0.15418,2.198936 0.47568,3.475101 1.99207,6.737793 2.13075,10.275857 0.21995,2.397988 0.0387,5.17653 1.91834,7.004379 2.3313,2.514566 4.90157,4.85688 7.75474,6.763535 1.70298,0.927116 3.32094,-0.726999 4.96089,-1.029533 1.82584,-0.35835 3.98906,-0.592697 5.63018,0.47538 0.90272,0.878369 1.84148,1.980064 3.24344,1.885502 2.25863,-0.05446 4.8903,0.402258 6.7449,-1.212426 1.32081,-1.205999 3.35967,-0.886526 4.60817,-2.218836 0.37841,-0.501052 1.1999,-0.64624 1.39315,-1.218102 -0.77498,-1.078692 -2.15584,-1.647595 -3.15489,-2.525402 -4.7765,-3.393516 -9.59345,-6.762444 -14.67642,-9.682894 -1.52387,-0.605389 -3.2681,-0.321407 -4.7783,-1.049717 -2.40192,-0.975764 -4.96775,-2.190207 -6.44081,-4.427253 -0.10152,-0.626198 -0.36577,-1.230822 -1.04029,-1.437692 -0.71961,-0.436127 -1.60712,-0.784964 -2.36853,-0.233055 -0.72288,0.266953 -1.58965,-0.385755 -1.25884,-1.150775 -0.70251,-1.002003 -2.11518,-1.24847 -3.12823,-1.863671 -0.45989,-0.158971 -0.89294,-0.520846 -1.38407,-0.554233 z"
     id="path10171" />
  <path
     style="fill:#f6e607;fill-opacity:1;stroke-width:0.176777"
     d="m 336.3401,192.15661 c -0.95606,0.30797 -1.09877,1.60525 -1.6117,2.3561 -0.29329,0.68924 -0.98058,1.78464 -1.79194,0.97538 -0.64157,-0.40003 -1.45935,-1.45685 -2.26737,-0.89493 -0.12234,0.89357 0.87055,1.57778 1.26899,2.31578 4.06459,5.39034 8.83694,10.2209 12.75956,15.70923 0.43921,0.41945 0.56946,1.71895 -0.36633,1.3973 -2.08003,-0.97412 -3.48465,-2.87963 -5.1486,-4.41846 -3.24185,-3.44019 -6.64608,-6.74269 -9.61329,-10.42975 -0.41331,-0.68635 -0.79143,-2.08133 -1.86444,-1.59824 -1.11582,0.74419 -0.18986,2.23485 0.38007,3.02844 1.93693,2.74322 2.79392,6.07774 3.87241,9.21583 0.63419,2.41157 1.58609,4.834 1.52487,7.3593 -0.36349,0.78383 -1.44074,0.0608 -1.78917,-0.40086 -2.39953,-2.94438 -2.10189,-7.01623 -3.73372,-10.33246 -0.48566,-0.97234 -0.84486,-2.07201 -1.51779,-2.90715 -0.74436,0.41037 -0.8358,1.58368 -1.12178,2.37924 -0.64843,3.29685 0.44774,6.62619 1.33688,9.77416 1.67944,5.16025 4.06625,10.22433 7.81614,14.20187 3.19417,3.62982 5.60089,7.83884 8.52674,11.67206 5.16178,7.2731 12.32796,13.10922 20.42632,16.82179 2.71849,1.27934 5.76938,1.15261 8.55572,2.18208 5.35587,1.74825 10.62723,3.81697 15.66062,6.34118 0.46907,0.51573 1.09431,0.0491 1.16044,-0.54414 3.5702,-9.71171 6.12152,-19.7841 8.0523,-29.94294 0.1731,-1.63709 0.86127,-3.29644 0.63738,-4.9456 -0.58267,-0.5572 -1.46064,-0.98668 -1.69526,-1.85581 -1.09362,-1.00564 -2.74916,-1.14623 -4.05868,-1.79884 -5.95024,-2.1657 -11.80182,-4.62253 -17.83504,-6.54903 -2.38038,-0.37032 -4.78444,-0.6475 -7.05692,-1.49777 -5.50698,-1.85989 -10.69268,-4.91094 -14.58511,-9.27939 -4.80925,-5.09426 -9.56189,-10.32363 -13.59872,-16.03591 -0.65575,-0.77704 -1.16917,-2.19327 -2.32258,-2.29846 z"
     id="path10358" />
  <path
     style="fill:#f4a7a2;fill-opacity:1;stroke:none;stroke-width:0;stroke-miterlimit:4;stroke-dasharray:none;stroke-dashoffset:0;stroke-opacity:1"
     d="m 164.97412,79.128418 c -2.91516,0.229594 -6.11193,0.848776 -8.29785,2.921875 -1.05873,0.994397 0.0924,2.456222 1.33789,2.341308 1.77906,-0.08209 3.32733,1.699634 2.64404,3.437012 -0.46427,1.543257 -2.16721,3.148372 -3.82493,2.150266 -1.35918,-0.308577 -3.61333,-1.357368 -4.40017,0.387332 -0.0295,1.871705 1.05358,3.656059 1.97901,5.240234 0.9264,1.612075 2.7914,2.583262 4.63818,2.019531 2.87149,-0.569975 5.58045,-1.814282 8.48535,-2.206054 2.09006,-1.007004 4.02927,-2.362011 6.30957,-2.956543 1.85794,-0.667906 4.32923,-2.611904 3.20313,-4.827637 -0.8971,-1.323284 -1.97705,-2.55304 -2.35693,-4.15625 -1.69803,-3.541348 -6.17536,-4.397708 -9.71729,-4.351074 z"
     id="path40459" />
  <path
     style="fill:none;stroke:#ff0000;stroke-width:1px;stroke-linecap:butt;stroke-linejoin:miter;stroke-opacity:1"
     d="m 59.131,278.63 c 0.442746,-7.101 0.442746,-7.101 0.442746,-7.101"
     id="path13084" />
  <path
     style="fill:#000000;fill-opacity:0;stroke:none;stroke-width:0;stroke-miterlimit:4;stroke-dasharray:none;stroke-dashoffset:0;stroke-opacity:1"
     d="m 57.446289,256.95605 c -6.47252,5.65523 -11.936299,12.49508 -17.534067,19.03038 -5.407626,6.66602 -10.413274,13.80705 -14.931753,21.00771 4.990637,8.12767 9.782473,16.53347 15.926757,23.83301 1.468229,-0.75801 1.288275,-3.53964 2.111177,-4.99802 2.042262,-5.64059 3.01779,-11.6411 5.214995,-17.19925 0.839599,-1.25009 1.526456,-4.25241 3.438477,-3.81445 1.027214,1.80232 -0.741816,3.83473 -0.246094,5.51855 1.210244,0.34602 3.167756,-0.11877 2.516602,1.94141 -1.357119,9.04095 -4.93733,17.68994 -6.056641,26.77832 1.114591,3.35893 4.621313,5.41349 6.754496,8.14302 20.319737,21.62465 45.561712,38.59327 73.236712,49.27397 2.96138,-1.62982 4.67226,-5.13744 7.10963,-7.48787 5.35122,-6.03107 9.65076,-12.88571 14.1726,-19.53459 -1.38417,-1.97938 -3.57708,-3.86249 -5.97461,-4.52734 -3.02092,-2.18165 -1.59217,-6.54483 -1.7002,-9.64746 0.0743,-3.85285 3.4385,-6.19117 5.03809,-9.30665 -0.14039,-2.23056 -3.10547,-0.4309 -4.22949,0.043 -7.79583,1.68139 -15.99373,1.71844 -23.87207,0.86426 -3.5124,-1.22832 -7.02677,-2.60383 -10.55369,-3.86763 -4.66037,-2.14216 -9.155705,-4.62204 -13.9271,-6.51006 -2.73705,-1.87187 -5.643295,-3.31982 -8.219405,-5.4309 -6.717835,-4.2407 -12.466614,-10.03321 -17.468752,-16.15918 -4.380971,-5.79479 -6.279928,-12.96293 -8.849609,-19.62012 -1.721877,-9.14657 -0.248029,-18.61792 -1.31543,-27.83105 -0.08859,-0.27134 -0.325918,-0.5472 -0.640625,-0.49903 z"
     id="path19454" />
  <path
     style="fill:#f6e607;fill-opacity:1;stroke:none;stroke-width:0;stroke-miterlimit:4;stroke-dasharray:none;stroke-dashoffset:0;stroke-opacity:1"
     d="m 57.301758,256.27148 c -4.673875,3.44454 -8.208592,8.3614 -12.229872,12.55646 -7.713247,8.66825 -14.675237,18.1309 -20.746063,27.93782 3.868053,7.67204 9.010152,14.99173 14.002822,22.11495 0.7521,1.12575 2.664703,4.07786 3.84323,1.75991 2.511285,-6.92242 4.147613,-14.15175 6.423828,-21.12109 0.673299,-1.32412 1.46854,-3.47619 2.59082,-3.97656 0.74806,1.8386 -2.191996,4.94602 0.665039,5.66992 2.262737,-0.65796 1.167079,1.9621 1.060263,3.153 -1.651291,8.30245 -4.731535,16.34986 -5.722372,24.76204 1.026008,3.58068 4.728618,5.71031 6.950785,8.55806 20.397052,21.70782 45.739127,38.73252 73.519912,49.45366 2.6769,-0.35258 3.90086,-3.65331 5.79816,-5.29421 6.17868,-6.9208 11.63845,-14.59873 16.36393,-22.49883 -1.04558,-1.9679 -3.34554,-4.00866 -5.62986,-4.79485 -3.34883,-1.26632 -1.87677,-5.75048 -2.08789,-8.49122 -0.0803,-3.91253 3.04545,-6.50557 4.96387,-9.50097 1.01952,-2.31918 -2.14533,-2.96917 -3.61524,-1.84473 -5.24272,2.25441 -11.10519,1.7011 -16.66797,1.98247 -4.34428,0.0156 -8.73281,-0.0345 -12.64746,-2.2061 -6.8918,-1.80146 -12.8156,-5.94192 -19.45605,-8.39063 -2.912115,-1.8784 -5.899985,-3.49444 -8.625,-5.64941 -6.607325,-4.1658 -12.327828,-9.95667 -17.231445,-15.94824 -4.383865,-5.85641 -6.319969,-13.01426 -8.830078,-19.75586 -1.572923,-9.10477 -0.100934,-18.44531 -1.268555,-27.5752 -0.1997,-0.57812 -0.794191,-1.02998 -1.424804,-0.90039 z"
     id="path36064" />
  <path
     style="fill:#f6e607;fill-opacity:1;stroke:none;stroke-width:0;stroke-miterlimit:4;stroke-dasharray:none;stroke-dashoffset:0;stroke-opacity:1"
     d="m 170.8091,93.686124 c -4.45573,1.733755 -8.0593,5.381392 -12.50987,7.246866 -3.60088,2.47966 -8.84086,2.53629 -10.76389,7.06376 -1.77054,3.29146 -6.09772,4.2598 -7.17326,8.01019 -2.50122,3.23932 -8.31386,6.21327 -5.61819,11.02921 -3.20185,4.81786 -5.44522,11.50554 -2.58398,16.97333 3.13808,1.21066 1.70273,-3.79281 2.21662,-5.57399 -0.1086,-1.51335 3.53748,-4.50125 2.56878,-1.33826 -0.92917,2.76558 0.18652,9.05488 4.22883,7.43705 1.97035,-3.93616 -6.7e-4,-8.87635 0.37789,-13.14401 0.12719,-1.70071 -0.81971,-6.23958 1.71581,-5.97825 0.33615,1.78163 0.68214,4.4289 3.26623,3.93328 1.45274,2.39613 0.37373,6.59252 2.70413,9.00042 1.06706,1.53192 -0.27833,5.8942 2.76904,5.06161 2.14799,-3.92354 0.89569,-9.14995 1.94178,-13.28863 1.68629,5.6962 0.65038,13.57503 7.18156,16.41537 1.95134,1.48567 3.67682,-1.40136 1.68628,-2.65027 -2.48711,-1.7872 -4.43133,-4.12337 -4.1943,-7.40114 -9.1e-4,-1.61418 -0.53098,-5.08448 1.44183,-5.58228 0.63487,1.76451 3.05989,3.41089 3.96505,0.83831 1.60871,-2.82116 2.99008,-7.22753 6.37363,-7.98534 -2.03176,4.9949 -5.97103,9.85273 -4.60863,15.67512 0.23922,3.83519 4.39488,6.77237 7.97567,5.092 -0.087,-2.44188 -3.21859,-4.36281 -2.73728,-7.31966 -0.0345,-2.53166 -0.31541,-6.35752 1.63657,-8.02953 1.90425,2.38857 -1.9233,7.53527 1.90035,8.65239 4.208,-0.51046 2.85946,-5.90356 4.37246,-8.42037 4.88585,-1.24774 6.64719,-7.48048 11.78603,-8.6372 4.04537,-1.84872 8.05511,1.3219 11.7957,2.13513 3.46513,-2.41389 8.04811,-3.49505 11.74322,-0.9336 4.29636,2.04481 5.93563,6.71619 7.16775,10.91182 2.18332,2.06792 2.28383,-3.26459 3.68607,-2.59088 0.83097,3.43495 -2.15427,6.59701 -1.72358,9.92021 3.4063,1.24665 6.20405,-3.09633 7.44534,-5.80739 0.0334,-1.48629 1.6174,-4.39933 2.45278,-4.16254 0.37175,2.92685 -1.70647,7.05856 0.81206,9.30563 3.36437,-0.29377 4.02001,-5.15941 4.78126,-7.83341 0.51529,-3.23935 4.46363,-6.5586 7.7768,-5.60023 2.7989,5.05011 -0.27278,11.62176 2.276,16.8145 2.20276,1.47602 -0.43963,4.76124 -1.08553,6.56421 -1.44042,3.24864 -4.87497,5.99417 -4.97874,9.63295 2.22561,1.63322 4.95881,-1.59496 7.00753,-2.60607 3.91412,-2.95601 5.46368,-7.8291 8.54882,-11.47944 -0.29388,6.55522 -2.47883,13.04753 -2.22491,19.57664 2.3259,1.91671 4.2336,-2.42302 5.75215,-3.79794 1.87336,-1.91438 3.33816,-5.62866 5.64857,-6.43163 2.70983,1.6181 1.05898,3.93364 0.15606,5.95931 -1.0055,4.88904 -2.91317,10.12783 -2.03707,15.09369 2.82261,1.19303 3.05836,-4.10443 4.47466,-5.60714 1.05027,-2.97662 2.93368,-7.29276 6.77137,-6.18442 1.07934,2.71365 3.02974,4.81033 2.38097,7.995 0.43931,2.72018 -0.78701,6.28097 1.00817,8.53086 3.07047,-0.2024 2.96889,-4.89477 4.14321,-7.01859 0.79098,-3.92314 3.12425,-8.37752 1.16838,-12.2045 0.32795,-7.52429 5.46258,-14.78429 2.45447,-22.40498 -2.83796,-6.24464 0.27045,-14.30602 -5.09231,-19.49109 -2.54444,-2.36814 -7.13179,-3.90921 -7.61797,-7.68426 0.062,-4.99711 -6.26852,-6.38232 -9.41197,-9.06119 -5.91635,-4.617108 -14.16052,-2.787027 -20.98257,-4.431847 -3.25323,-0.723562 -6.62521,1.589283 -9.67577,0.617337 -3.45268,-3.403568 -8.4253,0.412003 -12.24454,1.168384 -2.43907,0.977646 -0.33024,2.945896 0.82449,3.930516 0.5534,2.86786 -4.1291,0.12638 -5.81843,0.51514 -3.30204,-0.10399 -4.71271,4.7047 -1.21258,5.86402 -2.18675,3.44225 -5.26219,-3.336 -7.94805,-0.32594 -1.70777,0.849 -3.56051,3.84615 -5.60299,3.27452 -0.27432,-2.68291 5.26587,-3.51647 3.94019,-6.38054 -2.98676,-0.8351 -5.89126,2.51658 -9.104,1.64624 2.04604,-2.88485 7.2961,-2.98042 8.12206,-6.61946 -2.07749,-3.140453 -6.9325,-2.67115 -10.18795,-3.98333 -2.77345,-1.152136 -6.37095,-0.498391 -8.04629,1.464258 -0.34278,-2.72073 0.76065,-6.287731 -3.70541,-4.940079 -4.51289,-0.04118 -9.07889,0.146984 -13.55656,-0.419845 z m 101.84409,45.562816 c 2.39011,1.86845 2.23392,6.77075 -0.13673,8.39689 -0.5902,-2.55295 -1.58872,-6.23415 0.13673,-8.39689 z m 6.35154,4.42218 c 0.68158,4.14737 -2.08646,8.43455 -1.49433,12.58567 2.61923,1.37945 3.07184,-3.26679 4.02306,-4.85998 0.35423,-0.90876 0.46787,-3.36309 1.13247,-1.13248 -0.0408,2.82459 -0.24853,6.93306 -2.03523,8.59504 -2.15077,-0.35544 -4.73674,0.92463 -6.56744,0.45786 0.96705,-5.36162 1.99371,-11.00844 4.90003,-15.6765 z"
     id="path36103" />
  <path
     style="fill:#f6e607;fill-opacity:1;stroke:none;stroke-width:0;stroke-miterlimit:4;stroke-dasharray:none;stroke-dashoffset:0;stroke-opacity:1"
     d="m 219.85986,136.59692 c -1.52447,0.27531 -2.62031,1.53216 -3.77876,2.46637 -1.46816,1.41292 -3.09305,2.72974 -4.24175,4.42792 -0.58127,0.91152 0.49416,2.06281 1.45484,1.60815 2.63303,-1.0333 4.82311,-2.95442 6.77319,-4.95825 0.77546,-0.78711 1.64161,-2.17741 0.73755,-3.18237 -0.24659,-0.24613 -0.59763,-0.37846 -0.94507,-0.36182 z"
     id="path36142" />
  <path
     style="fill:#f6e607;fill-opacity:1;stroke:none;stroke-width:0;stroke-miterlimit:4;stroke-dasharray:none;stroke-dashoffset:0;stroke-opacity:1"
     d="m 181.21948,134.25732 c -1.43912,0.14561 -1.79752,1.91057 -1.59692,3.10181 0.0227,1.13032 1.26156,2.28012 2.36157,1.61133 1.13126,-0.84844 1.11108,-2.59344 0.61768,-3.79224 -0.2486,-0.52742 -0.77843,-0.95108 -1.38233,-0.9209 z"
     id="path36181" />
  <path
     style="fill:#f6e607;fill-opacity:1;stroke:none;stroke-width:0;stroke-miterlimit:4;stroke-dasharray:none;stroke-dashoffset:0;stroke-opacity:1"
     d="m 161.46924,132.21313 c -0.83584,0.66697 -0.32647,1.82889 -0.0942,2.68482 0.45194,0.83612 1.7417,0.56461 1.9525,-0.32181 0.42271,-0.71102 0.83556,-1.94887 -0.19103,-2.35495 -0.53111,-0.18417 -1.13772,-0.19857 -1.66723,-0.008 z"
     id="path36220" />
  <path
     style="fill:#f6e607;fill-opacity:1;stroke:none;stroke-width:0;stroke-miterlimit:4;stroke-dasharray:none;stroke-dashoffset:0;stroke-opacity:1"
     d="m 143.67749,128.81396 c -1.42789,0.0924 -1.73027,1.83792 -1.57275,2.98536 0.0267,1.05807 0.95762,2.24069 2.10693,1.80981 1.36297,-0.59071 1.41981,-2.44733 1.00366,-3.66992 -0.23052,-0.63692 -0.82811,-1.17287 -1.53784,-1.12525 z"
     id="path36259" />
  <path
     style="fill:#f6e607;fill-opacity:1;stroke:none;stroke-width:0;stroke-miterlimit:4;stroke-dasharray:none;stroke-dashoffset:0;stroke-opacity:1"
     d="m 133.57593,143.11963 c -0.74265,0.091 -1.84314,0.17404 -1.87256,1.15869 0.0261,1.14432 1.5257,2.37106 2.53003,1.42798 0.69529,-0.66331 0.8989,-2.21107 -0.23364,-2.54175 -0.13704,-0.0406 -0.28157,-0.0519 -0.42383,-0.0449 z"
     id="path36298" />
  <path
     style="fill:#f6e607;fill-opacity:1;stroke:none;stroke-width:0;stroke-miterlimit:4;stroke-dasharray:none;stroke-dashoffset:0;stroke-opacity:1"
     d="m 133.41577,151.57178 c -1.33386,0.0348 -1.66701,1.6073 -1.41797,2.66967 0.24594,1.3413 0.65281,3.10128 2.14258,3.53272 1.21272,0.30271 2.06509,-1.03228 1.86249,-2.11686 -0.0784,-1.5487 -0.55707,-3.53736 -2.23212,-4.05062 -0.11644,-0.0252 -0.23582,-0.0376 -0.35498,-0.0349 z"
     id="path36337" />
  <path
     style="fill:#f6e607;fill-opacity:1;stroke:none;stroke-width:0;stroke-miterlimit:4;stroke-dasharray:none;stroke-dashoffset:0;stroke-opacity:1"
     d="m 129.74023,160.93823 c -1.53437,0.0701 -2.05884,1.77608 -2.677,2.90283 -0.81111,1.84647 -1.8324,3.67845 -2.11694,5.69654 -0.11665,1.33787 1.44545,1.97578 2.54712,1.59521 2.28638,-0.75302 3.62657,-3.02369 4.53024,-5.11628 0.52427,-1.3185 1.01287,-3.17337 -0.23337,-4.23797 -0.58366,-0.45013 -1.2971,-0.83034 -2.05005,-0.84033 z"
     id="path36376" />
  <path
     style="fill:#f7f8f9;fill-opacity:1;stroke:none;stroke-width:0;stroke-miterlimit:4;stroke-dasharray:none;stroke-dashoffset:0;stroke-opacity:1"
     d="m 128.0852,188.19116 c -1.34931,0.0595 -2.44432,1.48069 -2.36474,2.78247 0.22564,1.30719 1.92273,1.52499 2.8435,0.80664 1.12846,-0.58614 1.78446,-2.3395 0.66797,-3.25366 -0.32269,-0.25385 -0.74286,-0.34722 -1.14673,-0.33545 z"
     id="path36415" />
  <path
     style="fill:#f6e607;fill-opacity:1;stroke:none;stroke-width:0;stroke-miterlimit:4;stroke-dasharray:none;stroke-dashoffset:0;stroke-opacity:1"
     d="m 291.23828,135.8186 c -0.98745,-0.0671 -1.67482,0.98962 -1.30201,1.88133 0.52056,1.85142 0.99101,3.67787 1.50001,5.52712 0.24687,0.9758 1.49491,1.89173 2.38086,1.06421 0.95084,-1.125 0.70419,-2.74725 0.67383,-4.11536 -0.10998,-1.52553 -0.36668,-3.50422 -2.02881,-4.1073 -0.3869,-0.15844 -0.80397,-0.25861 -1.22388,-0.25 z"
     id="path36454" />
  <path
     style="fill:#f6e607;fill-opacity:1;stroke:none;stroke-width:0;stroke-miterlimit:4;stroke-dasharray:none;stroke-dashoffset:0;stroke-opacity:1"
     d="m 289.62256,121.70532 c -1.26731,0.10498 -1.60184,1.58648 -1.40718,2.63106 0.4215,2.94301 1.43364,5.80342 2.80391,8.43486 0.39771,0.92222 1.84314,1.30559 2.37133,0.29272 0.55229,-1.39541 0.21645,-2.9669 0.051,-4.41358 -0.42491,-2.0732 -0.82279,-4.2985 -2.14646,-6.01244 -0.41916,-0.47889 -1.01322,-0.92243 -1.67261,-0.93262 z"
     id="path36493" />
  <path
     style="fill:#f6e607;fill-opacity:1;stroke:none;stroke-width:0;stroke-miterlimit:4;stroke-dasharray:none;stroke-dashoffset:0;stroke-opacity:1"
     d="m 283.5354,110.10156 c -1.12273,0.44871 -0.9172,1.93716 -0.65137,2.88037 0.36013,1.25712 1.93453,2.49445 3.18897,1.64673 0.84723,-0.51349 0.84737,-1.64948 0.27221,-2.36499 -0.6671,-0.81894 -1.31822,-1.84137 -2.36352,-2.18677 -0.14876,0.008 -0.29753,0.0164 -0.44629,0.0247 z"
     id="path36571" />
  <path
     style="fill:#f6e607;fill-opacity:1;stroke:none;stroke-width:0;stroke-miterlimit:4;stroke-dasharray:none;stroke-dashoffset:0;stroke-opacity:1"
     d="m 287.42749,115.46582 c -1.52114,0.22315 -2.0078,2.22773 -1.29028,3.42456 0.35345,0.95984 1.76398,1.76062 2.52758,0.76343 0.83892,-1.08869 0.63862,-2.83337 -0.25268,-3.8335 -0.26292,-0.24426 -0.62407,-0.38557 -0.98462,-0.35449 z"
     id="path36610" />
  <path
     style="fill:#f7f8f9;fill-opacity:1;stroke:none;stroke-width:0;stroke-miterlimit:4;stroke-dasharray:none;stroke-dashoffset:0;stroke-opacity:1"
     d="m 325.78125,88.972656 c -2.92162,0.649424 -3.81776,3.990421 -5.08868,6.298949 -0.85156,2.165089 -2.44644,4.624875 -1.49384,6.993535 1.78259,2.47358 5.72672,1.82375 7.68457,-0.13965 3.5049,-3.179896 3.56196,-9.413449 0.21045,-12.703127 -0.38259,-0.268753 -0.83182,-0.489096 -1.3125,-0.449707 z"
     id="path38749" />
  <path
     style="fill:#f7f8f9;fill-opacity:1;stroke:none;stroke-width:0;stroke-miterlimit:4;stroke-dasharray:none;stroke-dashoffset:0;stroke-opacity:1"
     d="m 332.99853,100.12402 c -2.6291,0.38188 -4.56233,2.71051 -5.82763,4.88526 -1.16153,1.89868 -0.73483,4.89821 1.61084,5.63232 2.87005,0.63311 6.0081,-0.67169 8.04687,-2.69385 2.03523,-1.90335 1.531,-5.42253 -0.87109,-6.77588 -0.87121,-0.59018 -1.87724,-1.10339 -2.95899,-1.04785 z"
     id="path38788" />
  <path
     style="fill:#f7f8f9;fill-opacity:1;stroke:none;stroke-width:0;stroke-miterlimit:4;stroke-dasharray:none;stroke-dashoffset:0;stroke-opacity:1"
     d="m 335.34033,111.67529 c -1.35911,-0.009 -2.10756,1.61603 -3.56348,1.15088 -2.24208,0.12827 -5.10568,1.52167 -5.2373,4.03955 0.35358,2.44541 3.42937,2.91103 5.46338,2.67188 2.70455,-0.3645 5.68803,-1.78506 6.79639,-4.41358 0.35976,-1.80865 -1.84359,-3.38458 -3.45899,-3.44873 z"
     id="path38827" />
  <path
     style="fill:#f7f8f9;fill-opacity:1;stroke:none;stroke-width:0;stroke-miterlimit:4;stroke-dasharray:none;stroke-dashoffset:0;stroke-opacity:1"
     d="m 336.7749,119.62744 c -3.243,0.55122 -6.60516,1.27398 -9.45361,2.99365 -1.55664,1.08762 -3.81648,2.6674 -3.22852,4.84278 1.02165,1.75604 3.47752,1.05508 5.125,0.92968 1.9428,-0.57558 4.74923,-0.24355 5.87158,-2.30029 0.60187,-2.02836 2.95872,-3.11742 3.25147,-5.23193 -0.0192,-0.80461 -0.8252,-1.29166 -1.56592,-1.23389 z"
     id="path38866" />
  <path
     style="fill:#f7f8f9;fill-opacity:1;stroke:none;stroke-width:0;stroke-miterlimit:4;stroke-dasharray:none;stroke-dashoffset:0;stroke-opacity:1"
     d="m 310.09717,51.762207 c -1.54694,-0.172818 -3.65174,0.54422 -3.7385,2.282631 0.75116,1.360059 2.72853,1.554088 4.09348,2.188072 2.24578,0.852224 4.64406,1.140241 6.96386,1.62793 0.36606,1.048009 0.50896,2.603507 -0.19824,3.534179 -1.76942,-0.315486 -2.9119,-2.061441 -4.54004,-2.830566 -2.09756,-1.511704 -5.56614,-2.019794 -7.24463,0.348145 -1.52395,2.641097 -0.32503,6.051133 1.89063,7.919433 2.23281,2.009957 4.8726,4.213442 8.0249,4.255371 3.59063,-0.471865 5.55723,-4.109312 6.99854,-7.043457 0.9553,-2.428162 2.18964,-5.317959 1.11718,-7.891601 -0.89535,-1.542647 -2.89192,-1.502975 -4.08593,-2.717286 -2.74434,-1.741702 -6.15707,-1.675496 -9.28125,-1.672851 z"
     id="path38905" />
  <path
     style="fill:#f4a7a2;fill-opacity:1;stroke:none;stroke-width:0;stroke-miterlimit:4;stroke-dasharray:none;stroke-dashoffset:0;stroke-opacity:1"
     d="m 261.53223,79.127929 c -1.40936,0.03351 -3.7457,1.633224 -2.16984,3.003036 1.15571,0.978789 0.55897,2.915256 0.32023,4.209855 -1.08107,2.441445 -4.16727,3.223834 -6.62842,3.168945 -2.07812,0.01878 -2.42208,-3.359342 -4.65576,-2.713379 -1.96268,1.129381 -1.56197,3.861619 -1.40869,5.773438 0.13161,2.135486 2.2224,3.239707 4.13134,3.442383 5.32375,0.909958 10.69629,1.489138 16.02149,2.297363 2.40962,-0.238285 3.63078,-2.99037 3.75958,-5.143807 0.40254,-3.99673 0.15135,-8.661933 -2.77277,-11.720451 -1.87752,-1.323448 -4.33207,-2.061352 -6.59716,-2.317383 z"
     id="path40381" />
  <path
     style="fill:#f4a7a2;fill-opacity:1;stroke:none;stroke-width:0;stroke-miterlimit:4;stroke-dasharray:none;stroke-dashoffset:0;stroke-opacity:1"
     d="m 257.45508,82.414551 c -1.18637,0.0703 -1.96204,1.1687 -3.18067,1.159179 -1.8007,0.342823 -3.55385,2.890801 -2.01513,4.392578 2.4076,1.131264 5.54296,-0.313801 6.82177,-2.522461 0.72039,-1.267001 -0.0112,-3.125631 -1.62597,-3.029296 z"
     id="path40420" />
  <path
     style="fill:#ff8dff;fill-opacity:1;stroke:none;stroke-width:0;stroke-miterlimit:4;stroke-dasharray:none;stroke-dashoffset:0;stroke-opacity:1"
     d="m 302.16406,45.418457 c -1.99842,0.02762 -0.88372,3.245606 -2.84326,3.177246 -1.76732,0.445694 -3.54964,-1.42046 -5.19385,-0.43457 -1.23526,1.536981 0.69697,3.492035 2.15332,3.994629 2.92306,1.073043 6.43701,0.875946 9.14551,-0.679688 1.74448,-1.259211 0.43348,-3.625003 -0.85889,-4.685059 -0.68047,-0.602945 -1.4208,-1.393663 -2.40283,-1.372558 z"
     id="path40498" />
  <path
     style="fill:#ff8dff;fill-opacity:1;stroke:none;stroke-width:0;stroke-miterlimit:4;stroke-dasharray:none;stroke-dashoffset:0;stroke-opacity:1"
     d="m 323.33789,43.208008 c -2.27413,-0.06357 -3.69282,2.161838 -5.88818,2.491699 -1.40229,0.402781 -3.85277,1.222942 -3.16651,3.140625 1.50245,2.041522 4.47303,1.914763 6.75342,2.000241 1.68627,-0.01592 4.29699,0.171012 4.75928,-1.978268 -0.0861,-1.493885 1.7368,-1.710112 2.12695,-2.910157 -0.1093,-1.982216 -2.94871,-2.761519 -4.58496,-2.74414 z"
     id="path40537" />
  <path
     style="fill:#ff8dff;fill-opacity:1;stroke:none;stroke-width:0;stroke-miterlimit:4;stroke-dasharray:none;stroke-dashoffset:0;stroke-opacity:1"
     d="m 326.38281,63.152344 c -1.8657,0.377173 -2.93851,2.371594 -3.50146,4.020019 -0.18945,1.572412 1.91204,1.842615 2.74267,0.792481 1.24625,-0.995781 3.0984,-2.826746 1.80469,-4.471192 -0.27333,-0.266339 -0.66994,-0.382003 -1.0459,-0.341308 z"
     id="path40576" />
  <path
     style="fill:#ff8dff;fill-opacity:1;stroke:none;stroke-width:0;stroke-miterlimit:4;stroke-dasharray:none;stroke-dashoffset:0;stroke-opacity:1"
     d="m 320.94824,72.763672 c -1.63405,0.35954 -4.14041,0.882341 -4.32275,2.910156 0.78127,4.250208 1.6841,8.523036 3.02539,12.635742 0.29554,1.303248 2.04586,2.157852 2.95019,0.882324 2.15881,-2.019498 0.97482,-5.232485 0.76465,-7.752441 -0.49454,-2.486103 -0.30307,-5.052942 -0.70703,-7.533692 -0.21946,-0.734167 -0.94789,-1.219012 -1.71045,-1.142089 z"
     id="path40615" />
  <path
     style="fill:#ff8dff;fill-opacity:1;stroke:none;stroke-width:0;stroke-miterlimit:4;stroke-dasharray:none;stroke-dashoffset:0;stroke-opacity:1"
     d="m 316.07812,85.429687 c -1.75207,0.469686 -1.0797,2.796712 -1.11084,4.135254 0.34882,2.061253 0.20083,4.45486 1.48536,6.197266 1.39899,1.12009 2.95411,-0.790335 2.65478,-2.214356 -0.14571,-2.686838 -0.67387,-5.525782 -2.17285,-7.798828 -0.22277,-0.222688 -0.54134,-0.343546 -0.85645,-0.319336 z"
     id="path40654" />
  <path
     style="fill:#ff8dff;fill-opacity:1;stroke:none;stroke-width:0;stroke-miterlimit:4;stroke-dasharray:none;stroke-dashoffset:0;stroke-opacity:1"
     d="m 315.521,81.129883 c -2.18571,0.298854 -1.93251,4.438014 0.46142,3.936523 1.9486,-0.454613 1.50864,-3.96787 -0.46142,-3.936523 z"
     id="path40732" />
  <path
     style="fill:#ff8dff;fill-opacity:1;stroke:none;stroke-width:0;stroke-miterlimit:4;stroke-dasharray:none;stroke-dashoffset:0;stroke-opacity:1"
     d="m 335.41504,135.72559 c -1.82044,0.45197 -1.48095,2.86386 -1.82737,4.29744 -0.33712,1.35095 0.0623,3.04365 -0.71951,4.16789 -1.20146,0.73041 -2.00205,2.38727 -0.83545,3.52099 1.44877,1.61859 4.58405,2.46961 5.88526,0.23731 0.66697,-2.5574 0.25861,-5.31526 0.003,-7.92265 -0.31522,-1.53403 -0.55514,-4.04937 -2.50599,-4.30098 z"
     id="path40771" />
  <path
     style="fill:#ff8dff;fill-opacity:1;stroke:none;stroke-width:0;stroke-miterlimit:4;stroke-dasharray:none;stroke-dashoffset:0;stroke-opacity:1"
     d="m 325.71826,128.89307 c -1.81998,0.11268 -1.51987,2.29921 -1.28999,3.54673 0.71991,4.32304 1.30446,8.7501 2.86323,12.86293 0.57649,1.50869 2.62333,0.84523 2.66504,-0.60888 1.56751,-0.59629 1.96978,-2.25583 2.04535,-3.76471 0.4911,-3.41317 0.68388,-6.85717 1.56061,-10.1723 -0.42843,-1.94006 -3.46018,-1.17702 -3.90479,0.42724 -0.59602,1.4481 -0.63752,3.0398 -0.87646,4.56885 -0.42365,-1.99785 0.26712,-4.44977 -1.16113,-6.10693 -0.51987,-0.45572 -1.19607,-0.79051 -1.90186,-0.75293 z"
     id="path40810" />
  <path
     style="fill:#f6e607;fill-opacity:1;stroke:none;stroke-width:0;stroke-miterlimit:4;stroke-dasharray:none;stroke-dashoffset:0;stroke-opacity:1"
     d="m 274.25342,167.88037 c -1.6836,0.50374 -2.02375,2.6965 -2.09619,4.22803 -0.0674,1.57619 2.04882,1.78718 2.70703,0.54199 1.14227,-1.21348 1.55992,-3.94234 -0.22168,-4.7417 -0.127,-0.0301 -0.25914,-0.0404 -0.38916,-0.0283 z"
     id="path46272" />
  <path
     style="fill:#f6e607;fill-opacity:1;stroke:none;stroke-width:0;stroke-miterlimit:4;stroke-dasharray:none;stroke-dashoffset:0;stroke-opacity:1"
     d="m 277.62793,155.42957 c -0.67487,0.0559 -1.01855,0.75829 -0.98633,1.37146 -0.0956,0.65033 0.0349,1.47713 0.73975,1.72595 0.76764,0.29007 1.38727,-0.40307 1.76977,-0.97693 0.36976,-0.451 0.64623,-1.14027 0.19791,-1.6323 -0.39775,-0.43749 -1.03892,-0.37607 -1.57376,-0.49441 -0.0491,0.002 -0.0982,0.004 -0.14734,0.006 z"
     id="path46311" />
  <path
     style="fill:#f6e607;fill-opacity:1;stroke:none;stroke-width:0;stroke-miterlimit:4;stroke-dasharray:none;stroke-dashoffset:0;stroke-opacity:1"
     d="m 277.24219,157.66125 c -0.79836,0.1229 -1.48993,1.05875 -1.19348,1.8545 0.24176,0.59819 0.96801,0.73939 1.52309,0.5324 0.65454,-0.0305 1.23183,-0.66079 1.04937,-1.32286 -0.16465,-0.58485 -0.74327,-1.11969 -1.37898,-1.06404 z"
     id="path46350" />
  <path
     style="fill:#f6e607;fill-opacity:1;stroke:none;stroke-width:0;stroke-miterlimit:4;stroke-dasharray:none;stroke-dashoffset:0;stroke-opacity:1"
     d="m 208.26832,104.85206 c -0.80304,0.12095 -1.61817,0.38826 -2.28411,0.85402 -0.45391,0.54999 -0.17627,1.43392 0.51013,1.62241 -0.1415,0.76188 0.56536,1.54573 1.34274,1.25869 0.78715,-0.51652 1.39309,-1.39908 1.61223,-2.32488 0.1454,-0.72975 -0.40223,-1.4803 -1.18099,-1.41024 z"
     id="path46389" />
  <path
     style="fill:#f6e607;fill-opacity:1;stroke:none;stroke-width:0;stroke-miterlimit:4;stroke-dasharray:none;stroke-dashoffset:0;stroke-opacity:1"
     d="m 210.42624,107.51493 c -0.58019,0.4065 -1.25131,1.1311 -0.75949,1.85602 0.43151,0.5119 1.21611,0.57357 1.84394,0.51408 0.86031,-0.19412 0.9879,-1.34745 0.40175,-1.90813 -0.32164,-0.51361 -0.92625,-0.76172 -1.4862,-0.46197 z"
     id="path46428" />
  <path
     style="fill:#f6e607;fill-opacity:1;stroke:none;stroke-width:0;stroke-miterlimit:4;stroke-dasharray:none;stroke-dashoffset:0;stroke-opacity:1"
     d="m 221.74461,99.644224 c -0.86322,0.08171 -1.80034,1.094116 -1.17845,1.918766 0.46587,0.55895 1.36007,1.08375 2.01365,0.4943 0.72139,-0.69623 0.43562,-2.335962 -0.68984,-2.412894 -0.0483,0.004 -0.097,-0.0041 -0.14536,-1.72e-4 z"
     id="path46467" />
  <path
     style="fill:#f4a7a2;fill-opacity:1;stroke:none;stroke-width:0;stroke-miterlimit:4;stroke-dasharray:none;stroke-dashoffset:0;stroke-opacity:1"
     d="m 186.66504,320.30176 c -2.01788,0.27451 -3.80585,1.38353 -5.66026,2.15848 -2.10148,0.9054 -4.1104,2.12343 -6.35756,2.63351 -1.04764,0.0713 -2.12215,-0.0201 -3.06354,0.5511 -3.16451,1.33075 -6.42934,2.44278 -9.51654,3.94719 -0.79946,0.57104 -1.47637,1.32036 -2.42709,1.66968 -2.46964,1.1054 -5.13443,1.84235 -7.34855,3.45971 -4.0151,2.8421 -7.3623,6.8928 -8.74511,11.66797 -0.42718,1.98861 -0.47734,4.14379 0.28397,6.06113 0.38587,0.89694 -0.0151,2.11886 0.94088,2.72842 0.77392,0.6181 1.76175,1.40887 2.8022,0.89483 2.96974,-0.82548 6.12573,-0.33237 9.11552,-1.08501 6.29756,-1.52481 12.02634,-4.76809 17.3669,-8.35064 5.27561,-3.57499 10.1074,-7.81477 14.2811,-12.63226 1.69268,-2.13984 3.49049,-4.28939 4.53835,-6.83445 0.50949,-0.80844 0.075,-1.76042 -0.75202,-2.11185 -0.64684,-0.32722 -1.47325,-0.14225 -1.97118,-0.79458 -1.01171,-0.78985 -1.62718,-1.92413 -2.03053,-3.11655 -0.24373,-0.56554 -0.85458,-0.88278 -1.45654,-0.84668 z m -3.79199,8.39209 c 0.46954,-0.0261 -0.18947,0.3104 -0.30054,0.43017 -2.84124,1.91303 -5.96125,3.42948 -9.20215,4.53369 -0.37185,0.0251 -0.86044,0.39835 -1.17871,0.15674 1.80426,-1.58056 4.04125,-2.45301 6.16307,-3.53203 1.45351,-0.63096 2.91844,-1.43977 4.51833,-1.58857 z"
     id="path46914" />
  <path
     style="fill:#f7f8f9;fill-opacity:1;stroke:none;stroke-width:0;stroke-miterlimit:4;stroke-dasharray:none;stroke-dashoffset:0;stroke-opacity:1"
     d="m 313.41956,103.28109 c -2.4344,0.68866 -3.22532,3.63685 -4.41873,5.59126 -4.9103,9.72604 -7.15938,20.43887 -10.51464,30.72593 -2.65768,6.22098 -4.6944,12.75413 -6.46076,19.30739 -1.27491,2.92259 -3.31435,5.54109 -3.69602,8.81538 -2.45738,11.39424 -6.81897,22.24947 -10.91763,33.15631 -1.64517,4.47997 -4.30643,8.4487 -7.02147,12.32569 -1.0218,1.87952 -0.16205,4.46067 -0.76097,6.18649 -2.59315,-0.43987 -2.45936,-3.69269 -1.37554,-5.46971 4.36205,-7.83903 9.19772,-15.65882 11.38414,-24.44905 0.60761,-1.30876 0.065,-4.12706 -1.69789,-2.57859 -1.07717,0.73872 -2.03545,2.36086 -3.2118,2.63867 -1.60303,-1.45822 -5.10087,0.12346 -5.38548,-2.76214 -0.58367,-2.5743 1.17538,-5.18622 0.45644,-7.67735 -1.61932,-1.65446 -3.9579,0.49429 -5.63544,1.02613 -1.34694,0.59475 -2.70303,1.33122 -4.18257,1.49017 0.87017,-4.86446 4.40809,-9.06012 4.57686,-14.08068 -0.48324,-2.05812 -2.88446,-0.77639 -3.05768,0.76581 -0.79904,1.1165 -2.03334,3.96975 -3.7351,2.59848 -1.61495,-1.16467 -3.34665,2.03932 -4.60448,0.0691 -0.98298,-1.95843 -2.67104,-1.09016 -3.95193,-0.0739 -0.20913,-0.93108 0.71123,-2.6462 1.09572,-3.76537 1.03895,-3.05486 3.33014,-5.92546 3.27191,-9.21667 -1.50363,-1.28827 -2.61814,1.34614 -4.29926,1.19324 -2.23789,0.39907 -4.75974,0.10301 -6.53038,-1.2906 -1.07095,-0.1153 -1.68727,0.96307 -2.4949,1.45357 0.46713,-5.08618 1.83784,-10.01244 3.98024,-14.64415 0.48384,-1.45678 1.92178,-4.19717 -0.26931,-4.88346 -3.06099,0.40678 -4.83716,3.58858 -7.65457,4.68044 -4.31768,1.46332 -8.17797,4.44838 -12.92956,4.42425 -3.95283,0.10452 -7.96891,0.98707 -11.87097,0.78928 -1.74325,-1.8624 -4.57895,-1.00298 -6.65769,-2.29488 -1.69891,-0.72579 -3.56105,-1.11859 -5.1753,-2.00231 3.31932,-3.10578 7.64337,-5.02043 10.74379,-8.42685 2.09963,-2.31793 5.21663,-5.15304 4.41965,-8.61553 -0.78738,-2.66876 -4.41266,-3.14405 -6.24726,-1.24572 -2.85271,1.84378 -3.99358,5.1479 -6.13057,7.59449 -0.83003,0.21568 -1.04828,-1.6558 -1.36518,-2.2905 -1.07928,-2.86673 0.53297,-7.0495 -2.68894,-8.86231 -5.62857,-3.22284 -14.08595,1.25389 -13.95362,7.91904 -0.0807,1.90339 2.67655,2.35092 2.10453,4.38212 -0.29566,3.26585 0.97823,6.40704 3.20913,8.75667 0.96175,1.71953 -1.28349,4.21338 -3.11362,2.93201 -2.62582,-0.59466 -5.3746,-0.2919 -7.94528,-1.16839 -3.80184,-0.16514 -6.83842,3.05435 -10.7019,2.66408 -3.13547,0.37428 -6.58825,-0.34121 -9.50658,1.0434 -0.93162,1.19747 -2.27721,-0.68397 -3.25725,-0.86179 -1.40996,-0.76713 -3.43728,-1.77268 -4.78885,-0.44401 -2.73117,0.571 -3.73001,-3.45214 -6.30665,-2.91129 -2.13717,1.59056 -2.75485,4.54432 -4.12801,6.74858 -1.17198,3.12388 -3.78114,6.12891 -3.2531,9.63157 1.17863,2.85213 -2.61237,4.60817 -2.71933,7.36248 0.0339,2.21221 -2.14468,3.56561 -2.12906,5.80738 -0.5908,4.36252 -0.84374,8.84141 -0.81455,13.20377 0.83951,1.23711 3.13862,0.86637 4.35506,0.11042 1.9514,-2.05393 1.24048,-5.30214 2.24831,-7.75558 1.3503,-4.62893 2.58239,-9.48998 5.28956,-13.52875 0.50401,0.16252 -0.007,1.84778 -0.0697,2.52667 -0.69116,3.96551 -3.08025,7.78406 -2.47349,11.87926 4.04467,6.58001 13.1085,8.97952 20.19709,6.33815 1.17896,-0.0843 2.66799,-1.28874 3.78722,-0.75726 1.00801,2.74011 -1.73561,4.62265 -3.95331,5.42414 -2.48906,1.06121 -4.35115,3.28706 -6.79899,4.31101 -3.23421,-1.41628 -6.71135,0.42166 -9.95469,0.40817 -5.4819,-2.59511 -11.84863,-1.2457 -16.93241,1.61567 -2.08024,1.51742 -4.25742,-0.82753 -6.45464,0.17482 -4.92854,1.6957 -8.81468,5.43681 -13.56695,7.5366 -11.278529,5.72114 -22.881173,11.99639 -30.631709,22.31897 -3.082894,3.65478 -5.606013,7.75 -7.866225,11.93347 -0.747974,3.56527 -3.60079,6.16441 -4.712204,9.61845 -2.729473,6.39983 -3.366178,13.42506 -3.209601,20.3086 -1.156059,2.11333 -1.790979,4.71931 -1.285084,7.15463 0.727169,0.8715 1.553265,1.61637 1.678688,2.9106 1.344917,5.3038 3.665982,10.28894 5.564323,15.40236 5.685598,11.32997 15.796768,19.82626 26.537627,26.2012 5.084106,2.80354 10.413595,5.19161 15.378475,8.18256 3.60217,0.81736 6.97744,2.12954 10.52208,3.23816 5.66905,1.33818 11.59645,1.06181 17.36583,0.74414 6.29215,-1.40409 12.5204,-2.86977 18.88446,-3.94953 3.61993,-1.06099 7.53297,-0.43054 10.97698,-2.15341 3.05471,-1.44372 6.95901,-2.04837 8.84989,-5.13066 1.69455,-1.40535 4.09784,-1.24115 5.92023,-2.51909 4.95727,-2.39308 9.54107,-5.47918 14.00098,-8.65306 3.06181,-1.2509 6.46156,-1.67841 9.05498,-3.9906 5.81993,-4.74774 10.14649,-11.01005 15.36561,-16.36864 5.50472,-6.10818 11.07947,-12.16492 17.27731,-17.58077 4.14252,-3.99305 6.70561,-9.24579 9.86427,-13.98469 5.24666,-9.44658 10.02123,-19.18964 13.92255,-29.26345 0.15267,-0.78087 1.36381,-0.85831 0.94258,0.17608 -1.26141,6.1899 -4.22104,11.8238 -6.7037,17.56926 -2.68306,5.83689 -5.7497,11.44231 -9.4472,16.69987 -0.80823,1.70457 1.47844,2.38198 2.6406,1.54059 6.16114,-2.73476 13.01831,-5.80001 19.84111,-3.55556 3.45246,1.2907 7.56177,3.7266 7.96117,7.69669 0.51668,6.77714 -2.64971,13.35198 -6.6892,18.55533 -2.42996,3.14574 -5.7911,5.4162 -8.34718,8.40933 -0.97182,1.97884 1.89364,2.26356 3.17849,2.3508 3.9693,0.22805 8.20719,0.75476 11.23296,3.61886 2.98487,2.57416 6.0214,5.68361 6.99849,9.53904 -0.1553,7.36008 0.73005,15.16373 -2.45547,21.99834 -3.95484,5.58099 -10.36392,8.8141 -16.61563,11.06373 -8.24983,3.09379 -17.12885,2.49789 -25.83668,2.29048 -9.37509,-1.18875 -18.92884,-4.37757 -25.9582,-10.95391 -3.80585,-3.37218 -5.72534,-8.18763 -7.1346,-12.94959 -1.23378,-1.39083 -3.48927,-0.30088 -5.16174,-0.38324 -4.15277,0.61316 -5.55673,5.21685 -8.02884,7.99569 -5.01335,6.45653 -10.87467,12.34189 -18.09424,16.26693 -6.1143,3.61385 -12.18833,6.96535 -18.83137,9.22897 -1.93283,1.16906 -1.61952,3.96206 -2.48937,5.82396 -1.85827,5.81761 -2.4951,11.91021 -3.87205,17.83112 -0.73106,3.28693 -2.50473,6.58503 -3.07404,9.95665 1.17304,1.99146 4.09813,1.70485 6.0354,2.50826 16.08008,3.95174 32.62689,6.50774 49.22454,6.02167 10.80261,-0.0363 21.64246,-0.35624 32.29162,-2.33045 45.20081,-7.15145 87.61015,-30.42436 118.03214,-64.5931 0.61738,-2.02337 -1.96859,-3.54579 -2.69846,-5.33035 -3.30524,-5.33188 -7.70992,-9.8356 -11.09192,-15.10469 -5.07863,-6.48558 -7.77539,-14.39114 -12.19697,-21.31225 -5.2153,-9.559 -9.89008,-20.29718 -7.88679,-31.4355 3.24811,-13.22079 4.23801,-27.02758 5.69203,-40.59035 1.25194,-14.51085 3.05696,-28.96004 4.41776,-43.46871 0.53737,-4.71728 1.8752,-9.32287 2.43238,-14.02093 -1.17972,-2.32992 -4.6498,-3.2355 -4.76469,-6.24174 0.1435,-2.78295 4.19504,-4.06124 3.24206,-7.14288 -0.7416,-2.10072 -2.14605,-3.98719 -2.19728,-6.31217 -0.85912,-1.92793 -4.14552,-0.14484 -5.05056,-1.97907 1.21492,-1.59363 4.1407,-2.47255 3.38568,-5.01121 -0.72027,-3.42979 -2.52909,-6.60793 -2.42722,-10.22059 -0.56328,-2.89129 1.14255,-5.33139 2.60814,-7.61383 1.4518,-3.00232 2.18151,-6.84449 0.76374,-9.97269 -1.72217,-2.15618 -5.64048,-1.12127 -6.68695,1.27158 -2.14148,2.80639 -3.57097,6.31043 -6.16596,8.69766 -1.34301,0.22748 -0.28197,-1.70453 0.0428,-2.21385 1.79343,-3.55651 5.0307,-7.49705 3.37533,-11.69696 -0.27028,-0.41182 -0.75093,-0.67731 -1.24779,-0.64772 z m -116.16853,48.52314 c 0.90726,-0.2186 2.35909,0.39416 1.34101,1.38037 -2.7667,0.95806 -5.93116,0.75573 -8.83814,0.57038 -0.21886,-0.36313 1.48427,-0.80284 1.97769,-1.05997 1.75431,-0.66515 3.64956,-0.92573 5.51944,-0.89078 z m 18.15897,4.6245 c 2.04216,0.47488 0.86297,3.37953 1.20153,4.79162 0.7651,1.93836 3.42659,0.55031 5.04504,0.84797 1.13818,-0.33862 3.05705,0.27897 1.98943,1.72357 -1.77108,2.87073 -6.4555,3.05711 -6.91156,6.8791 -0.53078,3.40118 1.56324,6.72936 0.28864,10.09837 -1.13899,3.31554 -0.85565,6.85506 -1.6338,10.21852 -1.23665,4.15929 -6.36296,4.84755 -10.00722,5.08509 -2.35373,0.0625 -4.85621,0.44418 -7.13528,-0.02 -0.30936,-0.88225 -0.16753,-2.18579 1.10485,-1.75119 2.62563,0.3347 6.58777,0.32498 7.67529,-2.64129 0.47847,-2.99546 -1.89861,-5.49437 -2.51212,-8.31555 -1.07907,-2.80751 -2.35922,-5.74895 -1.45776,-8.79865 0.28058,-2.7594 0.94356,-5.68922 0.22856,-8.38377 -3.36001,-0.62188 -7.17004,-0.44794 -10.27307,1.19324 -1.60629,0.5344 -3.4214,1.76755 -5.0264,1.63519 -0.60713,-4.61023 3.38497,-8.49405 7.38043,-10.04935 4.18751,-1.14443 8.8249,-0.73974 12.90608,0.81484 2.73289,0.0341 4.45728,-3.12913 7.13736,-3.32769 z m -62.8669,0.0166 c 1.24422,-0.0477 2.54576,0.48309 3.37394,1.33826 -4.15159,1.38042 -8.61635,1.41798 -12.76175,2.89472 -1.23128,0.1242 -0.0429,-1.35207 0.49856,-1.51987 2.62289,-1.66956 5.78535,-2.61507 8.88925,-2.71311 z"
     id="path59318" />
  <path
     style="fill:#000000;stroke-width:0.78125"
     d="m 142.73534,393.25617 c -0.95075,-0.95075 -0.60625,-3.20551 1.40528,-9.19778 2.00054,-5.95949 2.49524,-9.83964 1.2545,-9.83964 -1.05114,0 -4.71452,3.71387 -9.07557,9.20067 -2.14372,2.69709 -4.70507,5.11235 -5.69187,5.36726 -4.28236,1.1062 -3.04036,-1.83102 4.17794,-9.88043 2.8899,-3.22266 7.31881,-8.97968 9.84201,-12.79338 l 4.58764,-6.93402 -1.93418,-1.79252 c -1.06379,-0.98589 -2.55281,-1.91167 -3.30894,-2.05729 -1.81971,-0.35044 -3.34547,-3.50003 -3.33848,-6.89154 0.006,-3.16115 2.44946,-8.97326 4.8435,-11.52344 1.97515,-2.10396 0.92854,-2.27606 -3.70029,-0.60847 -4.40516,1.58702 -23.2071,1.63533 -25.61343,0.0658 -0.95168,-0.62072 -3.48114,-1.51925 -5.62102,-1.99671 -2.13988,-0.47748 -5.61409,-1.92856 -7.72048,-3.22463 -2.10638,-1.29607 -4.486427,-2.40595 -5.288989,-2.46641 -0.80257,-0.0604 -1.459211,-0.44522 -1.459211,-0.85508 0,-0.40987 -0.216477,-0.52873 -0.481062,-0.26414 -0.668368,0.66837 -8.161188,-3.34424 -8.656875,-4.63599 -0.222329,-0.57938 -0.830563,-1.05341 -1.351633,-1.05341 -0.521078,0 -1.711602,-0.87891 -2.645625,-1.95313 -0.934024,-1.07421 -2.028414,-1.95312 -2.431992,-1.95312 -0.403571,0 -0.929118,-0.61548 -1.167868,-1.36773 -0.238757,-0.75225 -1.519175,-1.84803 -2.845377,-2.43506 -1.326202,-0.58704 -2.79301,-1.90515 -3.259574,-2.92915 -0.466564,-1.024 -1.260372,-1.86181 -1.764017,-1.86181 -2.274657,0 -6.879084,-7.98166 -11.317876,-19.61927 -1.960479,-5.13996 -1.96941,-12.02136 -0.0156,-12.02136 0.798972,0 1.320262,1.11872 1.63819,3.51563 0.434882,3.27864 1.966181,7.16363 6.623619,16.80444 1.622409,3.35836 8.844083,11.57802 14.003816,15.93905 5.036641,4.257 9.135891,7.04117 13.28125,9.02048 2.578125,1.23099 5.214844,2.52776 5.859374,2.88169 0.64453,0.35394 2.22656,1.16905 3.51563,1.81136 1.28906,0.6423 2.87109,1.48689 3.51562,1.87687 0.64453,0.38998 3.45703,1.45529 6.25,2.36736 8.90509,2.90805 19.90682,2.27198 42.01757,-2.42925 3.11342,-0.66198 4.35095,-0.65348 5.03906,0.0346 1.18901,1.18901 0.32353,1.9361 -4.18477,3.61231 -4.48645,1.6681 -10.14274,7.40114 -11.96578,12.12817 -1.14554,2.97031 -1.20406,3.94219 -0.38649,6.41942 0.52987,1.60554 1.27162,2.72869 1.64832,2.49588 0.37671,-0.23282 3.0411,-0.4369 5.92086,-0.45351 4.37958,-0.0252 6.29021,-0.51727 11.68174,-3.00817 7.37608,-3.40776 10.32258,-5.62427 19.42794,-14.6148 6.98319,-6.8951 8.97567,-9.57341 7.122,-9.57341 -1.28425,0 -3.39163,-2.22688 -3.77886,-3.99314 -0.23033,-1.05063 -1.34678,-0.73921 -6.75197,1.88337 -5.00127,2.42658 -6.68742,2.93072 -7.40432,2.21382 -1.04654,-1.04654 -0.0901,-3.15625 1.82316,-4.02172 5.81166,-2.62886 14.86223,-7.94279 16.7597,-9.84026 1.02689,-1.02689 2.63556,-1.86707 3.57482,-1.86707 2.94805,0 8.56506,-3.34604 11.11331,-6.62017 1.34645,-1.73 5.26875,-6.17204 8.71621,-9.8712 3.44747,-3.69916 8.12118,-8.86544 10.38602,-11.48062 2.26484,-2.61518 6.09978,-6.26828 8.52209,-8.11801 5.7109,-4.36095 11.70013,-13.74616 17.85084,-27.9725 6.92578,-16.01908 8.60791,-18.63564 10.66071,-16.58284 0.562,0.562 0.29017,2.20718 -0.88261,5.34171 -1.961,5.24122 -12.02605,25.48844 -14.19205,28.54923 -0.80713,1.14055 -1.4675,2.22091 -1.4675,2.4008 0,0.17989 2.03063,-0.64754 4.51252,-1.83873 2.72598,-1.30834 6.57386,-2.37699 9.71912,-2.69923 4.49497,-0.46053 5.66676,-0.29621 8.57341,1.20219 7.93057,4.08828 8.87868,6.60599 6.16939,16.38281 -2.59267,9.35593 -4.60579,12.29586 -12.15649,17.75313 l -2.32268,1.67871 4.66643,0.5326 c 2.56653,0.29294 5.24279,0.69095 5.94724,0.88447 1.96979,0.54114 9.25439,8.15336 10.9123,11.40309 2.85134,5.589 1.09767,21.0935 -2.93007,25.9054 -7.46072,8.91321 -21.56599,13.61122 -38.35918,12.77618 -15.69729,-0.78054 -25.21899,-4.7767 -32.61635,-13.68874 -2.69394,-3.24555 -4.30762,-5.92416 -4.3151,-7.16283 -0.0183,-3.0269 -0.87359,-3.68404 -4.33953,-3.33415 -2.70424,0.273 -3.40506,0.73989 -4.6875,3.12286 -2.53222,4.70525 -13.18414,15.72894 -18.03854,18.66811 -6.5772,3.98226 -16.57046,8.9629 -20.1251,10.03035 l -3.06201,0.91952 -2.19165,8.13549 c -1.20541,4.47453 -2.20208,9.71753 -2.21483,11.65112 -0.0127,1.93359 -0.883,5.97656 -1.9339,8.98437 -1.7651,5.052 -3.19689,6.73455 -4.56589,5.36555 z m 111.89711,-46.76022 c 10.38511,-2.18457 19.91068,-7.36543 22.28571,-12.12095 1.53156,-3.06662 3.01964,-13.57646 2.45521,-17.34033 -0.67387,-4.49368 -2.80375,-7.86002 -6.80849,-10.76104 -3.13733,-2.27268 -3.59152,-2.36738 -11.35397,-2.36738 -6.61055,0 -8.08591,0.21053 -8.08591,1.15387 0,1.60646 -2.91262,3.28652 -6.77398,3.90738 -2.99631,0.48177 -3.27904,0.37786 -3.51562,-1.29211 -0.20398,-1.43979 -0.74283,-1.81602 -2.60103,-1.81602 -1.82291,0 -2.34375,-0.34721 -2.34375,-1.5625 0,-1.18858 0.53161,-1.57023 2.22149,-1.59482 1.25639,-0.0183 2.54601,-0.61223 2.96851,-1.36718 0.42321,-0.75625 1.68193,-1.33487 2.90382,-1.33487 4.08063,0 11.84884,-3.74104 17.13038,-8.2497 5.68908,-4.85656 6.46609,-6.02138 8.35806,-12.52952 2.48122,-8.53508 1.86034,-10.33969 -4.2444,-12.33644 -8.98743,-2.93964 -21.37342,2.84546 -30.97939,14.4695 -2.96434,3.58712 -7.14753,8.21558 -9.29597,10.28548 l -3.90625,3.76345 3.72876,-2.075 c 2.05081,-1.14126 4.24807,-1.87573 4.88281,-1.63216 1.83501,0.70416 1.33994,2.80364 -0.85817,3.63937 -1.10673,0.42077 -3.60704,1.86229 -5.55623,3.20337 -1.9492,1.34108 -4.49353,2.51302 -5.65409,2.60432 -1.31379,0.10335 -3.56571,1.57299 -5.96722,3.89428 -2.1214,2.05055 -4.64812,4.25746 -5.61492,4.90426 -2.93105,1.9609 -2.02342,2.55823 3.90625,2.57075 6.1667,0.0131 8.10709,0.70952 7.36492,2.64357 -0.35975,0.93749 -1.61111,1.26447 -4.99665,1.30563 -2.48419,0.0302 -5.10579,0.29387 -5.82578,0.58594 -2.085,0.84577 0.10061,3.0949 3.30375,3.39974 2.08657,0.19859 2.69283,0.60807 2.69283,1.81878 0,1.33026 -0.5987,1.59722 -4.02802,1.79609 l -4.02802,0.23359 0.78526,2.84401 c 0.4319,1.5642 2.36229,4.79893 4.28976,7.18828 3.95294,4.90021 11.58817,9.56567 19.38726,11.8465 5.88793,1.7219 16.43846,1.86475 23.77308,0.32186 z m -39.50618,-39.07408 c -0.67467,-1.75815 0.26538,-3.51562 1.88046,-3.51562 0.78693,0 1.76475,-0.3277 2.17296,-0.72822 1.36886,-1.3431 5.35186,-1.33291 5.62989,0.0145 0.16973,0.82252 -1.09324,1.93921 -3.75527,3.32032 -4.63411,2.40426 -5.31427,2.50857 -5.92804,0.90911 z m -20.21518,11.13282 c 0.51761,-2.04102 0.8345,-3.71094 0.7042,-3.71094 -0.36931,0 -4.20904,6.70738 -4.20904,7.35248 0,0.31603 0.57684,0.46092 1.28187,0.32199 0.79519,-0.1567 1.63916,-1.66147 2.22297,-3.96353 z m 7.04203,-3.71094 c -0.26556,-0.42969 -1.53752,-0.78125 -2.82658,-0.78125 -1.36356,0 -2.14182,0.32673 -1.86092,0.78125 0.26557,0.42969 1.53753,0.78125 2.82659,0.78125 1.36356,0 2.14182,-0.32673 1.86091,-0.78125 z m -31.64062,19.87052 c 0,-1.18067 1.73331,-3.46427 2.62946,-3.46427 0.55659,0 2.74149,-0.87744 4.85532,-1.94985 4.61024,-2.33893 6.57772,-2.49135 6.57772,-0.50956 0,1.027 -1.54834,2.16053 -5.33575,3.90625 -4.86737,2.24352 -8.72675,3.13572 -8.72675,2.01743 z m 177.85378,-2.09708 c -4.16213,-6.7215 -11.74151,-17.82549 -15.54909,-22.77984 -1.61133,-2.09662 -2.92969,-4.1775 -2.92969,-4.62416 0,-0.44667 -2.01255,-4.13853 -4.47232,-8.20413 -4.85547,-8.02526 -9.28577,-19.51117 -10.54657,-27.34279 -0.68181,-4.23518 -0.5566,-5.85756 0.87426,-11.32813 0.91853,-3.51176 2.03732,-9.54908 2.4862,-13.41627 0.44889,-3.86718 1.16796,-9.66796 1.59794,-12.89062 0.42998,-3.22266 1.09029,-11.83594 1.46735,-19.14063 0.37706,-7.30468 1.04693,-15.39062 1.48859,-17.96875 0.44165,-2.57812 0.9964,-8.02734 1.23277,-12.10937 0.23637,-4.08203 1.11012,-10.41016 1.94169,-14.0625 1.08657,-4.77238 1.26014,-6.72804 0.61696,-6.95135 -0.49223,-0.1709 -1.73963,-1.15538 -2.772,-2.18775 -2.17895,-2.17895 -1.88737,-5.38473 0.65189,-7.16713 1.8029,-1.26552 1.91675,-3.03465 0.33027,-5.13215 -0.63087,-0.83408 -1.14703,-2.13074 -1.14703,-2.88146 0,-1.00375 -0.56832,-1.32603 -2.14764,-1.21786 -2.82721,0.19361 -3.34281,-2.5656 -0.93025,-4.97816 1.50661,-1.50661 1.60812,-2.03655 0.86972,-4.54023 -2.0337,-6.89563 -1.99318,-10.65372 0.16401,-15.21366 2.05141,-4.33632 2.40686,-6.50227 1.57548,-9.60043 -0.70859,-2.64065 -3.0961,-1.3893 -5.95652,3.12195 -1.39976,2.20762 -2.80971,4.65382 -3.1332,5.43601 -0.71701,1.73367 -3.98776,1.49809 -4.33237,-0.31204 -0.12918,-0.6785 1.00449,-3.03533 2.51924,-5.23739 2.11229,-3.07073 2.60755,-4.3999 2.12526,-5.70368 -0.54487,-1.4729 -1.21435,-0.66918 -5.01334,6.01864 -3.45881,6.08897 -4.91742,9.78035 -6.90868,17.48419 -1.3883,5.37109 -3.65311,12.57812 -5.03291,16.01562 -1.37982,3.4375 -2.9581,8.35938 -3.50733,10.9375 -0.54922,2.57813 -1.4587,5.06788 -2.02105,5.53278 -0.56236,0.4649 -1.2553,2.3985 -1.53986,4.29687 -0.8624,5.75327 -3.94324,15.71929 -6.13177,19.83529 -1.13576,2.13603 -2.79506,6.35478 -3.68735,9.375 -2.07399,7.02004 -5.10388,13.36096 -7.91313,16.56052 -1.8434,2.09951 -2.12647,2.96319 -1.70594,5.20485 0.32423,1.7283 0.17354,2.89199 -0.42217,3.26016 -1.3609,0.84108 -3.10916,-1.28272 -3.61332,-4.38947 -0.36984,-2.27906 0.009,-3.30437 2.35303,-6.3758 3.03046,-3.97012 4.30918,-6.64276 7.16662,-14.97891 1.91311,-5.58118 1.9407,-6.76379 0.12264,-5.25493 -1.3226,1.09766 -6.46615,0.31503 -7.69996,-1.17161 -0.70526,-0.84978 -0.70509,-2.03713 7.4e-4,-5.0949 0.50615,-2.1928 0.77683,-4.13036 0.6015,-4.30569 -0.17533,-0.17533 -2.12236,0.79095 -4.32671,2.14731 -6.25301,3.84752 -7.8628,2.20756 -4.46654,-4.55025 1.01857,-2.02673 2.11692,-4.56387 2.44078,-5.63809 l 0.58885,-1.95313 -2.08325,1.92508 c -1.64399,1.51917 -2.36542,1.74886 -3.42149,1.08934 -0.95442,-0.59605 -1.72839,-0.58964 -2.69858,0.0223 -0.99852,0.62985 -1.75274,0.61304 -2.83554,-0.0632 -0.81135,-0.5067 -2.21881,-0.7268 -3.1277,-0.48912 -2.27386,0.59463 -2.13593,-0.8116 0.69123,-7.04676 1.28906,-2.84296 2.34375,-5.36063 2.34375,-5.59482 0,-0.23418 -0.85858,0.13679 -1.90795,0.82436 -2.35141,1.5407 -5.4085,1.20839 -5.7581,-0.62591 -0.17282,-0.90673 0.48014,-1.6454 1.94514,-2.20048 3.29945,-1.25014 5.63701,-3.77902 7.73996,-8.37348 1.97004,-4.30403 3.71041,-5.69104 5.23187,-4.16958 0.6737,0.6737 0.63838,1.52293 -0.14243,3.42406 -0.57108,1.39047 -1.34471,4.98908 -1.71918,7.99689 -0.37447,3.00782 -0.86675,6.5065 -1.09396,7.77486 l -0.4131,2.3061 2.42413,-2.3061 c 1.33328,-1.26836 3.54322,-4.21283 4.91098,-6.54326 1.36776,-2.33044 2.88282,-4.36916 3.36678,-4.53048 0.48397,-0.16132 1.65931,0.80122 2.61188,2.13897 l 1.73193,2.43228 -1.57288,1.70757 c -1.1967,1.29917 -1.65523,3.10894 -1.91719,7.56694 -0.18937,3.22265 -0.59695,6.5625 -0.90573,7.42187 -0.30878,0.85938 0.1199,0.33203 0.95262,-1.17187 0.83272,-1.50391 1.75488,-3.85267 2.04923,-5.21945 0.67027,-3.11231 1.78859,-4.05315 5.1452,-4.32862 2.12148,-0.17411 2.71326,0.0945 2.96352,1.34494 0.17198,0.85938 0.80154,1.84403 1.399,2.18811 0.85264,0.49103 0.99108,2.08743 0.64365,7.42187 l -0.44265,6.79627 2.00026,-3.125 c 1.10015,-1.71875 2.20554,-4.35547 2.45643,-5.85937 0.25089,-1.50391 0.94002,-4.02108 1.53139,-5.59371 0.92835,-2.46869 0.91986,-2.91896 -0.0622,-3.29579 -1.66616,-0.63937 -1.41303,-2.97909 1.2073,-11.15921 l 2.34471,-7.31969 -1.65053,-5.65173 c -0.90776,-3.10843 -1.72995,-7.76109 -1.82706,-10.33922 -0.23564,-6.25578 -1.40177,-8.81705 -4.62813,-10.16511 -4.46439,-1.86535 -7.58281,-4.94224 -7.07193,-6.97775 0.53793,-2.14328 -1.16398,-4.03835 -5.28284,-5.88242 -1.61189,-0.72167 -3.69236,-2.2804 -4.62327,-3.46386 -1.64194,-2.087386 -1.89213,-2.144839 -8.36651,-1.92107 -4.71719,0.16304 -6.76674,-0.0477 -6.99039,-0.718621 -0.40913,-1.227406 -6.46781,-1.236609 -10.54178,-0.01602 -2.70959,0.811821 -3.24095,0.760981 -4.08302,-0.390625 -1.28026,-1.750875 -3.06469,-1.630593 -8.10976,0.546633 -3.40887,1.471133 -3.88171,1.888133 -2.53906,2.239243 1.13158,0.29592 1.6499,1.05353 1.6499,2.41161 0,2.27465 -1.19972,3.3248 -2.57328,2.25247 -2.11173,-1.64858 -4.45522,-1.62003 -5.63806,0.0687 -1.07211,1.53065 -1.03405,1.71778 0.46191,2.27118 2.43756,0.90171 1.37545,2.52523 -1.83018,2.79757 -2.19189,0.18621 -3.00898,-0.11705 -3.67666,-1.36463 -0.82724,-1.5457 -0.947,-1.50321 -3.29271,1.16841 -1.81544,2.06766 -2.95075,2.71247 -4.46607,2.5365 -2.74681,-0.31899 -2.73656,-3.00214 0.0165,-4.32164 1.12659,-0.53996 2.48692,-1.51021 3.02298,-2.15611 0.53604,-0.6459 -0.64126,-0.27123 -2.61623,0.83261 -4.10987,2.29704 -7.05413,2.27309 -7.32207,-0.0595 -0.13937,-1.2133 0.88981,-2.06718 4.60509,-3.82065 l 4.78456,-2.25815 -2.65196,-1.27967 c -7.13842,-3.444523 -12.46563,-4.005656 -14.13659,-1.489055 -0.7764,1.169325 -1.56379,1.532265 -2.52444,1.163625 -1.13018,-0.43369 -1.29646,-1.066898 -0.87295,-3.324398 l 0.52316,-2.788656 -8.44557,0.257843 c -8.01065,0.244579 -8.44554,0.177391 -8.44554,-1.304648 0,-1.183984 0.601,-1.620758 2.48089,-1.802969 3.42075,-0.331578 4.78664,-2.068789 3.09569,-3.937265 -0.70383,-0.777727 -1.2797,-1.759079 -1.2797,-2.180782 0,-0.421703 -1.09641,-1.888164 -2.43645,-3.258797 -1.82726,-1.868968 -3.12439,-2.492062 -5.18787,-2.492062 -3.29279,0 -10.64545,3.356305 -8.31373,3.795008 2.36246,0.444484 3.43805,1.701344 3.43805,4.017492 0,3.084758 -1.6673,4.157875 -5.4636,3.516492 l -3.17388,-0.536219 1.33843,2.806735 c 1.53915,3.227633 3.60988,3.615594 8.46671,1.586281 3.29455,-1.376555 5.32112,-0.983281 4.94477,0.95957 -0.27775,1.433836 -2.82413,3.148211 -8.9421,6.020375 -2.20085,1.03322 -4.24309,2.26939 -4.5383,2.74705 -1.62814,2.63438 -9.26403,-0.44759 -11.51698,-4.648456 -3.76528,-7.020781 0.36632,-23.221182 7.52513,-29.506696 3.74155,-3.285131 5.41657,-3.648257 16.82857,-3.648257 9.55255,0 14.34273,0.934462 15.79182,3.080645 0.30659,0.454083 0.98111,0.825605 1.49892,0.825605 0.51782,0 1.49744,0.901867 2.17694,2.00415 0.67949,1.102283 2.00925,3.188475 2.95501,4.635984 1.85554,2.839944 3.05867,9.694983 2.26005,12.876952 -0.52205,2.080016 -0.63899,2.026695 5.07146,2.312469 2.67287,0.133765 7.76201,1.687062 13.9958,4.271765 l 5.07812,2.105539 3.22993,-1.807421 c 1.77647,-0.994079 5.59314,-2.390594 8.48148,-3.103368 l 5.25155,-1.295945 -0.5031,-3.792492 c -0.49638,-3.741906 -0.43385,-3.885195 4.68861,-10.744821 5.89885,-7.899288 6.86994,-8.447336 17.52341,-9.889524 1.50391,-0.203588 4.96991,-0.686565 7.70222,-1.073283 2.73231,-0.386717 6.68435,-0.499827 8.7823,-0.251355 3.45832,0.409586 4.14335,0.851252 7.33685,4.730371 1.93731,2.353233 3.52238,4.638913 3.52238,5.07929 0,0.440377 0.4855,1.191005 1.07889,1.668064 1.93902,1.558883 4.38986,11.304789 4.38986,17.456555 0,5.703469 -0.67163,8.022199 -2.99729,10.347819 -1.06318,1.06318 -1.02969,1.21672 0.3187,1.46131 0.82869,0.15032 2.33331,1.02923 3.34359,1.95312 2.18698,2 7.29991,11.81387 6.54711,12.56668 -0.28943,0.28943 -0.10261,0.78804 0.41516,1.10804 0.51776,0.32 1.13596,2.13043 1.37378,4.0232 0.23781,1.89276 0.5612,3.5702 0.71865,3.72765 0.15744,0.15744 0.86603,-2.26277 1.57463,-5.37824 1.63265,-7.17821 5.31326,-15.0909 10.49485,-22.56215 4.51483,-6.509851 4.42494,-5.737695 2.32027,-19.930359 -1.11626,-7.527457 -1.6813,-8.678433 -4.54125,-9.250423 -3.51162,-0.702323 -9.41195,-5.847392 -9.41195,-8.207189 0,-2.216804 1.54834,-7.939497 2.4873,-9.193083 0.4448,-0.593853 -0.50221,-1.027542 -2.98766,-1.36821 -4.8165,-0.660174 -5.74964,-1.578882 -5.74964,-5.660704 0,-3.126705 -0.25876,-3.57351 -3.11295,-5.375285 -3.55545,-2.244454 -7.4265,-8.897614 -6.63251,-11.399254 0.26712,-0.84161 -0.0879,-3.25688 -0.78881,-5.367268 -0.70096,-2.110389 -1.16633,-5.531098 -1.03416,-7.601577 0.20195,-3.163572 0.48973,-3.764507 1.8028,-3.764507 1.25818,0 1.65826,0.684721 2.05417,3.515625 0.27041,1.933594 0.88565,4.743773 1.36719,6.244842 0.48154,1.50107 0.87552,4.029803 0.87552,5.619406 0,2.912139 2.63918,8.448252 4.02746,8.448252 0.41146,0 1.69509,1.036803 2.85252,2.304007 2.05955,2.254913 2.15816,2.277967 4.62763,1.081959 2.90477,-1.406833 7.84476,-0.854912 8.53891,0.954013 0.59418,1.548419 6.78505,1.515387 8.07848,-0.0431 0.53491,-0.644531 1.63265,-1.171875 2.43941,-1.171875 0.80676,0 2.16996,-0.703125 3.02934,-1.5625 1.96719,-1.967185 3.29095,-1.974809 5.05179,-0.02909 1.71373,1.893652 1.03853,4.237921 -1.03139,3.580952 -0.84256,-0.26742 -1.872,0.03905 -2.44326,0.727382 -0.54297,0.654229 -1.80232,1.18951 -2.79857,1.18951 -2.19309,0 -3.29673,1.476409 -1.80835,2.419134 0.59216,0.375067 2.54634,0.687323 4.34263,0.693903 2.7591,0.01011 3.30472,-0.251353 3.51563,-1.684656 0.3161,-2.148242 4.06982,-3.577829 5.74466,-2.187831 1.51529,1.25758 1.4627,4.652208 -0.0897,5.78732 -1.12243,0.820746 -1.11318,1.159277 0.10137,3.706207 2.0087,4.212276 1.00035,10.915674 -2.135,14.193338 -2.10784,2.203519 -2.30683,2.82476 -1.88743,5.892562 0.25785,1.886144 0.46883,4.59689 0.46883,6.023882 0,1.427 0.43945,2.951727 0.97656,3.388297 4.20085,3.414492 5.98764,5.52043 6.77728,7.987821 0.50352,1.573336 1.42582,3.056437 2.04957,3.295796 0.62375,0.239352 1.13409,0.835079 1.13409,1.323836 0,0.48875 0.88226,1.582625 1.96057,2.430817 1.07831,0.8482 1.7757,1.8413 1.54976,2.2069 -0.22596,0.36558 -0.0392,0.89437 0.41496,1.17506 0.96352,0.59549 0.2713,3.35169 -1.28965,5.13487 -0.93817,1.07174 -0.87134,1.43444 0.49159,2.66789 1.38187,1.25057 1.52102,2.06517 1.12264,6.57212 -0.2501,2.82953 -1.01104,6.46421 -1.69096,8.07706 -1.13188,2.68497 -1.12719,3.42855 0.0555,8.81126 0.71048,3.23335 1.29177,7.38575 1.29177,9.22754 0,3.05792 0.23747,3.46196 2.73438,4.65266 2.36959,1.12998 2.73437,1.67537 2.73437,4.08825 0,3.77336 -2.62007,6.05702 -9.6302,8.39373 -5.56158,1.85387 -5.59184,1.87932 -6.63856,5.58533 -0.99076,3.50785 -0.95331,3.82752 0.64808,5.53212 2.2872,2.43461 1.77547,4.72937 -1.0115,4.53583 -1.60067,-0.11118 -2.11782,0.20982 -2.11782,1.31454 0,0.80389 0.74204,1.69713 1.64897,1.98498 2.32027,0.73642 10.17393,8.78351 11.91182,12.2052 2.04718,4.03062 11.94833,15.32589 16.35143,18.65375 2.03429,1.53752 5.54056,3.444 7.79169,4.23662 8.75555,3.08281 12.19154,5.86364 8.83608,7.15125 -1.30179,0.49955 -9.59159,-2.38154 -14.1386,-4.9138 -7.24387,-4.03418 -20.14005,-17.27415 -22.693,-23.29797 l -0.99329,-2.34375 -0.82258,2.14844 c -0.88683,2.31625 -2.26924,2.72694 -3.94461,1.17188 -2.57466,-2.38978 0.59813,1.8008 6.73132,8.89063 6.36775,7.36098 8.24265,11.2613 5.1411,10.69495 -1.32093,-0.2412 -8.86561,-7.90651 -14.06987,-14.29483 -1.39243,-1.70924 -2.53169,-2.6108 -2.53169,-2.00349 0,0.60732 0.74079,1.89275 1.6462,2.85651 1.81435,1.93129 5.50777,11.28518 5.67169,14.36404 0.0775,1.45491 -0.28695,1.95312 -1.42856,1.95312 -1.65561,0 -2.47967,-1.34966 -5.1965,-8.511 -1.5208,-4.00871 -1.82923,-4.3823 -2.38269,-2.88614 -0.42409,1.14642 0.0503,4.19176 1.42498,9.14691 1.86492,6.72247 2.48291,7.89416 6.50383,12.33109 2.44371,2.69653 6.12789,7.7351 8.18706,11.19681 6.22469,10.46442 14.77217,16.17272 34.20312,22.84198 12.54691,4.30647 13.87087,4.96105 13.87087,6.85792 0,0.96318 -0.72162,1.08113 -3.97441,0.64963 -2.18593,-0.28997 -4.55898,-0.84348 -5.27344,-1.23001 -0.71446,-0.38653 -4.28731,-1.63402 -7.93965,-2.77221 -9.31408,-2.90255 -20.53145,-8.60016 -25.21691,-12.80834 -2.18413,-1.96165 -5.89975,-6.55437 -8.25693,-10.20605 -2.3572,-3.65168 -6.11449,-8.57355 -8.34955,-10.9375 -2.23506,-2.36394 -4.60346,-5.34876 -5.26311,-6.63291 l -1.19936,-2.33483 -0.47459,3.5067 c -2.24921,16.61945 -2.74666,20.64826 -3.18214,25.77233 -0.27388,3.22266 -0.97545,7.79297 -1.55904,10.15625 -2.00468,8.11815 2.00408,21.32502 10.19693,33.59375 1.57816,2.36328 3.34883,5.64466 3.93483,7.29195 0.586,1.6473 2.50314,4.98714 4.26032,7.42188 1.75717,2.43474 5.22935,7.23929 7.71596,10.67679 5.39013,7.45135 7.34404,11.07854 6.77151,12.57052 -0.63793,1.66241 -2.64266,1.32217 -3.86789,-0.65645 z m -74.1951,-162.45117 c -0.24939,-0.62323 -0.43452,-0.43811 -0.472,0.472 -0.0339,0.82357 0.15073,1.285 0.41033,1.02539 0.2596,-0.25961 0.28735,-0.93343 0.0616,-1.49739 z m 63.52022,-24.65821 c -0.013,-4.41468 -0.88512,-8.81176 -1.6536,-8.33682 -0.37485,0.23167 -0.68155,1.9122 -0.68155,3.73449 0,1.8223 -0.39824,3.71151 -0.88498,4.19825 -1.25888,1.25888 -0.23709,3.33377 1.64171,3.33377 1.31458,0 1.58554,-0.50292 1.57842,-2.92969 z m -6.76394,-2.01994 c 0.2874,0.2874 0.52254,-1.38407 0.52254,-3.71439 0,-2.3303 0.33341,-5.39946 0.74091,-6.82034 0.62491,-2.17891 0.5473,-2.54509 -0.49561,-2.33859 -0.94537,0.18718 -1.28147,1.40289 -1.42744,5.16312 -0.105,2.70506 -0.40932,5.1367 -0.67626,5.40365 -0.26694,0.26694 -0.48535,-0.23876 -0.48535,-1.12377 0,-0.88503 -0.52734,-1.81149 -1.17188,-2.05882 -1.31886,-0.5061 -1.62078,-4.81657 -0.39062,-5.57686 0.42969,-0.26556 0.78125,-0.77603 0.78125,-1.13439 0,-0.72902 -2.3878,-1.81635 -2.88871,-1.31543 -0.17674,0.17672 0.2827,3.70303 1.02096,7.83622 1.23761,6.92882 1.44389,7.42296 2.64498,6.33599 0.71648,-0.64841 1.53783,-0.94378 1.82523,-0.65639 z m -37.28852,-5.67162 c -0.62183,-1.62046 -2.03269,-1.33301 -2.03269,0.41414 0,0.83141 0.42319,2.50133 0.94041,3.71094 l 0.94043,2.19929 0.2865,-2.61343 c 0.15757,-1.43739 0.097,-3.10731 -0.13465,-3.71094 z m -0.89828,-8.32406 c -0.76814,-3.53183 -1.88633,-6.34443 -2.34139,-5.88939 -0.6172,0.61722 1.40731,8.42845 2.18448,8.42845 0.39251,0 0.46257,-1.13371 0.15691,-2.53906 z m 40.07653,-2.60456 c 0.96679,-0.19519 1.75781,-0.79741 1.75781,-1.33826 0,-0.54085 0.73655,-1.61402 1.63677,-2.38482 0.90021,-0.77078 1.51255,-1.52564 1.36074,-1.67746 -0.15181,-0.15181 -2.38249,0.21175 -4.95708,0.80792 -4.26177,0.98685 -7.41543,3.14991 -7.41543,5.08617 0,0.59329 3.28995,0.38012 7.61719,-0.49355 z m -44.58351,-9.84661 c -0.24939,-0.62323 -0.43452,-0.43811 -0.472,0.472 -0.0339,0.82357 0.15073,1.285 0.41033,1.02539 0.2596,-0.25961 0.28735,-0.93343 0.0616,-1.49739 z m 48.25105,-0.74022 c 1.90279,-1.49674 1.99782,-1.79057 0.92582,-2.86257 -0.86175,-0.86175 -1.47767,-0.9652 -2.2104,-0.37122 -0.55868,0.45287 -2.01396,0.81818 -3.23397,0.81179 -1.22,-0.006 -2.80203,0.57239 -3.51563,1.28617 -1.1407,1.14101 -1.15586,1.3873 -0.12555,2.03882 2.01202,1.2723 5.94805,0.83673 8.15973,-0.90299 z m -51.14415,-4.21031 c -0.54353,-0.65491 -1.14913,-1.02986 -1.34577,-0.83322 -0.54179,0.54179 0.55903,2.02398 1.50321,2.02398 0.51804,0 0.45877,-0.44827 -0.15744,-1.19076 z m 49.31019,-3.27515 c 3.12971,-1.84876 3.6971,-4.05758 1.49943,-5.83716 -2.41451,-1.95515 -3.67235,-1.78248 -6.32279,0.86798 -2.16078,2.16077 -2.91486,4.63722 -1.76282,5.78925 0.95307,0.95307 4.2873,0.53792 6.58618,-0.82007 z m -55.39829,-4.4667 c 3.24915,-1.35759 4.54127,-3.93818 4.54127,-9.069788 0,-4.308993 -2.58166,-12.641125 -4.80302,-15.501399 -0.79584,-1.024742 -1.44698,-2.271753 -1.44698,-2.771133 0,-0.49938 -1.38388,-2.259293 -3.0753,-3.910918 l -3.07531,-3.002953 -8.83876,0.951835 c -4.86131,0.523509 -10.70947,1.507921 -12.99591,2.187581 -3.63992,1.081994 -4.48252,1.744373 -6.77217,5.323682 -3.7339,5.837023 -4.88083,8.226609 -5.47905,11.415383 -0.49857,2.657617 -0.42528,2.788179 1.37222,2.444562 1.11552,-0.21325 2.41022,0.148297 3.1383,0.876375 1.97213,1.972141 2.85432,1.480164 2.39718,-1.336851 -0.53008,-3.266532 1.50568,-8.361266 3.34102,-8.361266 0.73807,0 1.10981,-0.232141 0.82608,-0.515867 -1.15114,-1.151133 10.72614,-7.296633 14.10207,-7.296633 2.87336,0 8.31972,3.817711 9.95347,6.977047 1.566,3.028297 1.5668,11.141055 0.002,14.168187 -1.15686,2.237118 -1.11161,2.42575 1.30263,5.429956 1.37562,1.71177 2.57513,3.11231 2.66559,3.11231 0.0904,0 1.37082,-0.50405 2.84525,-1.12011 z m 46.98376,-3.54868 c 2.60459,-3.095366 3.4853,-7.03414 1.78554,-7.985374 -0.6926,-0.387602 -1.25928,-1.214602 -1.25928,-1.837781 0,-0.62318 -0.54227,-1.133055 -1.20505,-1.133055 -1.23198,0 -5.82443,8.673609 -5.82558,11.0026 -0.002,3.1276 3.85679,3.10008 6.50437,-0.0464 z M 153.125,100.39063 c 0.53491,-0.644536 0.64307,-1.17188 0.24036,-1.17188 -1.40281,0 -3.36536,-5.549578 -3.36536,-9.516359 0,-3.44386 0.3952,-4.476875 2.86642,-7.49268 6.24835,-7.625281 16.81833,-8.722571 23.11014,-2.399109 0.75196,0.755734 1.36719,1.800539 1.36719,2.321781 0,1.496336 2.44361,3.805117 4.02734,3.805117 0.92057,0 1.44141,0.564586 1.44141,1.5625 0,2.029781 0.29779,1.974937 2.78583,-0.513102 1.90819,-1.908187 2.00612,-2.307523 1.21413,-4.950937 -0.4738,-1.58143 -1.56763,-3.514398 -2.43071,-4.295481 -0.86309,-0.781082 -1.5803,-1.805114 -1.5938,-2.275627 -0.0301,-1.050236 -2.69683,-2.97958 -5.83483,-4.221494 -3.57882,-1.416378 -15.07948,-1.656865 -18.72775,-0.391611 -5.28228,1.831945 -7.71537,4.928598 -11.31611,14.402315 -2.60757,6.860632 -1.71599,12.997976 2.19704,15.123747 2.62652,1.42687 2.84457,1.42756 4.0187,0.0128 z m 115.99556,-5.820583 c 1.39525,-2.698117 1.54715,-6.99818 0.34073,-9.645977 -0.99867,-2.191828 -7.02969,-5.378726 -8.48123,-4.481625 -0.70068,0.433047 -0.73754,0.768657 -0.12597,1.146633 1.63493,1.010438 0.94469,5.426375 -1.07814,6.897649 -2.78736,2.027343 -8.39227,2.633632 -9.70659,1.049968 -0.57306,-0.690492 -1.35045,-1.255445 -1.72752,-1.255445 -0.82735,0 -0.89472,3.952719 -0.0877,5.144453 0.31569,0.466164 4.61694,1.389703 9.55835,2.052305 4.94141,0.662601 9.23902,1.247984 9.55025,1.300859 0.31123,0.05289 1.10225,-0.941094 1.75781,-2.20882 z m 48.94724,-0.839578 c -0.13638,-2.791727 -1.258,-7.011719 -1.86362,-7.011719 -0.47077,0 -0.59029,1.169633 -0.29938,2.929688 0.26634,1.611328 0.48812,3.398437 0.49285,3.971351 0.005,0.572922 0.38653,0.915695 0.84844,0.761719 0.46192,-0.153969 0.83169,-0.446938 0.82171,-0.651039 z m 4.0389,-7.872039 c -0.0874,-1.030727 -0.32416,-3.807649 -0.52612,-6.17093 -0.20196,-2.363281 -0.39411,-4.728791 -0.42701,-5.256688 -0.0452,-0.725259 -0.51246,-0.753577 -1.91205,-0.11588 -1.99932,0.910948 -1.96739,1.761922 0.40037,10.674599 0.92734,3.490625 2.74137,4.13011 2.46481,0.868899 z m -65.80534,0.832836 c 0.83112,-0.444805 1.51114,-1.394024 1.51114,-2.109375 0,-1.01161 -0.20834,-1.092305 -0.9375,-0.363141 -0.51563,0.515625 -1.5327,0.9375 -2.26016,0.9375 -0.72747,0 -1.52503,0.527344 -1.77236,1.171875 -0.52918,1.379 1.21799,1.56243 3.45888,0.363141 z m 60.10489,-3.097516 c 0,-0.429688 -0.37231,-0.78125 -0.82736,-0.78125 -0.45505,0 -0.61008,0.351562 -0.34452,0.78125 0.26557,0.429687 0.63788,0.78125 0.82736,0.78125 0.18949,0 0.34452,-0.351563 0.34452,-0.78125 z m 2.29515,-16.927084 c 3.36417,-3.8219 4.25668,-5.915304 3.82429,-8.970015 -0.17107,-1.208513 -0.86164,-1.922713 -2.01788,-2.086925 -1.60439,-0.22786 -1.75781,0.06409 -1.75781,3.344832 0,4.714091 -1.74315,5.54549 -4.6043,2.196028 -3.62168,-4.239802 -8.56765,-3.818758 -8.65211,0.736541 -0.0405,2.187224 6.3942,7.850419 9.47907,8.342499 0.28575,0.04558 1.96368,-1.557752 3.72874,-3.56296 z m 7.81769,-2.115324 c -0.19097,-0.184695 -1.01309,0.596555 -1.82694,1.736112 l -1.47973,2.071921 1.82695,-1.736111 c 1.00483,-0.954861 1.6707,-1.887226 1.47972,-2.071922 z m -8.97193,-9.353965 c 0.91446,-0.668673 1.13504,-1.240815 0.60473,-1.568564 -1.60044,-0.989126 -7.81234,-1.46528 -9.17409,-0.703211 -1.15628,0.647089 -0.83389,0.953113 2.05174,1.947557 4.48608,1.54599 4.82377,1.562789 6.51762,0.324218 z M 303.60404,51.5625 c 1.82274,0 2.21169,-2.304473 0.59551,-3.528313 -1.98698,-1.504625 -2.38275,-1.434766 -2.89142,0.510382 -0.38859,1.485993 -0.79826,1.611735 -3.72587,1.143592 -2.8453,-0.454982 -3.16003,-0.370243 -2.33172,0.627806 0.97969,1.180451 4.31653,1.998972 6.18055,1.516077 0.57225,-0.148249 1.55007,-0.269544 2.17295,-0.269544 z M 44.839412,328.58245 c -0.2576,-0.6713 -0.04114,-3.00142 0.481026,-5.17804 0.522164,-2.17662 0.75666,-4.15023 0.521103,-4.38579 -0.235557,-0.23555 -0.671129,0.86618 -0.967936,2.44829 -0.601591,3.20676 -2.239001,4.31501 -3.908565,2.64545 -0.947569,-0.94757 -0.872403,-1.91672 0.538466,-6.94277 0.901873,-3.2128 1.90857,-6.19303 2.237105,-6.62272 0.328534,-0.42968 1.401937,-3.41796 2.385339,-6.64062 2.287058,-7.4948 3.621027,-10.15625 5.090507,-10.15625 1.651453,0 2.204584,1.933 1.297618,4.53472 -0.691109,1.98251 -0.598615,2.20513 0.896729,2.15822 1.313408,-0.0413 1.632105,0.36226 1.501416,1.90081 -0.206754,2.43401 -5.644159,24.18467 -6.445005,25.78125 -0.822099,1.63895 -3.065849,1.92187 -3.627803,0.45745 z m 1.788021,-12.32268 c -0.249396,-0.62323 -0.434518,-0.43811 -0.472006,0.472 -0.03392,0.82357 0.150725,1.285 0.410328,1.02539 0.259603,-0.2596 0.287358,-0.93343 0.06168,-1.49739 z M 22.689866,296.52488 c -0.734439,-0.88494 -0.712734,-1.5534 0.09965,-3.069 1.677148,-3.12889 10.82953,-16.29722 13.098879,-18.84651 1.147515,-1.28906 3.337275,-4.27734 4.866136,-6.64062 3.663948,-5.66366 14.538563,-17.89291 18.051168,-20.29979 1.559361,-1.06848 4.078066,-4.15122 5.730864,-7.01419 8.363314,-14.48697 18.66577,-24.94038 31.151325,-31.60779 4.490022,-2.39771 8.560792,-4.35948 9.046142,-4.35948 0.48535,0 3.29633,-1.61954 6.24663,-3.59898 5.35684,-3.59404 8.99947,-7.68617 14.32267,-16.09005 3.41764,-5.39554 3.66675,-7.65472 0.84403,-7.65472 -1.08771,0 -2.1651,-0.48849 -2.39421,-1.08554 -0.2397,-0.62464 -1.05452,-0.91871 -1.91911,-0.69262 -2.81409,0.7359 -2.54484,-1.97175 0.88443,-8.89431 3.47902,-7.02299 4.08061,-11.15644 2.08807,-14.34699 -0.67901,-1.08727 -0.68181,-1.89524 -0.0113,-3.25264 0.49068,-0.99331 1.0194,-5.0134 1.17494,-8.93353 0.18543,-4.67357 0.69688,-7.76682 1.48552,-8.98438 0.66149,-1.02127 1.41055,-3.16531 1.66455,-4.76451 0.25402,-1.59921 1.54025,-4.47506 2.85829,-6.39077 1.31804,-1.91571 2.39644,-3.81831 2.39644,-4.228 0,-1.13831 5.98718,-6.29541 8.94776,-7.70721 5.50179,-2.62362 6.95794,1.09881 1.59912,4.08791 -1.83121,1.02143 -3.22846,2.42554 -3.37488,3.39143 -0.13743,0.90659 -0.91415,2.00385 -1.72605,2.43836 -0.8119,0.43452 -2.42348,2.032 -3.58128,3.54996 -1.59054,2.0853 -1.88475,2.98026 -1.20363,3.66138 1.35808,1.35808 1.08568,3.22306 -0.62698,4.29263 -2.08793,1.30393 -3.39,6.62078 -2.75395,11.24539 0.73025,5.30957 1.92632,5.55669 1.3823,0.28561 -0.35978,-3.48592 -0.1748,-4.62013 0.95754,-5.87136 2.62822,-2.90415 5.35283,-1.09717 3.51725,2.33265 -1.07232,2.00366 0.29218,7.05404 1.90586,7.05404 2.65883,0 3.22185,-5.38995 1.03594,-9.91739 -1.05228,-2.17948 -0.31078,-7.9044 1.22238,-9.43756 1.48159,-1.48159 3.63612,-0.70695 3.63612,1.30734 0,0.99465 0.61707,1.62032 1.75781,1.78234 1.47339,0.20925 1.71813,0.66048 1.51253,2.78872 -0.15103,1.56328 0.42221,3.72675 1.49158,5.62944 1.35959,2.41906 1.53806,3.32992 0.8216,4.1932 -0.71136,0.85714 -0.65205,1.32132 0.26622,2.08342 1.04059,0.86361 1.18151,0.0839 1.18151,-6.53698 0,-6.8026 0.13792,-7.51753 1.45017,-7.51753 1.25199,0 1.52356,0.87988 1.98709,6.43801 0.45797,5.49141 0.84058,6.75497 2.60224,8.59375 2.11776,2.21046 4.49743,2.92468 3.92885,1.17918 -0.17496,-0.53711 -1.23883,-1.42557 -2.36416,-1.97434 -2.21739,-1.08133 -3.28684,-5.05771 -2.7839,-10.35105 0.21879,-2.30272 0.58319,-2.75111 2.40627,-2.96088 1.88454,-0.21684 2.15453,0.0231 2.19796,1.95313 0.0493,2.1914 0.0526,2.19272 0.7981,0.32893 1.44238,-3.60598 6.29115,-9.45673 7.83715,-9.45673 2.70081,0 2.55776,2.20734 -0.35176,5.42783 -4.28648,4.74462 -4.74273,10.79502 -1.1077,14.68936 0.90243,0.96679 2.28262,1.75781 3.06709,1.75781 1.32626,0 1.31452,-0.1118 -0.16727,-1.59359 -1.3895,-1.3895 -1.5646,-2.41508 -1.36719,-8.00782 0.22098,-6.26062 0.27317,-6.41422 2.17953,-6.41422 1.87493,0 1.94211,0.1679 1.67791,4.19331 -0.21394,3.25966 -0.04,4.1159 0.78125,3.84566 0.61831,-0.20345 1.21847,-1.94258 1.44709,-4.1933 0.34539,-3.40034 0.61773,-3.8722 2.35182,-4.07481 1.21073,-0.14145 2.68359,-1.28339 3.84904,-2.98425 3.60565,-5.26211 11.12926,-7.25952 16.9465,-4.49906 2.3853,1.1319 2.82834,1.14309 4.02432,0.10163 0.80487,-0.70087 3.0675,-1.20908 5.64082,-1.267 4.11681,-0.0926 4.46875,0.0636 8.39844,3.72824 3.51385,3.27686 4.11272,4.25567 4.17944,6.83101 0.0657,2.53479 0.16254,2.69986 0.61796,1.05295 0.33165,-1.19936 1.20612,-2.04947 2.26587,-2.20277 1.3942,-0.20168 1.72579,0.13302 1.72579,1.742 0,2.35887 -2.27116,8.41945 -3.46184,9.23787 -0.50582,0.34768 -0.52703,0.57716 -0.0538,0.58206 1.79198,0.0185 5.1179,-3.76313 6.5135,-7.40604 1.06219,-2.77263 1.97796,-3.9787 3.15556,-4.15589 1.31608,-0.19804 1.65907,0.15484 1.65907,1.70695 0,1.07613 -0.36601,2.91928 -0.81336,4.09589 -0.63612,1.67313 -0.55653,2.39611 0.36524,3.31788 1.05063,1.05063 1.34914,0.80266 2.74932,-2.28374 0.86391,-1.90429 1.57846,-4.42913 1.58789,-5.61077 0.0107,-1.34345 0.43964,-2.14844 1.14474,-2.14844 0.62016,0 1.63761,-0.72818 2.26098,-1.61817 0.84176,-1.20178 1.80453,-1.55359 3.74144,-1.36719 2.47048,0.23775 2.64216,0.45594 3.25523,4.13709 0.36326,2.18115 0.33317,5.70888 -0.0686,8.04076 -0.63336,3.67619 -0.54886,4.244 0.73378,4.93045 2.7224,1.45698 1.69241,4.94076 -3.9088,13.22081 -3.75381,5.54912 -6.12135,6.67551 -5.74733,2.73437 0.12233,-1.28906 0.31694,-3.39843 0.43244,-4.6875 0.11552,-1.28906 0.93132,-3.92578 1.8129,-5.85937 0.88158,-1.93359 1.86283,-4.33681 2.18055,-5.34049 0.50653,-1.60013 0.40019,-1.72923 -0.86345,-1.0483 -0.79261,0.42711 -2.29341,1.68776 -3.33511,2.80143 -1.0417,1.11367 -2.54753,2.02486 -3.34628,2.02486 -0.79876,0 -3.19943,0.88534 -5.33482,1.96742 -2.81737,1.42767 -5.00715,1.94067 -7.98184,1.86989 -2.25462,-0.0537 -5.89934,0.15605 -8.09937,0.46597 -2.66757,0.3758 -4.17934,0.2734 -4.53829,-0.30739 -0.29607,-0.47899 -1.55147,-0.87089 -2.78981,-0.87089 -1.23834,0 -2.44027,-0.30538 -2.67095,-0.67863 -0.23068,-0.37325 -1.83346,-0.90475 -3.56174,-1.18111 -4.08976,-0.65398 -4.04029,-2.12936 0.16515,-4.92553 5.65659,-3.76103 12.45292,-10.99939 12.17343,-12.96521 -0.56574,-3.97919 -6.71927,-1.77035 -9.08909,3.26257 -1.49193,3.1685 -4.04805,4.27198 -4.04805,1.74755 0,-0.86552 -0.38313,-1.81047 -0.85141,-2.09987 -0.50569,-0.31254 -0.65579,-1.569 -0.36963,-3.09432 0.67345,-3.58984 -1.00835,-5.06545 -5.77331,-5.06545 -3.19493,0 -4.12267,0.37325 -6.1942,2.49206 -2.64987,2.71035 -3.12772,4.888 -1.23222,5.61538 0.83682,0.32111 1.15251,1.35967 1.0347,3.4039 -0.17809,3.09006 0.76384,5.51627 2.79654,7.20326 1.51277,1.25549 1.57694,4.23081 0.11738,5.44213 -0.68025,0.56456 -1.9419,0.68911 -3.32031,0.32777 -1.22274,-0.32052 -2.78236,-0.49884 -3.46582,-0.39625 -0.68346,0.10259 -2.18995,-0.17364 -3.34776,-0.61384 -1.66426,-0.63275 -2.79661,-0.47532 -5.40716,0.75179 -2.54312,1.19541 -4.6466,1.50758 -9.15223,1.35828 -4.43787,-0.14706 -6.07659,0.089 -6.78798,0.97802 -0.82901,1.03595 -1.22136,1.01337 -3.38241,-0.19461 -1.52358,-0.85165 -3.18076,-1.18173 -4.39848,-0.8761 -1.33445,0.33492 -2.63938,-0.0164 -4.1162,-1.10829 l -2.16234,-1.59868 -1.36946,1.59942 c -2.47208,2.88718 -6.73132,12.59589 -5.89343,13.43378 1.25411,1.25411 0.90503,2.81838 -1.18262,5.29942 -1.07709,1.28004 -1.72651,2.70249 -1.44314,3.16098 0.28336,0.45849 -0.11412,1.29378 -0.88328,1.85621 -1.11885,0.81813 -1.47644,2.51282 -1.78831,8.47524 -0.37723,7.2119 -0.33591,7.45263 1.27913,7.45263 1.39365,0 1.66895,-0.46137 1.66895,-2.79691 0,-3.30001 4.22201,-15.70632 6.02186,-17.69513 1.45819,-1.6113 3.24266,-1.80352 3.77261,-0.4064 0.20373,0.53711 -0.64853,3.96485 -1.89392,7.61719 l -2.26435,6.64062 2.45533,2.15545 c 5.16449,4.53369 11.12498,5.6297 17.45964,3.21047 2.69802,-1.03038 3.56406,-1.08692 4.51831,-0.29497 0.64929,0.53887 1.18052,1.40277 1.18052,1.91978 0,1.28278 -3.11446,4.036 -5.32477,4.70717 -0.99503,0.30214 -3.02039,1.61285 -4.50081,2.91268 -1.92079,1.68646 -2.96888,2.13836 -3.65961,1.57786 -0.65086,-0.52815 -2.32481,-0.50388 -5.11007,0.0741 -3.14628,0.6529 -4.50548,0.63262 -5.65346,-0.0843 -0.83123,-0.51909 -3.39679,-0.94382 -5.70124,-0.94382 -3.36031,0 -4.87062,0.46125 -7.62779,2.32953 -3.81412,2.58448 -5.23492,2.89249 -5.85759,1.26984 -0.33112,-0.86287 -1.17507,-0.671 -4.07704,0.92695 -2.01272,1.10828 -4.71418,2.78489 -6.00324,3.7258 -1.28907,0.94091 -3.60824,2.1153 -5.15372,2.60976 -1.54549,0.49446 -4.53377,1.9934 -6.64063,3.33097 -2.106861,1.33757 -5.237736,3.03609 -6.957494,3.77448 -1.719758,0.73839 -4.934773,2.88647 -7.144476,4.77354 -7.426036,6.34177 -18.2442,20.50532 -18.2442,23.88609 0,0.86259 -0.739118,2.23723 -1.642484,3.05476 -0.903366,0.81754 -2.168536,2.5037 -2.811488,3.74703 -1.618513,3.12986 -3.488612,15.09087 -2.914323,18.6398 0.374298,2.31305 0.196772,3.03428 -0.845298,3.43416 -2.256237,0.8658 -2.841986,-1.32195 -2.399125,-8.96062 0.248323,-4.28319 0.126798,-7.181 -0.294872,-7.03125 -0.394507,0.14011 -1.529423,1.37982 -2.522035,2.75492 -0.992613,1.37509 -5.496156,6.50115 -10.007875,11.39123 -5.019114,5.44004 -10.458723,12.42963 -14.014334,18.00764 -3.196166,5.01412 -6.229291,9.11658 -6.740279,9.11658 -0.510986,0 -1.351596,-0.50912 -1.868021,-1.13137 z M 130.95942,165.43153 c 1.06278,-2.05519 0.96124,-2.24615 -1.30968,-2.46278 -0.95434,-0.091 -3.95529,6.21528 -3.2793,6.89127 0.64744,0.64745 3.27571,-1.8889 4.58898,-4.42849 z m 2.7076,-12.54576 c -0.61853,-0.61853 -0.85452,-0.41581 -0.85452,0.73402 0,2.06543 1.09254,3.16175 1.44045,1.44544 0.14772,-0.72872 -0.11595,-1.70948 -0.58593,-2.17946 z m 85.21505,-13.23575 1.80323,-2.54065 -2.2814,1.78654 c -1.25478,0.9826 -2.79065,2.51359 -3.41306,3.40221 -1.06218,1.51647 -1.03282,1.56277 0.47817,0.75411 0.8854,-0.47386 2.42129,-2.00485 3.41306,-3.40221 z m 176.80595,91.27968 c -1.48047,-1.09711 -1.48763,-1.20733 -0.16555,-2.5484 1.64858,-1.67225 4.08691,-0.61549 4.08691,1.77127 0,1.8728 -1.92741,2.25477 -3.92136,0.77713 z M 197.46094,197.21814 c -0.32227,-0.33196 -0.58594,-1.42387 -0.58594,-2.42648 0,-1.68437 0.3202,-1.82291 4.21329,-1.82291 4.74686,0 5.98862,-1.28966 3.98967,-4.14356 -0.64444,-0.92007 -1.17171,-2.579 -1.17171,-3.68653 0,-1.10751 -0.39432,-2.40798 -0.87627,-2.88993 -1.08072,-1.08072 -1.28839,-6.40082 -0.44305,-11.35029 l 0.63381,-3.71094 h -3.57201 c -1.99115,0 -5.10494,0.72056 -7.03573,1.62814 -6.91348,3.24972 -8.63939,0.21543 -3.54403,-6.23069 4.40813,-5.5767 7.30043,-6.86393 13.08576,-5.8239 2.46724,0.44354 5.0519,1.05607 5.74369,1.36118 0.80879,0.35671 2.10406,-0.15735 3.62841,-1.44 4.00894,-3.37329 7.88394,-1.97828 6.98533,2.51475 -0.42046,2.10232 -0.34802,2.1538 2.63039,1.86976 5.23661,-0.49939 5.25369,3.57716 0.0262,6.24767 -1.39831,0.71435 -2.67063,1.42707 -2.82741,1.58383 -0.15676,0.15678 7.8e-4,2.38481 0.35019,4.95121 0.46147,3.38987 0.32552,5.711 -0.49702,8.48607 -0.62274,2.10095 -0.95134,4.51172 -0.73021,5.35728 0.61304,2.34432 -0.62282,4.75854 -3.5974,7.02736 -2.21578,1.69006 -3.85652,2.14699 -9.25658,2.57785 -3.60989,0.28803 -6.82711,0.25208 -7.14938,-0.0799 z m -55.77217,-35.89002 c -0.73218,-1.90803 0.17443,-3.1837 3.32529,-4.67888 4.06656,-1.92971 8.91103,-2.36312 10.77694,-0.96416 2.55723,1.91728 1.03227,3.42324 -4.0485,3.99806 -2.55185,0.28871 -5.30621,1.02943 -6.1208,1.64605 -1.92855,1.45984 -3.37247,1.45945 -3.93293,-7.8e-4 z m 130.60132,-1.13228 c -0.2521,-0.40791 0.2545,-2.85776 1.12577,-5.44411 1.9624,-5.82528 2.08496,-7.70244 0.41226,-6.31423 -1.98456,1.64704 -3.51562,-0.40821 -3.51562,-4.71927 0,-4.49494 0.5698,-6.21823 2.05605,-6.21823 1.35363,0 2.63145,3.14407 2.63145,6.4747 0,2.45533 0.005,2.4587 1.21617,0.73039 1.36011,-1.94183 3.31049,-2.28328 3.92312,-0.6868 0.22151,0.57725 -0.31205,3.62894 -1.18568,6.78155 -1.88418,6.79931 -1.64605,7.96089 0.44151,2.15364 1.114,-3.09894 1.8694,-4.12536 3.03611,-4.12536 1.27063,0 1.53745,0.49739 1.46684,2.73438 -0.11209,3.55138 -2.21676,8.47728 -3.89764,9.1223 -0.80573,0.30918 -1.69673,-0.008 -2.28663,-0.8152 -0.84501,-1.15562 -1.02414,-1.17157 -1.42501,-0.12694 -0.50455,1.31483 -3.27231,1.6285 -3.9987,0.45318 z m -83.4229,-5.17333 c -0.32227,-0.32749 -0.58594,-0.88367 -0.58594,-1.23599 0,-1.09836 5.51344,-3.00527 8.68916,-3.00527 2.71073,0 3.02959,0.20556 3.02959,1.95312 0,1.53171 -0.39789,1.95313 -1.84409,1.95313 -1.01424,0 -3.38729,0.20934 -5.27343,0.46521 -1.88614,0.25587 -3.69303,0.19727 -4.01529,-0.1302 z M 297.31743,27.679694 c -3.47911,-1.28465 -5.91118,-3.221605 -5.91118,-4.707796 0,-1.794457 1.58399,-2.044577 3.7453,-0.5914 1.16274,0.781787 3.46291,2.039015 5.11149,2.793843 1.689,0.773332 2.85433,1.802133 2.66964,2.356848 -0.46819,1.406111 -2.093,1.449082 -5.61525,0.148505 z m -10.33631,-6.247832 c -0.25842,-0.673414 -0.048,-1.640211 0.46774,-2.148438 0.72337,-0.712932 1.19329,-0.577591 2.0568,0.59238 0.88138,1.194175 0.91171,1.648193 0.14272,2.136474 -1.46003,0.927066 -2.14608,0.777777 -2.66726,-0.580416 z"
     id="path158" />
</svg>
