<svg width="400" height="400" xmlns="http://www.w3.org/2000/svg"><circle cx="200" cy="200" r="200" fill="#4c2493" fill-rule="evenodd" /><path d="M268.338 70.201c-5.35.3-10.66 1.131-15.946 1.98-3.422.599-7.191 1.491-9.378 4.452-2.48 3.338-4.786 6.892-6.254 10.801-.431 1.542-1.153 3.462-.13 4.91 1.07 1.258 3.054.368 4.075 1.7.597.781 1.479 2.174 2.645 1.542 1.466-.87.933-2.872 1.077-4.278-.251-2.702 1.12-5.232 2.856-7.22 3.876-4.335 9.826-6.95 15.651-6.517 3.76.24 7.25 2.633 8.94 6.008 2.053 3.94 2.237 8.964-.028 12.88-.685 1.191-1.058 2.759-.103 3.924 1.217 1.74 2.637 3.488 4.525 4.516 1.958.92 4.148-.364 5.075-2.14 2.67-4.442 2.757-9.942 1.93-14.92-.556-3.283-2.059-6.316-4.024-8.976-.887-1.634-1.502-3.468-2.971-4.711-1.755-1.903-3.87-3.9-6.633-3.92a14.61 14.61 0 0 0-1.307-.03zm-102.7-.546c-3.983.03-8.34.236-11.571 2.877-5.045 3.937-8.129 10.032-9.232 16.258-.433 3.59-.557 7.78 2.1 10.61 1.367 1.37 3.416 2.437 5.385 2.045 1.43-.44.97-2.196.523-3.203-1.185-2.576-2.63-5.19-2.518-8.124-.097-3.989 2.303-7.798 5.53-10.034 5.17-3.848 12.668-4.216 18.188-.973a7.427 7.427 0 0 1 3.415 4.626c.799 1.879 2.982 2.258 4.625 3.044.639.92.12 2.177.128 3.22-.298.577.09 1.78.864 1.222 1.925-1.836 3.55-4.07 4.586-6.528.526-2.094.173-4.512-1.44-6.062-1.056-1.156-2.223-2.27-2.718-3.8-1.66-2.024-4.178-3.168-6.594-4.036-3.657-.99-7.503-1.111-11.271-1.142z" fill="#f6e607" stroke-width=".177" /><path d="M262.26 264.806c-4.505.343-8.711 2.317-12.655 4.397-5.484 3.017-10.235 7.218-14.212 12.03-3.794 4.439-7.944 8.546-11.77 12.954-.322.42-1.211 1.397-.357 1.712 1.607-.352 3.01-1.4 4.529-2.033 1.364-.61 3.07-1.582 4.553-.815.77.756-.5 1.462-1.076 1.818-3.077 1.707-6.193 3.365-9.386 4.843-1.644.777-3.627.742-5.096 1.946-3.752 2.6-7.133 5.754-10.072 9.24-.533.539-1.043 1.748-.002 2.057 3.647.958 7.544.44 11.161 1.502.534.053.957.63.218.811-3.426 1.326-7.438.578-10.667 2.559a.974.974 0 0 0 .05 1.791c1.93 1.234 4.487.702 6.38 1.97.523.843-.909 1.231-1.508 1.364-1.79.507-3.741.1-5.561.561-1.049.516-.18 1.835-.09 2.65 1.898 7.404 7.615 13.318 14.323 16.702 7.067 3.6 15.101 5.162 23.007 4.811 8.62.01 17.145-2.286 24.881-6.008 3.453-1.637 6.987-3.687 8.88-7.155 3.62-6.46 3.568-14.587.807-21.35-1.49-3.355-3.77-6.6-7.045-8.402-4.427-2.024-9.442-2.234-14.235-2.063-1.824.119-4.18.486-4.886 2.461-1.622 2.169-4.447 3.044-7.057 3.215-.768.051-1.83-.344-1.564-1.31.145-.99-.518-2.072-1.633-1.904-1.279-.286-2.856.008-3.949-.808-.449-1.056.991-1.304 1.73-1.36 1.486-.047 2.805-.814 3.729-1.95 1.604-1.345 3.84-.554 5.725-1.078 6.288-1.322 11.833-5.104 16.281-9.632 2.71-2.777 4.849-6.168 5.728-9.979.747-3.06 2.012-6.129 1.78-9.328-.328-2.566-3.07-3.642-5.117-4.587-1.851-.753-3.783-1.656-5.823-1.632zm-38.704 37.345c.885-.162 1.076 1.11.334 1.436-2.215 1.656-4.72 3.074-7.447 3.684-1.531.262-1.706-2.17-.475-2.622 2.158-.976 4.368-1.959 6.693-2.452a4.75 4.75 0 0 1 .895-.046zm-25.03 11.922c-1.745-.108-3.573.492-4.59 1.988-1.358 1.89-2.897 3.821-3.454 6.12-.112 1.008 1.209 1.231 1.818.64 2.057-1.291 2.92-3.661 3.409-5.923.181-1.026 1.517-.454 2.186-.528 1.605-.005 3.363.546 4.892-.104.822-.624-.065-1.634-.833-1.75-1.098-.375-2.276-.453-3.428-.443z" fill="#f4a7a2" stroke-width=".177" /><path d="M282.836 17.827c-.635.483-.11 1.514-.154 2.199.476 3.475 1.992 6.738 2.13 10.276.22 2.398.04 5.176 1.92 7.004 2.33 2.515 4.9 4.857 7.754 6.764 1.703.927 3.32-.727 4.96-1.03 1.827-.358 3.99-.593 5.63.475.904.879 1.842 1.98 3.244 1.886 2.259-.055 4.89.402 6.745-1.213 1.321-1.206 3.36-.886 4.608-2.218.379-.501 1.2-.647 1.394-1.218-.775-1.08-2.156-1.648-3.155-2.526-4.777-3.393-9.594-6.762-14.677-9.683-1.524-.605-3.268-.321-4.778-1.05-2.402-.975-4.968-2.19-6.44-4.427-.102-.626-.367-1.23-1.041-1.437-.72-.437-1.607-.785-2.369-.233-.723.266-1.59-.386-1.259-1.151-.702-1.002-2.115-1.249-3.128-1.864-.46-.159-.893-.52-1.384-.554zm53.504 174.33c-.956.308-1.099 1.605-1.612 2.356-.293.689-.98 1.784-1.792.975-.641-.4-1.459-1.457-2.267-.895-.122.894.87 1.578 1.27 2.316 4.064 5.39 8.836 10.22 12.759 15.71.439.419.57 1.718-.367 1.396-2.08-.974-3.484-2.88-5.148-4.418-3.242-3.44-6.646-6.743-9.614-10.43-.413-.686-.791-2.081-1.864-1.598-1.116.744-.19 2.235.38 3.028 1.937 2.744 2.794 6.078 3.872 9.216.635 2.412 1.587 4.834 1.525 7.36-.363.783-1.44.06-1.789-.401-2.4-2.945-2.102-7.017-3.734-10.333-.485-.972-.844-2.072-1.517-2.907-.745.41-.836 1.584-1.122 2.38-.649 3.296.448 6.626 1.337 9.774 1.68 5.16 4.066 10.224 7.816 14.201 3.194 3.63 5.6 7.84 8.527 11.672 5.161 7.274 12.328 13.11 20.426 16.822 2.718 1.28 5.77 1.153 8.556 2.182 5.356 1.749 10.627 3.817 15.66 6.341.47.516 1.095.05 1.16-.544 3.57-9.711 6.122-19.784 8.053-29.943.173-1.637.861-3.296.637-4.945-.582-.557-1.46-.987-1.695-1.856-1.093-1.006-2.749-1.146-4.059-1.799-5.95-2.166-11.801-4.622-17.835-6.549-2.38-.37-4.784-.647-7.056-1.498-5.507-1.86-10.693-4.91-14.586-9.279-4.809-5.094-9.561-10.324-13.598-16.036-.656-.777-1.17-2.193-2.323-2.298z" fill="#f6e607" stroke-width=".177" /><path d="M164.974 79.128c-2.915.23-6.112.85-8.298 2.922-1.058.995.093 2.457 1.338 2.342 1.78-.082 3.327 1.7 2.644 3.437-.464 1.543-2.167 3.148-3.825 2.15-1.359-.309-3.613-1.357-4.4.387-.03 1.872 1.054 3.656 1.98 5.24.926 1.613 2.79 2.584 4.637 2.02 2.872-.57 5.58-1.814 8.486-2.206 2.09-1.007 4.029-2.362 6.31-2.957 1.857-.668 4.328-2.612 3.202-4.827-.897-1.324-1.977-2.553-2.357-4.157-1.698-3.54-6.175-4.397-9.717-4.35z" fill="#f4a7a2" stroke-width="0" /><path d="m59.131 278.63.443-7.101" fill="none" stroke="red" /><path d="M57.446 256.956c-6.472 5.655-11.936 12.495-17.534 19.03-5.407 6.666-10.413 13.807-14.932 21.008 4.991 8.128 9.783 16.534 15.927 23.833 1.468-.758 1.289-3.54 2.111-4.998 2.043-5.64 3.018-11.641 5.215-17.2.84-1.25 1.527-4.252 3.439-3.814 1.027 1.803-.742 3.835-.246 5.519 1.21.346 3.168-.119 2.516 1.941-1.357 9.041-4.937 17.69-6.056 26.779 1.114 3.359 4.621 5.413 6.754 8.143 20.32 21.624 45.562 38.593 73.237 49.274 2.961-1.63 4.672-5.138 7.11-7.488 5.35-6.031 9.65-12.886 14.172-19.535-1.384-1.98-3.577-3.862-5.974-4.527-3.021-2.182-1.593-6.545-1.7-9.648.074-3.852 3.438-6.19 5.037-9.306-.14-2.23-3.105-.431-4.229.043-7.796 1.681-15.994 1.718-23.872.864-3.513-1.228-7.027-2.604-10.554-3.868-4.66-2.142-9.155-4.622-13.927-6.51-2.737-1.872-5.643-3.32-8.22-5.43-6.717-4.241-12.466-10.034-17.468-16.16-4.381-5.795-6.28-12.963-8.85-19.62-1.722-9.146-.248-18.618-1.315-27.83-.089-.272-.326-.548-.64-.5z" fill-opacity="0" stroke-width="0" /><path d="M57.302 256.271c-4.674 3.445-8.209 8.362-12.23 12.557-7.713 8.668-14.675 18.13-20.746 27.938 3.868 7.672 9.01 14.991 14.003 22.115.752 1.125 2.664 4.078 3.843 1.76 2.511-6.923 4.147-14.152 6.424-21.121.673-1.325 1.468-3.477 2.59-3.977.749 1.839-2.191 4.946.666 5.67 2.262-.658 1.167 1.962 1.06 3.153-1.651 8.302-4.732 16.35-5.723 24.762 1.026 3.58 4.73 5.71 6.951 8.558 20.397 21.708 45.74 38.733 73.52 49.454 2.677-.353 3.901-3.654 5.798-5.295 6.179-6.92 11.639-14.598 16.364-22.498-1.045-1.968-3.345-4.009-5.63-4.795-3.348-1.267-1.876-5.75-2.088-8.491-.08-3.913 3.046-6.506 4.964-9.501 1.02-2.32-2.145-2.97-3.615-1.845-5.243 2.254-11.105 1.7-16.668 1.982-4.344.016-8.733-.034-12.647-2.206-6.892-1.801-12.816-5.942-19.456-8.39-2.912-1.879-5.9-3.495-8.625-5.65-6.608-4.166-12.328-9.956-17.232-15.948-4.384-5.856-6.32-13.014-8.83-19.756-1.573-9.105-.1-18.445-1.268-27.575-.2-.578-.795-1.03-1.425-.9zM170.81 93.686c-4.457 1.734-8.06 5.382-12.51 7.247-3.602 2.48-8.842 2.536-10.765 7.064-1.77 3.291-6.097 4.26-7.173 8.01-2.501 3.24-8.314 6.213-5.618 11.03-3.202 4.817-5.445 11.505-2.584 16.972 3.138 1.211 1.703-3.792 2.217-5.574-.11-1.513 3.537-4.5 2.568-1.338-.929 2.766.187 9.055 4.23 7.437 1.97-3.936-.002-8.876.377-13.144.127-1.7-.82-6.24 1.716-5.978.336 1.782.682 4.429 3.266 3.933 1.453 2.396.374 6.593 2.704 9 1.067 1.533-.278 5.895 2.77 5.062 2.147-3.923.895-9.15 1.941-13.288 1.686 5.696.65 13.575 7.182 16.415 1.95 1.486 3.676-1.401 1.686-2.65-2.487-1.787-4.431-4.124-4.194-7.401-.001-1.615-.531-5.085 1.441-5.583.635 1.765 3.06 3.411 3.965.839 1.61-2.821 2.99-7.228 6.374-7.986-2.032 4.995-5.971 9.853-4.609 15.675.24 3.836 4.395 6.773 7.976 5.092-.087-2.441-3.218-4.362-2.737-7.32-.035-2.53-.316-6.357 1.636-8.029 1.905 2.389-1.923 7.536 1.9 8.653 4.209-.51 2.86-5.904 4.373-8.42 4.886-1.248 6.647-7.481 11.786-8.638 4.046-1.849 8.055 1.322 11.796 2.135 3.465-2.414 8.048-3.495 11.743-.933 4.297 2.044 5.936 6.716 7.168 10.911 2.183 2.068 2.284-3.264 3.686-2.59.831 3.435-2.154 6.597-1.724 9.92 3.407 1.246 6.204-3.097 7.446-5.808.033-1.486 1.617-4.399 2.453-4.162.371 2.927-1.707 7.058.812 9.305 3.364-.293 4.02-5.159 4.78-7.833.516-3.24 4.464-6.559 7.778-5.6 2.799 5.05-.273 11.622 2.276 16.814 2.202 1.476-.44 4.762-1.086 6.565-1.44 3.248-4.875 5.994-4.979 9.632 2.226 1.634 4.96-1.594 7.008-2.606 3.914-2.956 5.464-7.829 8.549-11.479-.294 6.555-2.48 13.048-2.225 19.577 2.326 1.916 4.233-2.423 5.752-3.798 1.873-1.915 3.338-5.629 5.649-6.432 2.71 1.618 1.059 3.934.156 5.96-1.006 4.888-2.914 10.127-2.037 15.093 2.822 1.193 3.058-4.104 4.474-5.607 1.05-2.977 2.934-7.293 6.772-6.185 1.079 2.714 3.03 4.81 2.38 7.995.44 2.72-.786 6.281 1.009 8.531 3.07-.202 2.969-4.894 4.143-7.018.79-3.923 3.124-8.378 1.168-12.205.328-7.524 5.463-14.784 2.455-22.405-2.838-6.244.27-14.306-5.093-19.49-2.544-2.369-7.131-3.91-7.618-7.685.062-4.997-6.268-6.382-9.411-9.061-5.917-4.617-14.161-2.787-20.983-4.432-3.253-.724-6.625 1.59-9.676.617-3.453-3.403-8.425.412-12.244 1.169-2.44.977-.33 2.946.824 3.93.554 2.868-4.129.127-5.818.515-3.302-.104-4.713 4.705-1.213 5.864-2.187 3.443-5.262-3.336-7.948-.326-1.708.85-3.56 3.847-5.603 3.275-.274-2.683 5.266-3.517 3.94-6.38-2.987-.836-5.891 2.516-9.104 1.646 2.046-2.885 7.296-2.98 8.122-6.62-2.077-3.14-6.932-2.671-10.188-3.983-2.773-1.152-6.37-.499-8.046 1.464-.343-2.72.76-6.288-3.705-4.94-4.513-.041-9.08.147-13.557-.42zm101.843 45.563c2.39 1.868 2.234 6.77-.137 8.397-.59-2.553-1.588-6.234.137-8.397zm6.352 4.422c.681 4.147-2.087 8.435-1.495 12.586 2.62 1.38 3.072-3.267 4.023-4.86.355-.909.468-3.363 1.133-1.133-.04 2.825-.249 6.933-2.035 8.595-2.151-.355-4.737.925-6.568.458.967-5.361 1.994-11.008 4.9-15.676z" fill="#f6e607" stroke-width="0" /><path d="M219.86 136.597c-1.525.275-2.62 1.532-3.779 2.466-1.468 1.413-3.093 2.73-4.242 4.428-.58.912.495 2.063 1.455 1.608 2.633-1.033 4.823-2.954 6.773-4.958.776-.787 1.642-2.177.738-3.182a1.266 1.266 0 0 0-.945-.362zm-38.64-2.34c-1.44.146-1.798 1.91-1.597 3.102.022 1.13 1.261 2.28 2.361 1.611 1.131-.848 1.111-2.593.618-3.792-.249-.527-.779-.95-1.383-.92zm-19.75-2.044c-.837.667-.327 1.829-.095 2.685.452.836 1.742.565 1.953-.322.422-.71.835-1.949-.191-2.355a2.543 2.543 0 0 0-1.668-.008zm-17.793-3.399c-1.427.092-1.73 1.838-1.572 2.985.026 1.058.957 2.241 2.107 1.81 1.363-.59 1.42-2.447 1.003-3.67-.23-.637-.828-1.173-1.538-1.125zm-10.101 14.306c-.743.09-1.843.174-1.873 1.158.026 1.145 1.526 2.371 2.53 1.428.696-.663.9-2.21-.233-2.541a1.273 1.273 0 0 0-.424-.045zm-.16 8.452c-1.334.035-1.667 1.607-1.418 2.67.246 1.34.653 3.1 2.142 3.532 1.213.303 2.065-1.032 1.863-2.117-.079-1.548-.557-3.537-2.232-4.05a1.518 1.518 0 0 0-.355-.035zm-3.676 9.366c-1.534.07-2.059 1.776-2.677 2.903-.81 1.847-1.832 3.679-2.117 5.697-.116 1.337 1.446 1.975 2.547 1.595 2.287-.753 3.627-3.024 4.53-5.116.525-1.319 1.014-3.174-.233-4.238-.583-.45-1.297-.83-2.05-.84z" fill="#f6e607" stroke-width="0" /><path d="M128.085 188.191c-1.35.06-2.444 1.48-2.365 2.783.226 1.307 1.923 1.525 2.844.806 1.128-.586 1.784-2.34.668-3.253-.323-.254-.743-.348-1.147-.336z" fill="#f7f8f9" stroke-width="0" /><path d="M291.238 135.819c-.987-.067-1.675.99-1.302 1.88.52 1.852.991 3.679 1.5 5.528.247.976 1.495 1.892 2.381 1.064.951-1.125.704-2.747.674-4.115-.11-1.526-.367-3.504-2.029-4.107a3.087 3.087 0 0 0-1.224-.25zm-1.615-14.114c-1.268.105-1.602 1.587-1.408 2.631.422 2.943 1.434 5.804 2.804 8.435.398.922 1.843 1.306 2.372.293.552-1.395.216-2.967.05-4.414-.424-2.073-.822-4.298-2.146-6.012-.419-.479-1.013-.922-1.672-.933zm-6.088-11.603c-1.122.448-.917 1.937-.651 2.88.36 1.257 1.935 2.494 3.189 1.647.847-.514.847-1.65.272-2.365-.667-.82-1.318-1.842-2.363-2.187l-.447.025zm3.892 5.364c-1.52.223-2.007 2.228-1.29 3.424.354.96 1.764 1.761 2.528.764.839-1.089.638-2.834-.253-3.834a1.304 1.304 0 0 0-.985-.354z" fill="#f6e607" stroke-width="0" /><path d="M325.781 88.973c-2.921.65-3.818 3.99-5.088 6.299-.852 2.165-2.447 4.624-1.494 6.993 1.782 2.474 5.726 1.824 7.684-.14 3.505-3.18 3.562-9.413.21-12.703-.382-.268-.831-.489-1.312-.45zm7.218 11.151c-2.63.382-4.563 2.71-5.828 4.885-1.162 1.899-.735 4.898 1.61 5.633 2.87.633 6.009-.672 8.048-2.694 2.035-1.904 1.53-5.423-.871-6.776-.872-.59-1.878-1.104-2.96-1.048zm2.341 11.551c-1.359-.009-2.107 1.616-3.563 1.151-2.242.128-5.106 1.522-5.237 4.04.353 2.445 3.429 2.91 5.463 2.672 2.704-.365 5.688-1.785 6.796-4.414.36-1.809-1.843-3.385-3.459-3.449zm1.435 7.952c-3.243.552-6.605 1.274-9.454 2.994-1.556 1.088-3.816 2.667-3.228 4.843 1.021 1.756 3.477 1.055 5.125.93 1.943-.576 4.749-.244 5.871-2.3.602-2.03 2.96-3.118 3.252-5.233-.02-.804-.825-1.291-1.566-1.234zm-26.678-67.865c-1.547-.173-3.652.544-3.738 2.283.75 1.36 2.728 1.554 4.093 2.188 2.246.852 4.644 1.14 6.964 1.628.366 1.048.509 2.603-.198 3.534-1.77-.315-2.912-2.061-4.54-2.83-2.098-1.512-5.566-2.02-7.245.348-1.524 2.64-.325 6.05 1.89 7.919 2.234 2.01 4.873 4.213 8.026 4.255 3.59-.471 5.557-4.109 6.998-7.043.955-2.428 2.19-5.318 1.117-7.892-.895-1.542-2.892-1.503-4.086-2.717-2.744-1.742-6.157-1.675-9.28-1.673z" fill="#f7f8f9" stroke-width="0" /><path d="M261.532 79.128c-1.41.033-3.745 1.633-2.17 3.003 1.156.979.56 2.915.32 4.21-1.08 2.441-4.167 3.224-6.628 3.169-2.078.019-2.422-3.36-4.656-2.714-1.962 1.13-1.562 3.862-1.408 5.774.131 2.135 2.222 3.24 4.131 3.442 5.324.91 10.696 1.49 16.022 2.298 2.41-.239 3.63-2.99 3.76-5.144.402-3.997.15-8.662-2.774-11.72-1.877-1.324-4.332-2.062-6.597-2.318z" fill="#f4a7a2" stroke-width="0" /><path d="M257.455 82.415c-1.186.07-1.962 1.168-3.18 1.159-1.801.343-3.554 2.89-2.016 4.392 2.408 1.132 5.543-.313 6.822-2.522.72-1.267-.011-3.126-1.626-3.03z" fill="#f4a7a2" stroke-width="0" /><path d="M302.164 45.418c-1.998.028-.884 3.246-2.843 3.178-1.768.445-3.55-1.42-5.194-.435-1.235 1.537.697 3.492 2.153 3.995 2.923 1.073 6.437.876 9.146-.68 1.744-1.26.433-3.625-.86-4.685-.68-.603-1.42-1.394-2.402-1.373zm21.174-2.21c-2.274-.064-3.693 2.162-5.888 2.492-1.403.402-3.853 1.223-3.167 3.14 1.503 2.042 4.473 1.915 6.754 2 1.686-.015 4.297.172 4.759-1.978-.086-1.494 1.737-1.71 2.127-2.91-.11-1.982-2.949-2.761-4.585-2.744z" fill="#f6e607" stroke-width="0" /><path d="M326.383 63.152c-1.866.378-2.939 2.372-3.502 4.02-.19 1.573 1.912 1.843 2.743.793 1.246-.996 3.098-2.827 1.805-4.471a1.307 1.307 0 0 0-1.046-.342zm-5.435 9.612c-1.634.36-4.14.882-4.323 2.91.782 4.25 1.685 8.523 3.026 12.636.295 1.303 2.046 2.157 2.95.882 2.159-2.02.975-5.233.765-7.753-.495-2.486-.303-5.052-.707-7.533a1.628 1.628 0 0 0-1.71-1.142zm-4.87 12.666c-1.752.47-1.08 2.796-1.11 4.135.348 2.061.2 4.455 1.485 6.197 1.399 1.12 2.954-.79 2.654-2.214-.145-2.687-.673-5.526-2.172-7.799a1.106 1.106 0 0 0-.857-.32zm-.557-4.3c-2.186.299-1.933 4.438.461 3.936 1.949-.454 1.51-3.967-.461-3.936zm19.894 54.596c-1.82.452-1.48 2.863-1.827 4.297-.337 1.351.062 3.044-.72 4.168-1.201.73-2.002 2.387-.835 3.52 1.448 1.62 4.584 2.47 5.885.238.667-2.557.259-5.315.003-7.922-.315-1.534-.555-4.05-2.506-4.301zm-9.697-6.833c-1.82.113-1.52 2.3-1.29 3.547.72 4.323 1.305 8.75 2.864 12.863.576 1.508 2.623.845 2.665-.61 1.567-.595 1.97-2.255 2.045-3.764.491-3.413.684-6.857 1.56-10.172-.428-1.94-3.46-1.177-3.904.427-.596 1.448-.638 3.04-.877 4.569-.423-1.998.267-4.45-1.16-6.107-.52-.456-1.197-.79-1.903-.753z" fill="#ff8dff" stroke-width="0" /><path d="M274.253 167.88c-1.683.504-2.023 2.697-2.096 4.228-.067 1.577 2.05 1.788 2.707.542 1.143-1.213 1.56-3.942-.221-4.741-.127-.03-.26-.04-.39-.029zm3.375-12.45c-.675.055-1.019.758-.986 1.371-.096.65.034 1.477.74 1.726.767.29 1.387-.403 1.77-.977.369-.45.645-1.14.197-1.632-.398-.438-1.039-.376-1.574-.495l-.147.006z" fill="#f6e607" stroke-width="0" /><path d="M277.242 157.661c-.798.123-1.49 1.059-1.193 1.855.241.598.968.74 1.523.532.654-.03 1.232-.66 1.05-1.323-.165-.585-.744-1.12-1.38-1.064zm-68.974-52.809c-.803.121-1.618.388-2.284.854-.454.55-.176 1.434.51 1.622-.141.762.566 1.546 1.343 1.26.787-.517 1.393-1.4 1.612-2.326.146-.73-.402-1.48-1.18-1.41zm2.158 2.663c-.58.406-1.251 1.131-.76 1.856.432.512 1.217.574 1.845.514.86-.194.988-1.347.401-1.908-.321-.514-.926-.762-1.486-.462zm11.319-7.871c-.864.082-1.8 1.094-1.179 1.919.466.559 1.36 1.084 2.014.494.721-.696.435-2.336-.69-2.413-.048.004-.097-.004-.145 0z" fill="#f6e607" stroke-width="0" /><path d="M186.665 320.302c-2.018.274-3.806 1.383-5.66 2.158-2.102.906-4.11 2.124-6.358 2.634-1.047.071-2.122-.02-3.063.55-3.165 1.332-6.43 2.444-9.517 3.948-.8.571-1.476 1.32-2.427 1.67-2.47 1.105-5.134 1.842-7.348 3.46-4.016 2.842-7.363 6.892-8.746 11.667-.427 1.989-.477 4.144.284 6.062.386.896-.015 2.118.941 2.728.774.618 1.762 1.409 2.802.895 2.97-.826 6.126-.333 9.116-1.085 6.298-1.525 12.026-4.768 17.367-8.35 5.275-3.576 10.107-7.816 14.281-12.633 1.693-2.14 3.49-4.29 4.538-6.835.51-.808.075-1.76-.752-2.111-.647-.328-1.473-.143-1.97-.795-1.013-.79-1.628-1.924-2.031-3.117-.244-.565-.855-.882-1.457-.846zm-3.792 8.392c.47-.026-.19.31-.3.43-2.842 1.913-5.962 3.43-9.203 4.534-.371.025-.86.398-1.178.156 1.804-1.58 4.04-2.453 6.163-3.532 1.453-.63 2.918-1.44 4.518-1.588z" fill="#f4a7a2" stroke-width="0" /><path d="M313.42 103.281c-2.435.689-3.226 3.637-4.42 5.591-4.91 9.726-7.159 20.44-10.514 30.726-2.657 6.221-4.694 12.754-6.46 19.308-1.275 2.922-3.315 5.54-3.697 8.815-2.457 11.394-6.819 22.25-10.917 33.156-1.645 4.48-4.307 8.45-7.022 12.326-1.021 1.88-.162 4.46-.76 6.187-2.594-.44-2.46-3.693-1.376-5.47 4.362-7.84 9.198-15.659 11.384-24.45.608-1.308.065-4.126-1.698-2.578-1.077.739-2.035 2.361-3.212 2.639-1.603-1.458-5.1.123-5.385-2.762-.584-2.575 1.175-5.186.456-7.678-1.62-1.654-3.958.495-5.635 1.027-1.347.594-2.703 1.33-4.183 1.49.87-4.865 4.408-9.06 4.577-14.081-.483-2.058-2.884-.776-3.058.766-.799 1.116-2.033 3.97-3.735 2.598-1.615-1.164-3.346 2.04-4.604.07-.983-1.959-2.671-1.09-3.952-.075-.21-.93.711-2.646 1.096-3.765 1.039-3.055 3.33-5.925 3.272-9.217-1.504-1.288-2.619 1.347-4.3 1.194-2.238.399-4.76.103-6.53-1.29-1.071-.116-1.687.962-2.495 1.453.467-5.087 1.838-10.013 3.98-14.644.484-1.457 1.922-4.198-.27-4.884-3.06.407-4.836 3.589-7.654 4.68-4.317 1.464-8.178 4.449-12.93 4.425-3.952.104-7.968.987-11.87.789-1.743-1.862-4.58-1.003-6.658-2.295-1.699-.726-3.56-1.118-5.175-2.002 3.32-3.106 7.643-5.02 10.744-8.427 2.1-2.318 5.216-5.153 4.42-8.616-.788-2.668-4.413-3.144-6.248-1.245-2.853 1.843-3.994 5.148-6.13 7.594-.83.216-1.049-1.656-1.366-2.29-1.079-2.867.533-7.05-2.689-8.863-5.628-3.222-14.086 1.254-13.953 7.92-.081 1.903 2.676 2.35 2.104 4.382-.295 3.265.978 6.407 3.21 8.756.961 1.72-1.284 4.214-3.114 2.932-2.626-.594-5.375-.292-7.946-1.168-3.801-.165-6.838 3.054-10.701 2.664-3.136.374-6.589-.341-9.507 1.043-.932 1.198-2.277-.684-3.257-.861-1.41-.768-3.438-1.773-4.79-.444-2.73.57-3.73-3.453-6.306-2.912-2.137 1.59-2.755 4.545-4.128 6.749-1.172 3.124-3.78 6.129-3.253 9.631 1.179 2.853-2.612 4.609-2.72 7.363.035 2.212-2.144 3.565-2.128 5.807-.591 4.363-.844 8.842-.815 13.204.84 1.237 3.139.866 4.355.11 1.952-2.053 1.24-5.302 2.249-7.755 1.35-4.63 2.582-9.49 5.29-13.529.503.163-.008 1.848-.07 2.527-.692 3.965-3.08 7.784-2.474 11.879 4.045 6.58 13.108 8.98 20.197 6.338 1.179-.084 2.668-1.289 3.787-.757 1.008 2.74-1.735 4.623-3.953 5.424-2.49 1.061-4.351 3.287-6.8 4.311-3.233-1.416-6.71.422-9.954.408-5.482-2.595-11.848-1.245-16.932 1.616-2.08 1.517-4.258-.828-6.455.175-4.928 1.695-8.815 5.437-13.567 7.536-11.278 5.721-22.881 11.997-30.631 22.32-3.083 3.654-5.607 7.75-7.867 11.933-.748 3.565-3.6 6.164-4.712 9.618-2.73 6.4-3.366 13.425-3.21 20.309-1.156 2.113-1.79 4.72-1.285 7.154.728.872 1.554 1.617 1.68 2.911 1.344 5.304 3.665 10.289 5.563 15.402C72 307.81 82.11 316.306 92.851 322.681c5.084 2.803 10.414 5.191 15.379 8.182 3.602.818 6.977 2.13 10.522 3.238 5.669 1.339 11.596 1.062 17.365.744 6.293-1.404 12.52-2.87 18.885-3.95 3.62-1.06 7.533-.43 10.977-2.152 3.055-1.444 6.959-2.049 8.85-5.131 1.694-1.405 4.098-1.241 5.92-2.52 4.957-2.392 9.541-5.478 14.001-8.652 3.062-1.251 6.462-1.679 9.055-3.99 5.82-4.749 10.146-11.01 15.366-16.37 5.504-6.108 11.079-12.164 17.277-17.58 4.142-3.993 6.705-9.246 9.864-13.985 5.247-9.447 10.021-19.19 13.923-29.263.152-.781 1.363-.859.942.176-1.261 6.19-4.22 11.823-6.703 17.569-2.684 5.837-5.75 11.442-9.448 16.7-.808 1.704 1.479 2.382 2.641 1.54 6.161-2.734 13.018-5.8 19.841-3.555 3.453 1.29 7.562 3.726 7.961 7.697.517 6.777-2.65 13.351-6.689 18.555-2.43 3.146-5.791 5.416-8.347 8.41-.972 1.978 1.893 2.263 3.178 2.35 3.97.228 8.208.755 11.233 3.619 2.985 2.574 6.022 5.683 6.999 9.539-.156 7.36.73 15.164-2.456 21.998-3.955 5.581-10.364 8.814-16.615 11.064-8.25 3.094-17.13 2.498-25.837 2.29-9.375-1.188-18.929-4.377-25.958-10.953-3.806-3.373-5.726-8.188-7.135-12.95-1.234-1.39-3.49-.301-5.162-.383-4.152.613-5.556 5.217-8.028 7.995-5.014 6.457-10.875 12.342-18.095 16.267-6.114 3.614-12.188 6.966-18.831 9.23-1.933 1.168-1.62 3.961-2.49 5.823-1.858 5.818-2.494 11.91-3.871 17.831-.731 3.287-2.505 6.585-3.074 9.957 1.173 1.991 4.098 1.705 6.035 2.508 16.08 3.952 32.627 6.508 49.225 6.022 10.802-.036 21.642-.356 32.291-2.33 45.2-7.152 87.61-30.425 118.032-64.594.618-2.023-1.968-3.545-2.698-5.33-3.305-5.332-7.71-9.836-11.092-15.105-5.079-6.485-7.776-14.39-12.197-21.312-5.215-9.559-9.89-20.297-7.887-31.435 3.248-13.221 4.238-27.028 5.692-40.59 1.252-14.512 3.057-28.96 4.418-43.47.537-4.717 1.875-9.322 2.432-14.02-1.18-2.33-4.65-3.236-4.764-6.242.143-2.783 4.195-4.061 3.242-7.143-.742-2.1-2.146-3.987-2.198-6.312-.859-1.928-4.145-.145-5.05-1.98 1.215-1.593 4.14-2.472 3.385-5.01-.72-3.43-2.529-6.608-2.427-10.221-.563-2.891 1.143-5.331 2.608-7.614 1.452-3.002 2.182-6.844.764-9.973-1.722-2.156-5.64-1.12-6.687 1.272-2.141 2.806-3.57 6.31-6.166 8.698-1.343.227-.282-1.705.043-2.214 1.793-3.557 5.03-7.497 3.375-11.697-.27-.412-.75-.677-1.247-.648zm-116.17 48.523c.907-.218 2.36.394 1.341 1.38-2.767.959-5.931.756-8.838.571-.219-.363 1.484-.803 1.978-1.06 1.754-.665 3.65-.926 5.519-.89zm18.159 4.625c2.042.475.863 3.38 1.202 4.791.765 1.939 3.426.55 5.045.848 1.138-.338 3.057.28 1.989 1.724-1.771 2.87-6.455 3.057-6.912 6.879-.53 3.401 1.564 6.73.29 10.098-1.14 3.316-.857 6.855-1.635 10.219-1.236 4.16-6.363 4.847-10.007 5.085-2.354.062-4.856.444-7.135-.02-.31-.882-.168-2.186 1.105-1.751 2.625.334 6.587.325 7.675-2.642.478-2.995-1.899-5.494-2.512-8.315-1.08-2.808-2.36-5.749-1.458-8.799.28-2.76.944-5.689.229-8.383-3.36-.622-7.17-.448-10.273 1.193-1.607.534-3.422 1.767-5.027 1.635-.607-4.61 3.385-8.494 7.38-10.05 4.188-1.144 8.825-.74 12.907.815 2.733.035 4.457-3.129 7.137-3.327zm-62.867.016c1.244-.047 2.546.483 3.374 1.339-4.152 1.38-8.616 1.418-12.762 2.894-1.231.125-.043-1.352.499-1.52 2.623-1.67 5.785-2.615 8.89-2.713z" fill="#f7f8f9" stroke-width="0" /><path d="M311.342 51.679c-1.36.013-3.305.117-3.817 1.646-.117 1.537 1.835 1.775 2.886 2.257 2.163.68 4.601 2.078 6.84.846 1.087-.547 2.621-1.815 1.74-3.137-1.35-1.347-3.487-1.252-5.254-1.523a26.028 26.028 0 0 0-2.395-.09z" fill="#ff8dff" stroke-width=".177" /><path d="M142.735 393.256c-.95-.95-.606-3.205 1.406-9.198 2-5.96 2.495-9.84 1.254-9.84-1.051 0-4.714 3.715-9.075 9.201-2.144 2.698-4.706 5.113-5.692 5.368-4.283 1.106-3.04-1.831 4.178-9.88 2.89-3.223 7.318-8.98 9.842-12.794l4.587-6.934-1.934-1.793c-1.064-.986-2.553-1.911-3.309-2.057-1.82-.35-3.345-3.5-3.338-6.892.006-3.16 2.45-8.973 4.843-11.523 1.975-2.104.929-2.276-3.7-.608-4.405 1.587-23.207 1.635-25.614.065-.951-.62-3.48-1.519-5.62-1.996-2.14-.478-5.615-1.929-7.721-3.225s-4.486-2.406-5.289-2.466c-.803-.06-1.46-.446-1.46-.855 0-.41-.216-.53-.48-.265-.669.669-8.161-3.344-8.657-4.636-.223-.579-.83-1.053-1.352-1.053-.52 0-1.711-.879-2.645-1.953-.934-1.074-2.029-1.953-2.432-1.953-.404 0-.93-.616-1.168-1.368-.24-.752-1.52-1.848-2.846-2.435s-2.793-1.905-3.26-2.93c-.466-1.023-1.26-1.861-1.763-1.861-2.275 0-6.88-7.982-11.318-19.62-1.96-5.14-1.97-12.02-.016-12.02.8 0 1.32 1.118 1.638 3.515.435 3.279 1.967 7.164 6.624 16.804 1.622 3.359 8.844 11.578 14.004 15.94 5.037 4.257 9.136 7.04 13.281 9.02 2.578 1.231 5.215 2.528 5.86 2.882a129.93 129.93 0 0 0 3.515 1.811c1.29.642 2.871 1.487 3.516 1.877.644.39 3.457 1.455 6.25 2.367 8.905 2.908 19.907 2.272 42.017-2.429 3.114-.662 4.351-.653 5.04.035 1.188 1.189.323 1.936-4.185 3.612-4.487 1.668-10.143 7.401-11.966 12.128-1.146 2.97-1.204 3.942-.387 6.42.53 1.605 1.272 2.728 1.649 2.495.376-.232 3.04-.436 5.92-.453 4.38-.025 6.29-.517 11.682-3.008 7.376-3.408 10.323-5.625 19.428-14.615 6.983-6.895 8.976-9.573 7.122-9.573-1.284 0-3.391-2.227-3.779-3.994-.23-1.05-1.346-.739-6.752 1.884-5 2.426-6.687 2.93-7.404 2.214-1.046-1.047-.09-3.157 1.823-4.022 5.812-2.629 14.862-7.943 16.76-9.84 1.027-1.027 2.635-1.867 3.575-1.867 2.948 0 8.565-3.347 11.113-6.62 1.346-1.73 5.269-6.173 8.716-9.872 3.448-3.699 8.121-8.865 10.386-11.48 2.265-2.616 6.1-6.269 8.522-8.118 5.711-4.361 11.7-13.747 17.851-27.973 6.926-16.02 8.608-18.636 10.66-16.583.563.562.291 2.207-.882 5.342-1.96 5.241-12.026 25.488-14.192 28.55-.807 1.14-1.467 2.22-1.467 2.4 0 .18 2.03-.648 4.512-1.839 2.726-1.308 6.574-2.377 9.72-2.699 4.494-.46 5.666-.296 8.573 1.202 7.93 4.088 8.878 6.606 6.17 16.383-2.593 9.356-4.607 12.296-12.157 17.753l-2.323 1.679 4.666.532c2.567.293 5.243.691 5.948.885 1.97.541 9.254 8.153 10.912 11.403 2.851 5.589 1.098 21.093-2.93 25.905-7.46 8.914-21.566 13.612-38.36 12.777-15.697-.781-25.218-4.777-32.616-13.69-2.694-3.245-4.307-5.923-4.315-7.162-.018-3.027-.873-3.684-4.34-3.334-2.703.273-3.404.74-4.687 3.123-2.532 4.705-13.184 15.729-18.038 18.668-6.577 3.982-16.57 8.963-20.125 10.03l-3.062.92-2.192 8.135c-1.205 4.475-2.202 9.718-2.215 11.651-.013 1.934-.883 5.977-1.934 8.985-1.765 5.052-3.197 6.734-4.566 5.365zm111.897-46.76c10.386-2.185 19.911-7.365 22.286-12.121 1.532-3.067 3.02-13.576 2.455-17.34-.673-4.494-2.803-7.86-6.808-10.761-3.137-2.273-3.592-2.368-11.354-2.368-6.61 0-8.086.21-8.086 1.154 0 1.607-2.913 3.287-6.774 3.907-2.996.482-3.279.378-3.516-1.292-.204-1.44-.742-1.816-2.6-1.816-1.824 0-2.344-.347-2.344-1.562 0-1.189.531-1.57 2.221-1.595 1.256-.018 2.546-.612 2.969-1.367.423-.756 1.682-1.335 2.903-1.335 4.081 0 11.85-3.741 17.13-8.25 5.69-4.856 6.467-6.021 8.359-12.53 2.481-8.534 1.86-10.339-4.245-12.336-8.987-2.94-21.373 2.846-30.979 14.47-2.964 3.587-7.147 8.215-9.296 10.285l-3.906 3.764 3.729-2.075c2.05-1.141 4.248-1.876 4.882-1.632 1.835.704 1.34 2.803-.858 3.639-1.106.42-3.607 1.862-5.556 3.203-1.95 1.341-4.493 2.513-5.654 2.605-1.314.103-3.566 1.573-5.967 3.894-2.122 2.05-4.648 4.257-5.615 4.904-2.931 1.961-2.024 2.558 3.906 2.571 6.167.013 8.107.71 7.365 2.644-.36.937-1.611 1.264-4.997 1.305-2.484.03-5.105.294-5.825.586-2.085.846.1 3.095 3.303 3.4 2.087.198 2.693.608 2.693 1.819 0 1.33-.599 1.597-4.028 1.796l-4.028.233.785 2.844c.432 1.565 2.363 4.8 4.29 7.189 3.953 4.9 11.588 9.565 19.387 11.846 5.888 1.722 16.439 1.865 23.773.322zm-39.506-39.074c-.674-1.758.266-3.516 1.88-3.516.788 0 1.765-.327 2.174-.728 1.369-1.343 5.352-1.333 5.63.015.17.822-1.094 1.939-3.756 3.32-4.634 2.404-5.314 2.508-5.928.909zm-20.215 11.133c.518-2.041.835-3.711.704-3.711-.369 0-4.209 6.707-4.209 7.352 0 .316.577.461 1.282.322.795-.156 1.64-1.661 2.223-3.963zm7.042-3.711c-.265-.43-1.537-.781-2.826-.781-1.364 0-2.142.326-1.861.78.265.43 1.537.782 2.826.782 1.364 0 2.142-.327 1.861-.781zm-31.64 19.87c0-1.18 1.733-3.464 2.629-3.464.557 0 2.741-.877 4.855-1.95 4.61-2.339 6.578-2.491 6.578-.51 0 1.028-1.548 2.161-5.336 3.907-4.867 2.243-8.726 3.136-8.726 2.017zm177.853-2.097c-4.162-6.721-11.741-17.825-15.549-22.78-1.611-2.096-2.93-4.177-2.93-4.624 0-.446-2.012-4.138-4.472-8.204-4.855-8.025-9.286-19.511-10.546-27.343-.682-4.235-.557-5.857.874-11.328.918-3.512 2.037-9.549 2.486-13.416a927.986 927.986 0 0 1 1.598-12.89c.43-3.223 1.09-11.837 1.467-19.141.377-7.305 1.047-15.391 1.489-17.97.442-2.577.996-8.026 1.233-12.108.236-4.083 1.11-10.41 1.941-14.063 1.087-4.772 1.26-6.728.617-6.951-.492-.171-1.74-1.156-2.772-2.188-2.179-2.179-1.887-5.385.652-7.167 1.803-1.266 1.917-3.035.33-5.132-.63-.834-1.146-2.131-1.146-2.882 0-1.004-.569-1.326-2.148-1.218-2.827.194-3.343-2.565-.93-4.978 1.506-1.506 1.608-2.036.87-4.54-2.034-6.896-1.994-10.654.163-15.214 2.052-4.336 2.407-6.502 1.576-9.6-.709-2.64-3.096-1.39-5.957 3.122-1.4 2.207-2.81 4.654-3.133 5.436-.717 1.733-3.988 1.498-4.332-.312-.13-.679 1.004-3.036 2.519-5.238 2.112-3.07 2.608-4.4 2.125-5.703-.545-1.473-1.214-.67-5.013 6.018-3.459 6.09-4.918 9.78-6.909 17.485-1.388 5.37-3.653 12.578-5.033 16.015-1.38 3.438-2.958 8.36-3.507 10.938-.55 2.578-1.459 5.068-2.021 5.532-.562.465-1.255 2.399-1.54 4.297-.862 5.754-3.943 15.72-6.132 19.836-1.135 2.136-2.795 6.354-3.687 9.375-2.074 7.02-5.104 13.36-7.913 16.56-1.844 2.1-2.127 2.963-1.706 5.205.324 1.728.173 2.892-.422 3.26-1.361.841-3.11-1.283-3.614-4.39-.37-2.278.01-3.304 2.353-6.375 3.03-3.97 4.31-6.643 7.167-14.98 1.913-5.58 1.94-6.763.123-5.254-1.323 1.098-6.466.315-7.7-1.172-.706-.85-.705-2.037 0-5.095.507-2.192.777-4.13.602-4.305-.175-.176-2.122.79-4.327 2.147-6.253 3.848-7.863 2.208-4.466-4.55 1.018-2.027 2.117-4.564 2.44-5.638l.59-1.953-2.084 1.925c-1.644 1.519-2.365 1.749-3.421 1.089-.955-.596-1.729-.59-2.699.022-.999.63-1.753.613-2.836-.063-.81-.507-2.218-.727-3.127-.489-2.274.595-2.136-.812.691-7.047 1.29-2.843 2.344-5.36 2.344-5.595 0-.234-.859.137-1.908.825-2.352 1.54-5.409 1.208-5.758-.626-.173-.907.48-1.646 1.945-2.2 3.3-1.25 5.637-3.78 7.74-8.374 1.97-4.304 3.71-5.691 5.232-4.17.673.674.638 1.523-.143 3.424-.57 1.39-1.344 4.99-1.719 7.997-.374 3.008-.867 6.507-1.094 7.775l-.413 2.306 2.424-2.306c1.333-1.268 3.543-4.213 4.911-6.543 1.368-2.33 2.883-4.37 3.367-4.53.484-.162 1.66.8 2.612 2.138l1.732 2.433-1.573 1.707c-1.197 1.3-1.655 3.11-1.917 7.567-.19 3.223-.597 6.563-.906 7.422-.309.86.12.332.953-1.172.832-1.504 1.754-3.852 2.049-5.22.67-3.112 1.788-4.052 5.145-4.328 2.121-.174 2.713.095 2.963 1.345.172.86.802 1.844 1.4 2.188.852.491.99 2.088.643 7.422l-.443 6.796 2-3.125c1.1-1.718 2.206-4.355 2.457-5.86.251-1.503.94-4.02 1.532-5.593.928-2.468.92-2.919-.063-3.296-1.666-.639-1.413-2.979 1.208-11.159l2.344-7.32-1.65-5.651c-.908-3.109-1.73-7.761-1.827-10.34-.236-6.255-1.402-8.816-4.628-10.165-4.465-1.865-7.583-4.942-7.072-6.977.538-2.144-1.164-4.039-5.283-5.883-1.612-.721-3.692-2.28-4.623-3.464-1.642-2.087-1.893-2.144-8.367-1.92-4.717.162-6.767-.048-6.99-.72-.41-1.227-6.468-1.236-10.542-.015-2.71.812-3.241.76-4.083-.39-1.28-1.752-3.065-1.631-8.11.546-3.409 1.47-3.882 1.888-2.539 2.239 1.132.296 1.65 1.054 1.65 2.412 0 2.274-1.2 3.324-2.573 2.252-2.112-1.649-4.456-1.62-5.638.069-1.072 1.53-1.034 1.718.462 2.27 2.437.903 1.375 2.526-1.83 2.799-2.193.186-3.01-.118-3.677-1.365-.828-1.546-.947-1.503-3.293 1.168-1.815 2.068-2.95 2.713-4.466 2.537-2.747-.32-2.737-3.002.016-4.322 1.127-.54 2.487-1.51 3.023-2.156.536-.646-.64-.271-2.616.833-4.11 2.297-7.054 2.273-7.322-.06-.14-1.213.89-2.067 4.605-3.82l4.785-2.259-2.652-1.28c-7.139-3.444-12.466-4.005-14.137-1.488-.776 1.169-1.564 1.532-2.524 1.163-1.13-.433-1.297-1.067-.873-3.324l.523-2.789-8.446.258c-8.01.245-8.445.177-8.445-1.305 0-1.184.6-1.62 2.48-1.803 3.422-.331 4.787-2.068 3.096-3.937-.703-.778-1.28-1.759-1.28-2.18 0-.422-1.096-1.889-2.436-3.26-1.827-1.868-3.124-2.491-5.188-2.491-3.292 0-10.645 3.356-8.313 3.795 2.362.444 3.438 1.7 3.438 4.017 0 3.085-1.668 4.158-5.464 3.517l-3.174-.537 1.339 2.807c1.539 3.228 3.61 3.616 8.466 1.586 3.295-1.376 5.322-.983 4.945.96-.278 1.434-2.824 3.148-8.942 6.02-2.2 1.033-4.243 2.27-4.538 2.747-1.628 2.635-9.264-.447-11.517-4.648-3.765-7.02.366-23.221 7.525-29.507 3.741-3.285 5.416-3.648 16.828-3.648 9.553 0 14.343.934 15.792 3.08.307.455.981.826 1.5.826.517 0 1.497.902 2.176 2.004.68 1.103 2.01 3.189 2.955 4.636 1.856 2.84 3.059 9.695 2.26 12.877-.522 2.08-.639 2.027 5.072 2.313 2.673.133 7.762 1.687 13.995 4.271l5.079 2.106 3.23-1.807c1.776-.995 5.593-2.391 8.481-3.104l5.252-1.296-.504-3.792c-.496-3.742-.433-3.885 4.69-10.745 5.898-7.9 6.869-8.447 17.522-9.89 1.504-.203 4.97-.686 7.703-1.073 2.732-.387 6.684-.5 8.782-.251 3.458.41 4.143.851 7.337 4.73 1.937 2.353 3.522 4.64 3.522 5.08 0 .44.486 1.19 1.08 1.668 1.938 1.558 4.389 11.304 4.389 17.456 0 5.704-.672 8.022-2.997 10.348-1.063 1.063-1.03 1.217.318 1.461.83.15 2.334 1.03 3.344 1.953 2.187 2 7.3 11.814 6.547 12.567-.29.29-.103.788.415 1.108.518.32 1.136 2.13 1.374 4.023.238 1.893.561 3.57.719 3.728.157.157.866-2.263 1.574-5.378 1.633-7.179 5.314-15.091 10.495-22.562 4.515-6.51 4.425-5.738 2.32-19.93-1.116-7.528-1.68-8.68-4.54-9.251-3.512-.703-9.413-5.848-9.413-8.207 0-2.217 1.549-7.94 2.488-9.194.444-.593-.503-1.027-2.988-1.368-4.817-.66-5.75-1.579-5.75-5.66 0-3.127-.259-3.574-3.113-5.376-3.555-2.244-7.426-8.897-6.632-11.399.267-.842-.088-3.257-.789-5.367-.701-2.11-1.166-5.531-1.034-7.602.202-3.163.49-3.764 1.803-3.764 1.258 0 1.658.684 2.054 3.515.27 1.934.885 4.744 1.367 6.245.482 1.501.875 4.03.875 5.62 0 2.912 2.64 8.448 4.028 8.448.411 0 1.695 1.037 2.852 2.304 2.06 2.255 2.159 2.278 4.628 1.082 2.905-1.407 7.845-.855 8.539.954.594 1.548 6.785 1.515 8.079-.043.534-.645 1.632-1.172 2.439-1.172.807 0 2.17-.703 3.03-1.563 1.966-1.967 3.29-1.975 5.051-.029 1.714 1.894 1.039 4.238-1.031 3.581-.843-.267-1.872.04-2.444.728-.543.654-1.802 1.189-2.798 1.189-2.193 0-3.297 1.476-1.809 2.42.593.374 2.547.686 4.343.693 2.76.01 3.305-.251 3.516-1.685.316-2.148 4.07-3.577 5.744-2.187 1.516 1.257 1.463 4.652-.09 5.787-1.122.82-1.112 1.16.102 3.706 2.009 4.212 1 10.916-2.135 14.193-2.108 2.204-2.307 2.825-1.887 5.893.257 1.886.468 4.597.468 6.024 0 1.427.44 2.952.977 3.388 4.2 3.415 5.988 5.52 6.777 7.988.504 1.573 1.426 3.056 2.05 3.296.624.24 1.134.835 1.134 1.324 0 .488.882 1.582 1.96 2.43 1.079.849 1.776 1.842 1.55 2.207-.226.366-.039.895.415 1.175.964.596.272 3.352-1.29 5.135-.938 1.072-.87 1.435.492 2.668 1.382 1.25 1.521 2.065 1.123 6.572-.25 2.83-1.011 6.465-1.691 8.077-1.132 2.685-1.127 3.429.055 8.812.71 3.233 1.292 7.385 1.292 9.227 0 3.058.238 3.462 2.735 4.653 2.37 1.13 2.734 1.675 2.734 4.088 0 3.773-2.62 6.057-9.63 8.394-5.562 1.854-5.592 1.88-6.639 5.585-.99 3.508-.953 3.828.648 5.532 2.287 2.435 1.776 4.73-1.011 4.536-1.601-.111-2.118.21-2.118 1.315 0 .803.742 1.697 1.649 1.985 2.32.736 10.174 8.783 11.912 12.205 2.047 4.03 11.948 15.326 16.351 18.654 2.034 1.537 5.54 3.444 7.792 4.236 8.755 3.083 12.191 5.864 8.836 7.151-1.302.5-9.592-2.381-14.139-4.913-7.244-4.035-20.14-17.275-22.693-23.298l-.993-2.344-.823 2.148c-.886 2.317-2.269 2.727-3.944 1.172-2.575-2.39.598 1.801 6.731 8.89 6.368 7.362 8.243 11.262 5.141 10.696-1.32-.241-8.865-7.907-14.07-14.295-1.392-1.71-2.531-2.61-2.531-2.004 0 .608.74 1.893 1.646 2.857 1.814 1.931 5.508 11.285 5.672 14.364.077 1.455-.287 1.953-1.429 1.953-1.656 0-2.48-1.35-5.197-8.51-1.52-4.01-1.829-4.383-2.382-2.887-.424 1.146.05 4.192 1.425 9.147 1.865 6.722 2.483 7.894 6.504 12.331 2.443 2.697 6.127 7.735 8.187 11.197 6.224 10.464 14.772 16.173 34.203 22.842 12.547 4.306 13.87 4.96 13.87 6.858 0 .963-.721 1.08-3.974.65-2.186-.29-4.559-.844-5.273-1.23-.715-.387-4.288-1.635-7.94-2.773-9.314-2.902-20.531-8.6-25.217-12.808-2.184-1.962-5.9-6.555-8.257-10.206-2.357-3.652-6.114-8.574-8.35-10.938-2.234-2.364-4.603-5.349-5.262-6.633l-1.2-2.335-.474 3.507c-2.25 16.62-2.747 20.648-3.182 25.773-.274 3.222-.976 7.792-1.56 10.156-2.004 8.118 2.005 21.325 10.197 33.594 1.579 2.363 3.35 5.644 3.935 7.291.586 1.648 2.503 4.988 4.26 7.422 1.758 2.435 5.23 7.24 7.717 10.677 5.39 7.451 7.344 11.079 6.771 12.57-.638 1.663-2.643 1.323-3.868-.656zm-74.195-162.451c-.25-.623-.434-.438-.472.472-.034.824.15 1.285.41 1.025s.288-.933.062-1.497zm63.52-24.658c-.013-4.415-.885-8.812-1.653-8.337-.375.232-.682 1.912-.682 3.734 0 1.823-.398 3.712-.885 4.199-1.259 1.259-.237 3.333 1.642 3.333 1.315 0 1.586-.502 1.578-2.93zm-6.764-2.02c.288.287.523-1.384.523-3.715 0-2.33.333-5.399.74-6.82.626-2.179.548-2.545-.495-2.338-.945.187-1.281 1.402-1.427 5.163-.105 2.705-.41 5.136-.676 5.403-.267.267-.486-.238-.486-1.123s-.527-1.812-1.172-2.06c-1.318-.505-1.62-4.816-.39-5.576.43-.266.781-.776.781-1.135 0-.729-2.388-1.816-2.889-1.315-.176.177.283 3.703 1.021 7.836 1.238 6.93 1.444 7.423 2.645 6.336.717-.648 1.538-.944 1.825-.656zm-37.288-5.672c-.622-1.62-2.033-1.333-2.033.414 0 .832.423 2.502.94 3.711l.941 2.2.287-2.614c.157-1.437.097-3.107-.135-3.71zm-.898-8.324c-.768-3.532-1.887-6.344-2.342-5.89-.617.618 1.408 8.43 2.185 8.43.392 0 .462-1.134.157-2.54zm40.076-2.604c.967-.196 1.758-.798 1.758-1.339 0-.54.737-1.614 1.637-2.384.9-.771 1.512-1.526 1.36-1.678-.151-.152-2.382.212-4.957.808-4.261.987-7.415 3.15-7.415 5.086 0 .593 3.29.38 7.617-.493zm-44.583-9.847c-.25-.623-.435-.438-.472.472-.034.824.15 1.285.41 1.025s.287-.933.062-1.497zm48.25-.74c1.904-1.497 1.999-1.79.927-2.863-.862-.862-1.478-.965-2.21-.371-.56.453-2.015.818-3.235.812-1.22-.006-2.802.572-3.515 1.286-1.141 1.141-1.156 1.387-.126 2.039 2.012 1.272 5.948.837 8.16-.903zm-51.143-4.21c-.544-.655-1.15-1.03-1.346-.834-.542.542.559 2.024 1.503 2.024.518 0 .459-.448-.157-1.19zm49.31-3.276c3.13-1.848 3.697-4.057 1.5-5.837-2.415-1.955-3.673-1.782-6.324.868-2.16 2.16-2.914 4.637-1.762 5.79.953.952 4.287.537 6.586-.82zm-55.399-4.466c3.25-1.358 4.542-3.939 4.542-9.07 0-4.31-2.582-12.641-4.803-15.502-.796-1.024-1.447-2.271-1.447-2.77 0-.5-1.384-2.26-3.076-3.912l-3.075-3.003-8.839.952c-4.86.524-10.71 1.508-12.996 2.188-3.64 1.082-4.482 1.744-6.772 5.324-3.734 5.837-4.88 8.226-5.479 11.415-.498 2.658-.425 2.788 1.372 2.444 1.116-.213 2.41.149 3.139.877 1.972 1.972 2.854 1.48 2.397-1.337-.53-3.267 1.506-8.361 3.341-8.361.738 0 1.11-.232.826-.516-1.151-1.151 10.726-7.297 14.102-7.297 2.873 0 8.32 3.818 9.954 6.977 1.566 3.029 1.566 11.141.002 14.168-1.157 2.238-1.112 2.426 1.302 5.43 1.376 1.712 2.575 3.113 2.666 3.113.09 0 1.37-.504 2.845-1.12zm46.984-3.549c2.605-3.095 3.486-7.034 1.786-7.985-.693-.388-1.26-1.215-1.26-1.838s-.542-1.133-1.205-1.133c-1.232 0-5.824 8.673-5.825 11.002-.002 3.128 3.857 3.1 6.504-.046zm-172.911-.41c.535-.644.643-1.171.24-1.171-1.402 0-3.365-5.55-3.365-9.517 0-3.443.395-4.476 2.866-7.492 6.249-7.626 16.819-8.723 23.11-2.4.753.756 1.368 1.801 1.368 2.322 0 1.497 2.443 3.805 4.027 3.805.92 0 1.442.565 1.442 1.563 0 2.03.297 1.975 2.785-.513 1.909-1.908 2.006-2.308 1.214-4.951-.473-1.581-1.567-3.514-2.43-4.296-.863-.78-1.58-1.805-1.594-2.275-.03-1.05-2.697-2.98-5.835-4.222-3.579-1.416-15.08-1.657-18.728-.391-5.282 1.832-7.715 4.928-11.316 14.402-2.607 6.86-1.716 12.998 2.197 15.124 2.627 1.427 2.845 1.427 4.019.013zm115.996-5.82c1.395-2.698 1.547-6.998.34-9.646-.998-2.192-7.03-5.379-8.48-4.482-.702.433-.738.77-.127 1.147 1.635 1.01.945 5.426-1.078 6.898-2.787 2.027-8.392 2.633-9.707 1.05-.573-.69-1.35-1.256-1.727-1.256-.828 0-.895 3.953-.088 5.145.316.466 4.617 1.39 9.558 2.052 4.942.663 9.24 1.248 9.55 1.3.312.054 1.103-.94 1.759-2.208zm48.947-.84c-.137-2.791-1.258-7.011-1.864-7.011-.47 0-.59 1.17-.3 2.93.267 1.61.489 3.398.494 3.97.005.574.386.916.848.763.462-.154.832-.447.822-.652zm4.039-7.872-.526-6.17a433.849 433.849 0 0 1-.427-5.257c-.046-.725-.513-.754-1.912-.116-2 .91-1.968 1.762.4 10.675.927 3.49 2.741 4.13 2.465.868zm-65.806.833c.831-.445 1.512-1.394 1.512-2.11 0-1.01-.209-1.091-.938-.362-.516.515-1.533.937-2.26.937-.728 0-1.525.528-1.773 1.172-.529 1.38 1.218 1.563 3.46.363zm60.105-3.097c0-.43-.372-.781-.827-.781-.455 0-.61.351-.345.78.266.43.638.782.828.782.19 0 .344-.352.344-.781zm2.295-16.927c3.365-3.822 4.257-5.916 3.825-8.97-.171-1.209-.862-1.923-2.018-2.087-1.605-.228-1.758.064-1.758 3.345 0 4.714-1.743 5.545-4.604 2.196-3.622-4.24-8.568-3.82-8.652.736-.04 2.187 6.394 7.85 9.479 8.343.285.045 1.963-1.558 3.728-3.563zm7.818-2.116c-.19-.184-1.013.597-1.827 1.736l-1.48 2.072 1.827-1.736c1.005-.955 1.671-1.887 1.48-2.072zm-8.972-9.354c.915-.668 1.135-1.24.605-1.568-1.6-.99-7.812-1.465-9.174-.703-1.156.647-.834.953 2.052 1.947 4.486 1.546 4.823 1.563 6.517.324zm-13.943-3.635c1.823 0 2.212-2.304.596-3.528-1.987-1.504-2.383-1.435-2.892.51-.388 1.487-.798 1.612-3.726 1.144-2.845-.455-3.16-.37-2.331.628.98 1.18 4.316 1.999 6.18 1.516.572-.148 1.55-.27 2.173-.27zM44.839 328.582c-.257-.67-.04-3.001.481-5.178.523-2.176.757-4.15.522-4.385-.236-.236-.672.866-.968 2.448-.602 3.207-2.24 4.315-3.909 2.645-.948-.947-.872-1.916.539-6.942.901-3.213 1.908-6.193 2.237-6.623.328-.43 1.402-3.418 2.385-6.64 2.287-7.496 3.621-10.157 5.09-10.157 1.652 0 2.205 1.933 1.298 4.535-.691 1.982-.599 2.205.897 2.158 1.313-.041 1.632.362 1.501 1.9-.207 2.435-5.644 24.185-6.445 25.782-.822 1.639-3.066 1.922-3.628.457zm1.788-12.322c-.249-.623-.434-.438-.472.472-.033.823.151 1.285.41 1.025.26-.26.288-.933.062-1.497zM22.69 296.525c-.735-.885-.713-1.554.1-3.07 1.677-3.128 10.829-16.296 13.098-18.846 1.148-1.289 3.338-4.277 4.867-6.64 3.663-5.664 14.538-17.893 18.05-20.3 1.56-1.069 4.079-4.151 5.732-7.014 8.363-14.487 18.665-24.94 31.15-31.608 4.49-2.398 8.562-4.36 9.047-4.36.485 0 3.296-1.619 6.247-3.598 5.357-3.595 9-7.687 14.322-16.09 3.418-5.396 3.667-7.655.844-7.655-1.087 0-2.165-.489-2.394-1.086-.24-.624-1.054-.919-1.919-.692-2.814.735-2.545-1.972.884-8.895 3.48-7.023 4.081-11.156 2.089-14.347-.68-1.087-.682-1.895-.012-3.252.49-.994 1.02-5.014 1.175-8.934.186-4.673.697-7.767 1.486-8.984.661-1.022 1.41-3.166 1.664-4.765.254-1.599 1.54-4.475 2.859-6.39 1.318-1.916 2.396-3.819 2.396-4.229 0-1.138 5.987-6.295 8.948-7.707 5.502-2.623 6.958 1.1 1.599 4.088-1.831 1.022-3.229 2.426-3.375 3.392-.137.906-.914 2.003-1.726 2.438-.812.434-2.424 2.032-3.581 3.55-1.59 2.085-1.885 2.98-1.204 3.661 1.358 1.358 1.086 3.223-.627 4.293-2.088 1.304-3.39 6.62-2.754 11.245.73 5.31 1.926 5.557 1.382.286-.36-3.486-.174-4.62.958-5.871 2.628-2.905 5.353-1.098 3.517 2.332-1.072 2.004.292 7.054 1.906 7.054 2.659 0 3.222-5.39 1.036-9.917-1.052-2.18-.31-7.905 1.222-9.438 1.482-1.481 3.636-.707 3.636 1.308 0 .994.618 1.62 1.758 1.782 1.474.21 1.718.66 1.513 2.789-.151 1.563.422 3.726 1.491 5.63 1.36 2.418 1.538 3.33.822 4.192-.711.857-.652 1.322.266 2.084 1.04.863 1.182.084 1.182-6.537 0-6.803.138-7.518 1.45-7.518 1.252 0 1.523.88 1.987 6.438.458 5.492.84 6.755 2.602 8.594 2.118 2.21 4.498 2.925 3.93 1.18-.176-.538-1.24-1.426-2.365-1.975-2.217-1.081-3.287-5.058-2.784-10.351.219-2.303.583-2.751 2.406-2.961 1.885-.217 2.155.023 2.198 1.953.05 2.191.053 2.193.798.329 1.443-3.606 6.292-9.457 7.838-9.457 2.7 0 2.557 2.208-.352 5.428-4.287 4.745-4.743 10.795-1.108 14.69.902.966 2.283 1.757 3.067 1.757 1.326 0 1.315-.112-.167-1.593-1.39-1.39-1.565-2.415-1.367-8.008.22-6.26.273-6.414 2.18-6.414 1.874 0 1.941.168 1.677 4.193-.214 3.26-.04 4.116.781 3.846.619-.204 1.219-1.943 1.447-4.194.346-3.4.618-3.872 2.352-4.075 1.211-.141 2.684-1.283 3.85-2.984 3.605-5.262 11.129-7.26 16.946-4.499 2.385 1.132 2.828 1.143 4.024.102.805-.701 3.068-1.21 5.641-1.267 4.117-.093 4.469.063 8.398 3.728 3.514 3.277 4.113 4.256 4.18 6.831.066 2.535.162 2.7.618 1.053.331-1.2 1.206-2.05 2.266-2.203 1.394-.201 1.725.133 1.725 1.742 0 2.36-2.27 8.42-3.461 9.238-.506.348-.527.577-.054.582 1.792.019 5.118-3.763 6.513-7.406 1.063-2.773 1.978-3.979 3.156-4.156 1.316-.198 1.659.155 1.659 1.707 0 1.076-.366 2.92-.813 4.096-.637 1.673-.557 2.396.365 3.318 1.05 1.05 1.349.803 2.75-2.284.863-1.904 1.578-4.429 1.587-5.61.01-1.344.44-2.149 1.145-2.149.62 0 1.637-.728 2.26-1.618.843-1.202 1.805-1.554 3.742-1.367 2.47.237 2.642.456 3.255 4.137.364 2.18.334 5.709-.068 8.04-.634 3.677-.549 4.244.734 4.93 2.722 1.458 1.692 4.942-3.91 13.222-3.753 5.549-6.12 6.675-5.747 2.734.123-1.289.317-3.398.433-4.687.115-1.29.931-3.926 1.813-5.86.881-1.933 1.863-4.337 2.18-5.34.507-1.6.4-1.73-.863-1.049-.793.428-2.293 1.688-3.335 2.802-1.042 1.114-2.548 2.025-3.346 2.025-.8 0-3.2.885-5.335 1.967-2.818 1.428-5.007 1.94-7.982 1.87-2.255-.054-5.9.156-8.1.466-2.667.376-4.179.273-4.538-.307-.296-.48-1.551-.871-2.79-.871-1.238 0-2.44-.306-2.67-.679-.231-.373-1.834-.905-3.562-1.181-4.09-.654-4.04-2.13.165-4.926 5.656-3.76 12.453-10.999 12.173-12.965-.565-3.979-6.719-1.77-9.089 3.263-1.492 3.168-4.048 4.272-4.048 1.747 0-.865-.383-1.81-.851-2.1-.506-.312-.656-1.568-.37-3.094.674-3.59-1.008-5.065-5.773-5.065-3.195 0-4.123.373-6.194 2.492-2.65 2.71-3.128 4.888-1.233 5.615.837.321 1.153 1.36 1.035 3.404-.178 3.09.764 5.516 2.797 7.203 1.512 1.256 1.577 4.231.117 5.442-.68.565-1.942.69-3.32.328-1.223-.32-2.783-.499-3.466-.396-.684.103-2.19-.174-3.348-.614-1.664-.633-2.797-.475-5.407.752-2.543 1.195-4.647 1.508-9.152 1.358-4.438-.147-6.077.09-6.788.978-.83 1.036-1.222 1.014-3.383-.194-1.523-.852-3.18-1.182-4.398-.876-1.335.334-2.64-.017-4.116-1.109l-2.163-1.598-1.37 1.599c-2.471 2.887-6.73 12.596-5.893 13.434 1.255 1.254.905 2.818-1.182 5.3-1.077 1.28-1.727 2.702-1.443 3.16.283.459-.114 1.294-.884 1.856-1.118.819-1.476 2.513-1.788 8.476-.377 7.212-.336 7.452 1.28 7.452 1.393 0 1.668-.461 1.668-2.797 0-3.3 4.222-15.706 6.022-17.695 1.458-1.611 3.243-1.803 3.773-.406.203.537-.649 3.965-1.894 7.617l-2.265 6.64 2.456 2.156c5.164 4.534 11.125 5.63 17.46 3.21 2.697-1.03 3.563-1.086 4.518-.294.649.538 1.18 1.402 1.18 1.92 0 1.282-3.114 4.035-5.325 4.707-.995.302-3.02 1.612-4.5 2.912-1.921 1.687-2.97 2.139-3.66 1.578-.65-.528-2.325-.504-5.11.074-3.146.653-4.506.633-5.654-.084-.83-.52-3.396-.944-5.7-.944-3.361 0-4.871.461-7.629 2.33-3.814 2.584-5.235 2.892-5.857 1.27-.331-.863-1.175-.672-4.077.926-2.013 1.109-4.714 2.785-6.003 3.726-1.29.941-3.609 2.115-5.154 2.61-1.546.494-4.534 1.993-6.64 3.33-2.108 1.338-5.239 3.037-6.958 3.775-1.72.739-4.935 2.887-7.145 4.774-7.426 6.342-18.244 20.505-18.244 23.886 0 .863-.74 2.237-1.642 3.055-.904.817-2.169 2.503-2.812 3.747-1.618 3.13-3.489 15.09-2.914 18.64.374 2.313.196 3.034-.846 3.434-2.256.866-2.842-1.322-2.399-8.96.249-4.284.127-7.182-.295-7.032-.394.14-1.529 1.38-2.522 2.755-.992 1.375-5.496 6.5-10.007 11.391-5.02 5.44-10.46 12.43-14.015 18.008-3.196 5.014-6.23 9.116-6.74 9.116-.511 0-1.352-.509-1.868-1.131zm108.27-131.093c1.062-2.056.96-2.247-1.31-2.463-.955-.091-3.956 6.215-3.28 6.891.648.647 3.276-1.889 4.59-4.428zm2.707-12.546c-.619-.619-.854-.416-.854.734 0 2.065 1.092 3.162 1.44 1.445.148-.728-.116-1.71-.586-2.18zm85.215-13.236 1.803-2.54-2.281 1.786c-1.255.983-2.79 2.514-3.413 3.402-1.062 1.517-1.033 1.563.478.754.885-.474 2.421-2.005 3.413-3.402zm176.806 91.28c-1.48-1.097-1.488-1.208-.166-2.549 1.65-1.672 4.087-.615 4.087 1.772 0 1.872-1.927 2.254-3.921.777zm-198.227-33.712c-.322-.332-.586-1.424-.586-2.426 0-1.685.32-1.823 4.213-1.823 4.747 0 5.989-1.29 3.99-4.144-.644-.92-1.172-2.579-1.172-3.686 0-1.108-.394-2.408-.876-2.89-1.08-1.081-1.288-6.401-.443-11.35l.634-3.712h-3.572c-1.991 0-5.105.721-7.036 1.629-6.913 3.25-8.64.215-3.544-6.231 4.408-5.577 7.3-6.864 13.086-5.824 2.467.444 5.052 1.056 5.743 1.361.81.357 2.104-.157 3.629-1.44 4.009-3.373 7.884-1.978 6.985 2.515-.42 2.102-.348 2.154 2.63 1.87 5.237-.5 5.254 3.577.027 6.247-1.399.715-2.67 1.427-2.828 1.584-.156.157.001 2.385.35 4.951.462 3.39.326 5.711-.496 8.487-.623 2.1-.952 4.511-.73 5.357.612 2.344-.624 4.758-3.598 7.027-2.216 1.69-3.857 2.147-9.257 2.578-3.61.288-6.827.252-7.15-.08zm-55.772-35.89c-.732-1.908.174-3.184 3.325-4.679 4.067-1.93 8.911-2.363 10.777-.964 2.557 1.917 1.032 3.423-4.049 3.998-2.551.289-5.306 1.03-6.12 1.646-1.929 1.46-3.373 1.46-3.933 0zm130.601-1.132c-.252-.408.255-2.858 1.126-5.444 1.962-5.826 2.085-7.703.412-6.315-1.984 1.648-3.516-.408-3.516-4.719 0-4.495.57-6.218 2.057-6.218 1.353 0 2.631 3.144 2.631 6.475 0 2.455.005 2.458 1.216.73 1.36-1.942 3.31-2.283 3.923-.687.222.578-.312 3.63-1.185 6.782-1.885 6.8-1.646 7.96.441 2.153 1.114-3.098 1.87-4.125 3.036-4.125 1.27 0 1.538.498 1.467 2.735-.112 3.55-2.217 8.477-3.898 9.122-.805.309-1.696-.008-2.286-.815-.845-1.156-1.024-1.172-1.425-.127-.505 1.314-3.273 1.628-3.999.453zm-83.423-5.173c-.322-.328-.586-.884-.586-1.236 0-1.099 5.514-3.006 8.69-3.006 2.71 0 3.029.206 3.029 1.953 0 1.532-.398 1.954-1.844 1.954-1.014 0-3.387.209-5.274.465-1.886.256-3.693.197-4.015-.13zM297.317 27.68c-3.479-1.285-5.91-3.222-5.91-4.708 0-1.795 1.583-2.045 3.745-.592 1.162.782 3.462 2.04 5.111 2.794 1.689.774 2.854 1.802 2.67 2.357-.469 1.406-2.093 1.45-5.616.149zm-10.336-6.248c-.258-.674-.048-1.64.468-2.149.723-.713 1.193-.577 2.057.593.881 1.194.911 1.648.142 2.136-1.46.927-2.146.778-2.667-.58z" stroke-width=".781" /></svg>