<?xml version="1.0" standalone="no"?>
<!DOCTYPE svg PUBLIC "-//W3C//DTD SVG 20010904//EN"
 "http://www.w3.org/TR/2001/REC-SVG-20010904/DTD/svg10.dtd">
<svg version="1.0" xmlns="http://www.w3.org/2000/svg"
 width="700.000000pt" height="700.000000pt" viewBox="0 0 700.000000 700.000000"
 preserveAspectRatio="xMidYMid meet">
<metadata>
Created by potrace 1.14, written by Peter Selinger 2001-2017
</metadata>
<g transform="translate(0.000000,700.000000) scale(0.100000,-0.100000)"
fill="#000000" stroke="none">
<path d="M3315 6993 c-60 -2 -117 -6 -125 -10 -8 -4 -37 -8 -65 -9 -80 -4
-219 -24 -229 -35 -6 -5 -22 -9 -37 -9 -31 0 -96 -13 -214 -42 -44 -11 -105
-26 -135 -33 -74 -17 -232 -71 -294 -100 -28 -13 -64 -27 -81 -31 -16 -4 -46
-17 -66 -30 -20 -13 -39 -21 -42 -18 -2 3 -31 -10 -63 -27 -33 -18 -90 -49
-129 -69 -150 -79 -173 -93 -272 -163 -198 -141 -239 -173 -353 -272 -172
-150 -251 -228 -295 -288 -22 -31 -48 -59 -57 -64 -9 -4 -27 -22 -40 -40 -13
-18 -61 -83 -108 -145 -106 -140 -210 -295 -210 -313 0 -8 -6 -18 -14 -22 -8
-4 -15 -10 -15 -13 0 -3 -4 -18 -10 -33 -6 -16 -11 -33 -11 -38 0 -5 -4 -9 -9
-9 -6 0 -23 -26 -39 -57 -16 -32 -40 -78 -54 -103 -13 -25 -37 -76 -52 -115
-16 -38 -40 -95 -54 -125 -22 -49 -49 -129 -56 -170 -4 -19 -15 -51 -25 -70
-5 -8 -16 -49 -26 -90 -10 -41 -24 -93 -31 -115 -8 -22 -19 -78 -25 -125 -6
-47 -15 -94 -21 -105 -6 -11 -13 -51 -16 -90 -2 -38 -8 -75 -13 -81 -5 -6 -9
-33 -9 -60 0 -27 -4 -114 -9 -194 -9 -146 -5 -462 7 -490 4 -8 7 -51 8 -95 1
-117 33 -287 95 -515 50 -181 60 -215 68 -230 5 -9 12 -31 16 -50 4 -19 20
-61 36 -92 16 -32 29 -67 29 -78 0 -11 7 -20 15 -20 8 0 17 -15 21 -37 4 -21
17 -51 29 -68 12 -16 32 -49 45 -72 20 -37 21 -45 11 -71 -16 -38 0 -72 32
-71 17 0 47 38 135 172 62 95 142 206 178 247 136 155 259 289 267 290 4 0 7
-53 7 -118 0 -126 10 -157 46 -150 17 3 19 13 20 98 1 144 37 286 87 346 19
21 37 54 40 73 8 38 94 165 176 260 114 130 198 202 271 231 19 8 63 31 96 51
34 20 97 54 140 74 43 19 88 44 99 54 11 10 49 33 84 51 63 31 66 32 93 16 27
-16 29 -16 81 17 29 19 70 40 90 46 44 15 117 10 164 -10 27 -11 43 -11 93 -1
45 10 65 10 81 1 18 -9 28 -6 63 21 22 17 60 40 83 51 37 17 93 70 93 87 0 10
-12 25 -31 39 -12 10 -26 9 -67 -7 -63 -24 -165 -26 -217 -5 -20 9 -58 33 -85
53 -50 38 -52 44 -31 97 28 70 59 179 54 191 -7 20 -47 18 -66 -3 -17 -20 -45
-89 -56 -143 -4 -19 -14 -46 -21 -60 -7 -14 -16 -52 -19 -85 -5 -54 -9 -60
-30 -63 l-23 -4 4 127 c3 105 7 130 21 140 9 7 17 23 17 37 0 14 13 45 30 69
31 46 37 73 20 84 -6 3 -7 18 -3 33 8 34 68 160 87 181 7 9 16 24 19 34 9 24
18 22 62 -13 40 -32 64 -37 82 -19 9 9 20 6 46 -10 37 -22 72 -27 82 -11 3 6
51 10 110 10 91 0 109 3 155 26 46 23 56 25 98 15 87 -19 168 -23 179 -9 26
32 23 54 -15 113 -33 51 -38 66 -34 102 3 33 0 45 -17 59 -27 23 -27 50 0 88
48 70 123 90 196 52 38 -19 45 -37 32 -75 -8 -24 -7 -35 5 -53 9 -12 16 -30
16 -39 0 -30 33 -33 58 -4 12 15 20 31 17 36 -4 5 -1 9 5 9 6 0 8 4 5 10 -9
14 74 70 105 70 28 0 50 -16 50 -37 0 -18 -75 -121 -109 -151 -14 -13 -51 -36
-81 -51 -75 -39 -95 -62 -78 -90 7 -12 24 -24 38 -27 26 -6 107 -28 172 -46
23 -7 57 -8 90 -3 29 5 87 9 128 9 67 1 82 5 142 39 36 20 75 37 87 37 11 0
41 18 66 40 45 39 82 53 72 28 -3 -7 -13 -33 -23 -58 -10 -25 -26 -57 -37 -72
-15 -20 -18 -35 -13 -62 4 -22 1 -48 -8 -71 -8 -19 -13 -42 -10 -50 8 -21 38
-19 59 5 23 25 31 25 38 0 6 -23 50 -27 92 -8 14 6 28 8 32 5 3 -4 -12 -46
-35 -95 -23 -48 -42 -92 -42 -99 0 -15 24 -23 49 -16 12 3 27 1 34 -5 6 -5 40
-9 74 -8 54 1 66 5 92 30 41 39 39 22 -10 -84 -64 -138 -43 -172 63 -101 33
22 65 38 70 35 10 -7 3 -57 -14 -90 -7 -16 -6 -29 6 -52 19 -36 35 -47 90 -56
29 -6 43 -3 58 11 21 18 21 18 14 -22 -5 -22 -11 -44 -16 -50 -4 -5 -13 -34
-20 -62 -6 -29 -20 -63 -29 -75 -10 -13 -23 -38 -29 -57 -7 -19 -28 -54 -48
-78 -60 -73 -67 -138 -19 -183 20 -19 27 -21 40 -10 12 10 14 24 9 59 -6 43
-3 51 29 91 43 54 105 176 113 222 10 52 50 161 89 237 39 78 63 156 90 291
11 56 37 120 52 128 7 5 20 45 29 90 8 46 38 138 65 207 27 68 49 130 49 137
0 12 25 115 65 263 9 33 25 73 35 90 10 16 42 69 71 118 28 48 55 89 58 91 3
2 7 -11 8 -29 2 -23 -8 -49 -37 -94 -41 -62 -47 -85 -31 -110 14 -21 55 -6 68
26 7 15 32 55 56 88 34 47 50 61 74 63 29 3 30 3 32 -52 2 -56 -18 -110 -61
-166 -16 -21 -18 -34 -12 -90 3 -36 17 -92 30 -124 13 -33 24 -63 24 -67 0 -4
-12 -14 -27 -21 -62 -30 -51 -106 13 -93 30 5 33 3 39 -27 4 -18 15 -47 23
-65 15 -31 14 -33 -16 -68 -51 -58 -37 -114 41 -160 18 -11 18 -6 -13 -143 -6
-24 -14 -87 -20 -140 -5 -53 -14 -151 -20 -217 -6 -66 -16 -138 -22 -160 -5
-22 -16 -128 -24 -235 -25 -360 -66 -703 -95 -795 -33 -109 -24 -224 30 -385
43 -125 87 -213 177 -350 12 -19 31 -59 42 -87 11 -29 43 -80 71 -114 28 -33
51 -65 51 -71 0 -5 20 -35 44 -66 24 -31 73 -103 110 -159 63 -96 92 -123 116
-108 14 9 12 52 -2 58 -16 5 18 47 39 47 7 0 13 9 13 19 0 11 11 28 25 39 14
11 25 26 25 33 0 8 19 34 42 59 23 25 42 49 43 53 0 5 9 15 20 23 11 8 20 18
21 22 1 16 28 62 36 62 4 0 8 7 8 15 0 9 7 18 15 21 8 4 15 15 15 25 0 10 8
27 18 37 18 20 35 46 64 102 10 19 27 49 36 65 10 17 42 77 71 135 30 58 60
116 67 130 7 14 23 45 34 70 11 25 25 53 30 63 12 19 -7 30 -74 42 -20 4 -36
11 -36 15 0 16 28 18 81 6 62 -15 79 -12 79 14 0 32 7 28 -320 144 -322 114
-416 186 -570 439 -29 49 -77 110 -107 137 -29 27 -53 52 -53 56 0 4 -6 15
-13 23 -13 16 -33 78 -62 199 -14 61 -12 112 5 112 10 0 60 -128 60 -151 0
-44 72 -90 86 -55 10 25 -58 217 -93 263 -37 49 -48 97 -12 53 63 -77 256
-280 265 -280 6 0 17 7 24 15 16 20 8 32 -125 185 -93 107 -126 154 -95 135
17 -10 47 4 53 25 5 20 37 29 37 11 0 -23 133 -186 229 -281 86 -85 120 -111
176 -137 134 -61 202 -83 258 -83 42 0 79 -10 154 -41 54 -22 113 -46 132 -52
18 -6 37 -20 43 -32 11 -26 64 -56 83 -49 19 8 19 58 0 74 -18 15 -19 42 -3
58 8 8 12 108 16 329 5 333 -6 560 -33 698 -32 161 -56 270 -64 285 -5 9 -12
31 -15 50 -8 39 -33 116 -46 140 -4 9 -11 36 -15 60 -4 25 -14 54 -21 65 -8
11 -14 25 -14 32 0 13 -9 34 -66 161 -13 29 -24 55 -24 59 0 13 -94 190 -126
236 -19 27 -34 57 -34 67 0 10 -7 20 -15 24 -8 3 -15 14 -15 24 0 33 -273 416
-354 498 -23 22 -62 62 -88 90 -26 27 -58 57 -72 67 -15 10 -26 23 -26 30 0 7
-38 46 -85 87 -58 51 -85 82 -85 97 0 13 -11 30 -25 39 -23 15 -27 15 -43 2
-9 -8 -25 -18 -34 -21 -11 -4 -18 -17 -18 -32 0 -24 -3 -25 -59 -25 -63 0 -91
6 -91 21 0 11 111 64 128 61 19 -4 42 17 42 37 0 19 -40 61 -57 61 -6 0 -27
-13 -48 -30 -21 -16 -43 -30 -50 -30 -7 0 -24 -9 -38 -20 -36 -28 -137 -29
-154 -1 -18 29 -97 39 -133 17 -40 -23 -53 -20 -100 19 -23 19 -46 35 -51 35
-24 0 -60 84 -70 163 -5 45 -17 100 -25 123 -8 22 -13 62 -12 90 3 49 3 49
-29 52 -18 2 -33 -1 -33 -7 0 -9 -131 41 -155 59 -5 4 -26 11 -45 15 -19 4
-39 11 -45 15 -5 4 -30 12 -55 19 -314 83 -330 87 -420 97 -30 4 -60 11 -66
15 -14 11 -160 31 -229 31 -27 0 -52 4 -55 8 -6 9 -360 18 -515 13z m1590
-493 c-3 -5 -10 -10 -16 -10 -5 0 -9 5 -9 10 0 6 7 10 16 10 8 0 12 -4 9 -10z
m425 -356 c12 -14 12 -18 -5 -30 -18 -13 -85 -20 -85 -9 0 3 9 14 20 25 11 11
20 27 20 35 0 18 28 7 50 -21z m-125 -24 c3 -5 -3 -10 -14 -10 -11 0 -23 5
-26 10 -3 6 3 10 14 10 11 0 23 -4 26 -10z m354 -65 c11 -11 10 -15 -9 -25
-36 -19 -149 17 -134 42 9 14 125 0 143 -17z m75 -41 c10 -9 16 -33 16 -60 0
-41 -5 -49 -64 -111 l-63 -67 -44 14 c-24 8 -63 34 -86 57 -48 47 -55 82 -24
122 18 23 21 24 52 11 19 -8 51 -29 72 -47 53 -48 81 -42 85 15 2 25 -2 50
-10 60 -8 10 -9 13 -1 9 6 -4 14 -3 18 3 9 15 31 12 49 -6z m-2617 -245 c27
-6 66 -15 88 -21 40 -9 95 -48 95 -67 0 -5 11 -22 24 -38 31 -38 56 -87 56
-113 0 -18 -60 -90 -75 -90 -3 0 -5 8 -5 19 0 22 -16 36 -52 45 -19 4 -30 15
-34 34 -4 15 -21 42 -38 61 -93 100 -255 95 -373 -13 -60 -55 -83 -96 -83
-149 0 -46 26 -129 50 -159 19 -25 19 -26 0 -43 -18 -17 -21 -16 -51 1 -102
60 -104 186 -4 384 39 78 92 125 150 135 22 4 47 11 55 16 22 12 142 11 197
-2z m1780 -46 c40 -43 113 -149 113 -165 0 -5 7 -24 14 -41 46 -99 52 -231 14
-302 -28 -52 -138 -69 -138 -21 0 7 -12 23 -26 37 -27 26 -27 33 1 109 13 34
16 62 11 119 -8 102 -34 139 -131 186 -27 14 -59 25 -70 25 -48 0 -193 -72
-253 -126 -47 -42 -65 -85 -61 -149 2 -24 0 -48 -4 -51 -4 -4 -21 2 -37 14
-16 12 -40 22 -54 22 -14 0 -28 4 -31 10 -13 21 36 147 87 224 46 69 59 81
103 98 49 19 244 44 363 47 61 1 65 0 99 -36z m827 -40 c3 -10 6 -36 7 -58 4
-131 3 -159 -7 -162 -19 -6 -63 188 -50 222 8 21 43 19 50 -2z m-1489 -63 c3
-5 1 -10 -4 -10 -6 0 -11 5 -11 10 0 6 2 10 4 10 3 0 8 -4 11 -10z m-1173 -26
c32 -15 118 -131 118 -159 0 -13 -33 -29 -82 -41 -32 -7 -42 -28 -24 -47 11
-10 45 -12 150 -9 l136 4 0 -47 c0 -58 20 -68 59 -31 19 18 38 26 62 26 37 0
205 -52 221 -68 6 -6 -19 -24 -70 -48 -64 -31 -81 -44 -81 -61 -1 -38 54 -40
122 -6 38 19 35 -3 -3 -25 -33 -19 -42 -65 -14 -76 19 -7 25 -4 86 47 l48 39
31 -26 c30 -26 53 -31 83 -20 23 9 20 39 -5 56 -19 12 -20 17 -10 36 14 27 65
30 99 6 18 -12 26 -13 37 -4 23 19 18 46 -12 69 -14 12 -24 23 -22 24 18 12
144 57 161 57 12 0 32 -10 45 -22 23 -22 24 -22 74 -4 57 21 155 18 169 -5 7
-10 35 -13 127 -10 l118 2 35 -36 c19 -20 58 -48 87 -62 73 -36 93 -57 91 -96
-2 -49 25 -80 97 -115 68 -34 75 -42 100 -116 13 -38 14 -54 5 -82 -10 -28 -9
-42 3 -72 25 -64 49 -194 43 -231 -3 -20 -19 -77 -36 -126 -34 -103 -37 -137
-13 -160 16 -16 16 -20 0 -65 -9 -26 -17 -60 -17 -76 0 -15 -16 -61 -37 -102
-43 -87 -59 -80 -49 21 10 102 9 137 -7 155 -8 9 -17 26 -19 37 -3 16 -11 20
-46 19 -54 -1 -69 -17 -108 -109 l-29 -70 -3 109 -3 109 32 33 32 33 -27 41
c-38 57 -47 54 -103 -37 -41 -66 -66 -97 -101 -127 l-23 -20 5 40 c3 21 10 80
16 129 6 50 18 109 26 133 18 49 13 72 -14 72 -25 0 -38 -16 -81 -102 -36 -70
-85 -117 -138 -133 -33 -9 -29 7 17 74 36 52 70 127 70 153 0 5 -11 19 -25 32
-22 21 -23 26 -13 62 11 40 6 184 -7 217 -10 25 -49 39 -77 27 -41 -16 -98
-77 -98 -104 0 -31 -45 -136 -58 -136 -5 0 -15 7 -22 15 -9 11 -9 25 1 65 14
57 6 83 -27 88 -16 2 -24 -10 -42 -67 -16 -49 -32 -78 -53 -95 -39 -33 -65
-35 -48 -5 23 43 49 133 43 151 -9 28 -49 23 -64 -9 l-13 -28 -12 55 c-11 47
-21 61 -72 107 -57 51 -59 52 -123 54 -84 2 -90 1 -118 -22 -29 -22 -36 -23
-54 -6 -69 65 -251 26 -311 -68 -22 -35 -34 -44 -60 -47 -30 -3 -32 -5 -38
-53 -9 -69 -18 -95 -34 -95 -17 0 -28 33 -21 60 3 11 8 29 11 39 5 18 -17 51
-35 51 -5 0 -16 -7 -24 -16 -30 -29 -13 -238 20 -251 22 -8 16 -23 -9 -23 -26
0 -67 40 -85 83 -26 60 -7 134 50 203 43 52 47 87 11 92 -29 4 -84 -54 -120
-127 l-26 -53 -11 33 c-22 69 -76 28 -76 -59 0 -69 21 -123 57 -144 33 -20 48
-44 33 -53 -13 -8 -40 8 -71 42 -29 30 -49 117 -49 206 0 43 -2 47 -24 47 -32
0 -39 -22 -36 -113 4 -105 1 -137 -10 -137 -17 0 -24 31 -12 50 8 13 5 26 -15
59 -18 31 -24 53 -22 89 3 58 -4 72 -37 72 -16 0 -24 6 -24 18 0 28 -23 54
-41 47 -40 -15 -60 -123 -35 -185 21 -52 21 -133 0 -154 -27 -27 -39 -19 -60
39 -8 23 -7 39 4 68 13 34 13 40 0 54 -12 11 -20 12 -35 4 -31 -16 -46 -64
-41 -126 4 -52 -5 -75 -16 -37 -26 94 -12 200 35 248 31 32 31 32 14 62 -18
30 -18 30 12 69 17 21 45 50 62 66 17 15 31 34 31 42 0 14 59 65 75 65 18 0
45 34 45 56 0 34 -33 40 -78 13 -59 -36 -136 -104 -152 -135 -8 -16 -27 -48
-43 -72 -16 -24 -38 -69 -49 -100 -11 -31 -34 -72 -51 -89 -33 -36 -50 -42
-40 -17 3 8 0 25 -6 37 -10 19 -7 33 24 92 20 39 45 79 55 90 30 34 42 65 35
96 -5 21 -3 29 7 29 25 0 126 80 132 105 8 31 77 70 95 52 6 -6 11 -8 11 -4 0
3 19 -3 43 -13 72 -33 78 -31 320 97 41 22 52 48 26 67 -19 13 -26 12 -66 -5
-25 -10 -64 -19 -87 -19 -38 0 -43 3 -54 33 -19 53 -17 57 32 51 54 -8 86 18
86 69 0 43 -13 60 -47 65 -15 2 -29 4 -30 6 -2 1 23 16 55 34 64 35 106 39
154 16z m-451 -27 c-8 -8 -11 -7 -11 4 0 20 13 34 18 19 3 -7 -1 -17 -7 -23z
m2136 8 c52 -31 73 -69 73 -132 0 -53 -16 -119 -30 -128 -17 -11 -317 32 -337
48 -13 9 -19 87 -7 87 3 0 18 -9 33 -19 34 -25 57 -27 108 -12 70 19 111 96
79 145 -28 44 14 49 81 11z m-137 -60 c0 -14 -48 -45 -70 -45 -23 0 -8 31 23
44 42 19 47 19 47 1z m-430 -111 c0 -16 -8 -27 -22 -33 -30 -11 -36 11 -13 45
19 29 35 23 35 -12z m-677 1 c34 -9 26 -25 -13 -25 -33 0 -43 11 -34 35 4 9 9
12 13 7 3 -6 18 -14 34 -17z m2312 -5 c3 -11 10 -20 15 -20 21 0 29 -37 16
-75 -28 -79 -96 -134 -132 -104 -27 22 -13 83 42 177 27 45 49 54 59 22z
m-145 -31 c0 -5 -4 -9 -10 -9 -5 0 -10 7 -10 16 0 8 5 12 10 9 6 -3 10 -10 10
-16z m-1785 -89 c3 -5 2 -10 -4 -10 -5 0 -13 5 -16 10 -3 6 -2 10 4 10 5 0 13
-4 16 -10z m-1295 -60 c0 -5 -4 -10 -10 -10 -5 0 -10 5 -10 10 0 6 5 10 10 10
6 0 10 -4 10 -10z m3384 -21 c32 -25 33 -49 4 -76 -33 -30 -63 -43 -95 -43
-64 0 -71 54 -15 105 43 40 69 43 106 14z m-534 -119 c0 -5 -4 -10 -10 -10 -5
0 -10 5 -10 10 0 6 5 10 10 10 6 0 10 -4 10 -10z m568 -82 c2 -11 -12 -26 -39
-44 -46 -28 -99 -29 -127 0 -13 13 -11 17 19 35 19 12 43 19 54 17 11 -3 27
-1 35 4 22 15 54 8 58 -12z m-644 -79 c-3 -5 -10 -7 -15 -3 -5 3 -7 10 -3 15
3 5 10 7 15 3 5 -3 7 -10 3 -15z m-27 -35 c-3 -3 -12 -4 -19 -1 -8 3 -5 6 6 6
11 1 17 -2 13 -5z m663 -13 c0 -6 -8 -16 -17 -23 -10 -7 -23 -22 -29 -33 -18
-33 -164 -73 -164 -45 0 43 58 89 113 91 18 0 41 4 52 9 27 12 45 12 45 1z
m-801 -63 c15 -43 22 -98 12 -98 -9 0 -41 88 -41 112 0 17 21 7 29 -14z m141
13 c0 -12 -20 -25 -27 -18 -7 7 6 27 18 27 5 0 9 -4 9 -9z m-20 -65 c0 -8 -4
-18 -10 -21 -5 -3 -10 3 -10 14 0 12 5 21 10 21 6 0 10 -6 10 -14z m-2690 -52
c0 -8 -5 -12 -10 -9 -6 4 -8 11 -5 16 9 14 15 11 15 -7z m3188 8 c10 -7 9 -16
-2 -48 -12 -32 -15 -35 -15 -14 -1 14 -4 35 -7 48 -7 23 2 28 24 14z m85 -104
c-6 -104 -8 -116 -19 -105 -11 11 -22 87 -13 87 5 0 9 27 9 60 0 46 3 60 15
60 12 0 13 -17 8 -102z m-675 -36 c2 -18 -1 -32 -7 -32 -6 0 -11 9 -11 19 0
11 -3 27 -7 37 -4 12 -2 15 8 12 8 -2 15 -19 17 -36z m632 -58 c0 -29 -14 -53
-25 -42 -3 2 -7 31 -10 64 l-6 59 20 -24 c12 -13 21 -37 21 -57z m137 26 c7
-28 10 -56 8 -63 -2 -7 -6 -24 -9 -39 -4 -19 -13 -28 -27 -28 -23 0 -36 27
-20 43 6 6 11 32 11 58 0 90 19 104 37 29z m-2100 -17 c-14 -15 -29 -24 -33
-21 -3 4 6 19 21 33 14 15 29 24 33 21 3 -4 -6 -19 -21 -33z m-1447 -234 c0
-11 -4 -17 -10 -14 -5 3 -10 15 -10 26 0 11 5 17 10 14 6 -3 10 -15 10 -26z
m-55 -149 c11 -17 -45 -110 -67 -110 -13 0 -9 25 12 74 18 43 41 58 55 36z
m3709 -456 c19 -19 21 -45 4 -63 -11 -10 -6 -11 24 -6 20 4 46 4 58 0 19 -6
21 -12 16 -48 -5 -34 -4 -37 4 -19 l10 24 32 -19 c32 -19 86 -95 87 -124 1 -9
24 -26 54 -39 28 -13 66 -35 83 -49 17 -14 39 -30 48 -36 9 -5 19 -27 23 -48
6 -38 6 -38 -23 -31 -84 20 -224 122 -306 222 -72 87 -146 197 -154 226 -7 30
15 36 40 10z m-5290 -1366 c-38 -65 -56 -88 -64 -83 -6 4 7 26 27 50 38 45 50
55 37 33z m5933 -14 c-3 -3 -12 -4 -19 -1 -8 3 -5 6 6 6 11 1 17 -2 13 -5z
m-6196 -327 c-8 -8 -11 -5 -11 9 0 27 14 41 18 19 2 -9 -1 -22 -7 -28z m-11
-27 c0 -5 -4 -10 -10 -10 -5 0 -10 5 -10 10 0 6 5 10 10 10 6 0 10 -4 10 -10z"/>
<path d="M4746 4575 c-10 -26 -7 -131 4 -160 10 -26 11 -26 35 -11 14 9 26 12
30 6 3 -5 -6 -50 -20 -101 -14 -50 -24 -98 -21 -105 7 -17 48 -18 64 -2 9 9
15 9 24 0 34 -34 63 -6 97 92 17 50 19 63 8 85 -14 29 -36 34 -47 11 -4 -8
-17 -35 -29 -60 l-21 -45 6 45 c3 25 10 61 16 80 12 43 8 82 -9 87 -7 3 -24
-7 -37 -20 l-25 -25 -7 36 c-14 81 -20 97 -41 100 -12 2 -23 -4 -27 -13z"/>
<path d="M5027 6674 c-12 -13 -7 -54 7 -60 8 -3 24 0 36 6 19 10 20 13 7 33
-15 23 -38 33 -50 21z"/>
<path d="M5113 6633 c-36 -13 5 -81 65 -112 78 -39 132 -36 132 9 0 12 -18 24
-60 40 -33 12 -63 27 -66 31 -9 15 -58 37 -71 32z"/>
<path d="M3369 4355 c-60 -16 -69 -22 -69 -45 0 -32 55 -36 173 -14 37 8 38
50 1 64 -31 12 -47 12 -105 -5z"/>
<path d="M2595 4278 c-94 -35 -115 -49 -115 -78 0 -39 13 -44 52 -23 18 9 71
22 117 28 92 11 120 30 90 60 -19 20 -105 27 -144 13z"/>
<path d="M3720 4264 c-32 -32 -65 -40 -104 -26 -142 51 -269 2 -341 -131 -23
-44 -14 -84 21 -93 16 -4 31 -1 43 10 10 9 22 16 27 16 5 1 27 9 49 20 22 11
59 19 82 20 l42 0 -2 -127 c-2 -112 1 -136 21 -188 12 -33 27 -64 32 -69 6 -6
10 -20 10 -32 0 -28 -44 -47 -99 -40 -34 3 -43 1 -52 -15 -30 -56 37 -79 169
-58 122 20 203 88 187 158 -3 16 3 61 14 103 17 67 18 82 7 148 l-13 73 31 16
c51 27 98 78 94 103 -3 20 -9 23 -60 26 l-58 3 0 48 c0 35 -4 51 -16 55 -30
12 -59 5 -84 -20z"/>
<path d="M4536 2958 c-8 -13 -22 -45 -31 -73 -27 -80 -225 -460 -297 -570 -43
-66 -80 -110 -109 -130 -23 -16 -68 -55 -99 -85 -68 -68 -293 -316 -338 -373
-80 -101 -136 -140 -241 -167 -25 -7 -56 -24 -70 -39 -37 -38 -186 -127 -249
-147 -55 -17 -89 -51 -78 -79 7 -19 40 -19 74 -1 15 8 60 29 101 48 58 25 76
29 79 19 3 -8 20 -31 38 -51 45 -50 40 -61 -82 -185 -128 -129 -201 -182 -348
-254 l-123 -59 -103 -3 -103 -3 -14 40 c-8 21 -11 53 -8 71 18 98 128 220 223
248 28 9 61 24 74 35 23 20 23 20 3 36 -12 9 -30 13 -45 10 -14 -3 -89 -17
-168 -31 -78 -14 -154 -30 -170 -36 -38 -15 -266 -23 -332 -11 -30 5 -80 19
-110 31 -30 12 -63 21 -73 21 -10 0 -52 20 -95 44 -42 24 -88 47 -102 51 -47
14 -148 72 -207 119 -130 102 -294 265 -320 316 -10 19 -25 45 -35 58 -9 12
-21 46 -28 75 -7 28 -25 76 -41 104 -18 32 -29 68 -29 91 0 21 -6 47 -14 57
-12 16 -16 17 -30 6 -20 -17 -22 -127 -3 -156 7 -11 28 -60 47 -110 62 -168
78 -194 176 -292 51 -51 99 -93 108 -93 8 0 17 -9 21 -19 3 -11 18 -27 32 -36
14 -10 45 -35 67 -55 23 -21 59 -48 81 -61 95 -54 127 -69 147 -69 12 0 44
-15 72 -34 61 -41 120 -66 152 -66 13 0 48 -11 76 -25 46 -22 71 -26 199 -32
151 -6 242 4 301 34 15 7 32 13 38 13 17 0 11 -26 -10 -45 -38 -34 -73 -125
-74 -190 0 -69 24 -125 53 -125 23 0 81 -49 81 -69 0 -17 -55 -103 -120 -186
-25 -33 -49 -68 -53 -77 -3 -10 -10 -18 -16 -18 -11 0 -149 -164 -167 -199
-23 -44 18 -68 64 -36 20 15 28 14 88 -4 80 -25 89 -31 89 -56 0 -15 8 -21 33
-23 28 -3 32 0 32 21 0 14 12 51 26 82 18 38 33 100 44 179 10 67 25 142 33
167 8 24 18 62 22 84 10 54 22 75 43 75 25 0 287 130 374 186 101 65 283 257
332 352 14 27 21 30 70 34 l55 3 15 -56 c15 -51 56 -112 129 -188 66 -69 222
-147 344 -172 105 -21 342 -26 416 -9 148 33 188 45 241 72 112 56 204 141
226 206 19 54 40 188 40 252 0 36 -7 85 -17 110 -25 67 -90 156 -143 195 -39
28 -60 36 -130 44 -46 6 -88 15 -93 20 -5 5 6 18 25 31 56 39 148 133 169 172
10 21 26 63 33 95 8 32 20 75 26 96 6 20 10 61 8 89 -3 50 -5 54 -53 90 -83
63 -111 73 -200 72 -83 -1 -173 -26 -242 -66 -39 -24 -41 -18 -9 25 20 27 100
187 201 402 39 83 67 163 63 182 -5 28 -44 28 -62 1z m146 -632 c29 -13 62
-33 73 -45 18 -21 19 -25 3 -94 -28 -129 -46 -176 -79 -218 -35 -44 -143 -138
-181 -157 -76 -37 -129 -56 -173 -60 -35 -3 -58 -12 -77 -29 -14 -14 -31 -22
-37 -18 -18 11 -51 -5 -51 -24 0 -27 24 -43 54 -35 21 5 27 2 35 -17 5 -13 7
-27 4 -32 -2 -4 3 -10 11 -13 20 -8 83 13 121 40 17 11 32 20 35 18 3 -1 6 3
6 8 1 6 2 15 3 20 1 6 56 10 145 10 158 0 153 2 239 -79 75 -70 92 -151 66
-313 -18 -115 -18 -115 -63 -170 -28 -37 -54 -56 -141 -106 -136 -80 -410
-115 -595 -76 -69 14 -210 71 -286 116 -65 38 -179 204 -172 250 3 20 9 23 60
26 63 3 89 21 68 47 -7 9 -29 15 -51 15 -30 0 -42 5 -55 25 -9 14 -14 28 -11
32 4 3 47 9 96 13 99 9 111 13 111 39 0 25 -27 31 -137 31 -51 0 -93 4 -93 9
0 11 99 105 127 119 20 11 22 9 25 -16 4 -39 42 -40 117 -2 50 26 61 36 61 57
0 24 -2 24 -42 18 -24 -4 -51 -11 -60 -16 -22 -12 -68 -11 -68 1 0 14 29 26
80 34 26 4 70 23 105 46 33 21 73 44 88 49 21 8 28 17 25 34 -2 18 -9 22 -38
21 -19 -1 -46 -4 -58 -7 -19 -5 -15 2 21 36 24 23 56 60 70 83 14 22 67 83
118 135 82 83 107 102 201 149 146 74 215 84 300 46z m-1148 -835 c3 -5 0 -11
-7 -14 -18 -7 -67 3 -67 14 0 12 67 12 74 0z m-120 -58 c-14 -57 -24 -73 -44
-73 -18 0 -20 4 -14 23 9 29 43 77 55 77 5 0 6 -12 3 -27z"/>
<path d="M868 1833 c-9 -10 -48 -114 -87 -232 -39 -118 -76 -220 -82 -227 -15
-19 14 -64 41 -64 23 0 35 21 45 73 4 20 11 37 16 37 12 0 12 -35 0 -58 -18
-34 -34 -101 -28 -116 9 -24 54 -20 71 7 8 12 17 42 21 67 4 25 26 115 47 200
52 200 54 215 33 224 -9 3 -20 4 -25 1 -4 -3 -7 19 -6 47 1 58 -17 74 -46 41z
m-48 -379 c0 -8 -5 -12 -10 -9 -6 4 -8 11 -5 16 9 14 15 11 15 -7z"/>
<path d="M3095 1233 c-120 -58 -152 -99 -72 -91 83 9 220 89 202 118 -13 20
-48 13 -130 -27z"/>
</g>
</svg>
